<svg width="1728" height="1117" viewBox="0 0 1728 1117" fill="none" xmlns="http://www.w3.org/2000/svg">
<g clip-path="url(#clip0_2827_220)">
<rect width="1728" height="1117" fill="#050811"/>
<g opacity="0.1" filter="url(#filter0_f_2827_220)">
<ellipse cx="890.992" cy="1174.65" rx="986.44" ry="552.55" transform="rotate(10.8627 890.992 1174.65)" fill="#0A3C7A"/>
<path d="M1859.47 1360.49C1830.75 1510.2 1696.4 1624.99 1502.29 1689.54C1308.19 1754.08 1054.39 1768.34 786.914 1717.02C519.436 1665.69 288.948 1558.49 132.525 1426.69C-23.907 1294.88 -106.217 1138.5 -77.4905 988.8C-48.7636 839.1 85.5837 724.301 279.695 659.757C473.796 595.216 727.592 580.952 995.07 632.28C1262.55 683.608 1493.04 790.803 1649.46 922.608C1805.89 1054.42 1888.2 1210.79 1859.47 1360.49Z" stroke="black" stroke-width="0.574219"/>
</g>
<g opacity="0.5" filter="url(#filter1_f_2827_220)">
<ellipse cx="1439.38" cy="-49.412" rx="331.675" ry="167.928" transform="rotate(10.8627 1439.38 -49.412)" fill="#0A3C7A"/>
<path d="M1764.83 13.0403C1756.12 58.4188 1711.89 92.6026 1647.25 111.126C1582.63 129.644 1497.7 132.479 1407.79 115.225C1317.87 97.9706 1240.03 63.9002 1186.85 22.7772C1133.66 -18.3567 1105.22 -66.4857 1113.93 -111.864C1122.64 -157.243 1166.87 -191.427 1231.51 -209.95C1296.13 -228.468 1381.06 -231.303 1470.97 -214.049C1560.89 -196.795 1638.73 -162.724 1691.91 -121.601C1745.1 -80.4672 1773.54 -32.3382 1764.83 13.0403Z" stroke="black" stroke-width="0.574219"/>
</g>
<g opacity="0.5" filter="url(#filter2_f_2827_220)">
<ellipse cx="793.38" cy="-49.412" rx="331.675" ry="167.928" transform="rotate(10.8627 793.38 -49.412)" fill="#0A3C7A"/>
<path d="M1118.83 13.0403C1110.12 58.4188 1065.89 92.6026 1001.25 111.126C936.629 129.644 851.7 132.479 761.787 115.225C671.873 97.9706 594.027 63.9002 540.85 22.7772C487.66 -18.3567 459.222 -66.4857 467.93 -111.864C476.638 -157.243 520.871 -191.427 585.509 -209.95C650.131 -228.468 735.059 -231.303 824.973 -214.049C914.886 -196.795 992.733 -162.724 1045.91 -121.601C1099.1 -80.4672 1127.54 -32.3382 1118.83 13.0403Z" stroke="black" stroke-width="0.574219"/>
</g>
<path style="mix-blend-mode:overlay" opacity="0.8" d="M563.115 118.155L634.969 60.1558L1751.17 60.1583L1679.32 118.154L563.115 118.155Z" fill="url(#paint0_linear_2827_220)"/>
<path style="mix-blend-mode:overlay" opacity="0.8" d="M433 25.4078L492.12 -22.312L1457.76 -22.3108L1398.64 25.4066L433 25.4078Z" fill="url(#paint1_linear_2827_220)"/>
<path style="mix-blend-mode:overlay" opacity="0.8" d="M784.971 65.7739L805.122 49.5093H1309.99L1289.84 65.7739H784.971Z" fill="url(#paint2_linear_2827_220)"/>
<path style="mix-blend-mode:color-dodge" d="M1008.73 14.1603L1025.89 0.307129H1627.64L1610.49 14.1603H1008.73Z" fill="url(#paint3_linear_2827_220)"/>
<path style="mix-blend-mode:multiply" opacity="0.6" d="M1049.64 98.9241C1315.45 98.9241 1530.94 87.3045 1530.94 72.9711C1530.94 58.6376 1315.45 47.0181 1049.64 47.0181C783.821 47.0181 568.336 58.6376 568.336 72.9711C568.336 87.3045 783.821 98.9241 1049.64 98.9241Z" fill="url(#paint4_radial_2827_220)"/>
<path style="mix-blend-mode:multiply" opacity="0.6" d="M1400.7 148.714C1666.51 148.714 1882 137.094 1882 122.761C1882 108.427 1666.51 96.8076 1400.7 96.8076C1134.88 96.8076 919.398 108.427 919.398 122.761C919.398 137.094 1134.88 148.714 1400.7 148.714Z" fill="url(#paint5_radial_2827_220)"/>
<g opacity="0.5" filter="url(#filter3_f_2827_220)">
<ellipse cx="268.378" cy="-49.412" rx="331.675" ry="167.928" transform="rotate(10.8627 268.378 -49.412)" fill="#0A3C7A"/>
<path d="M593.828 13.0403C585.12 58.4188 540.887 92.6026 476.248 111.126C411.627 129.644 326.698 132.479 236.785 115.225C146.871 97.9706 69.0247 63.9002 15.8483 22.7772C-37.3423 -18.3567 -65.7801 -66.4857 -57.0721 -111.864C-48.3642 -157.243 -4.13105 -191.427 60.5075 -209.95C125.129 -228.468 210.057 -231.303 299.971 -214.049C389.884 -196.795 467.731 -162.724 520.907 -121.601C574.098 -80.4672 602.536 -32.3382 593.828 13.0403Z" stroke="black" stroke-width="0.574219"/>
</g>
<g opacity="0.5" filter="url(#filter4_f_2827_220)">
<ellipse cx="-377.622" cy="-49.412" rx="331.675" ry="167.928" transform="rotate(10.8627 -377.622 -49.412)" fill="#0A3C7A"/>
<path d="M-52.1722 13.0403C-60.8801 58.4188 -105.113 92.6026 -169.752 111.126C-234.373 129.644 -319.302 132.479 -409.215 115.225C-499.129 97.9706 -576.975 63.9002 -630.152 22.7772C-683.342 -18.3567 -711.78 -66.4857 -703.072 -111.864C-694.364 -157.243 -650.131 -191.427 -585.492 -209.95C-520.871 -228.468 -435.943 -231.303 -346.029 -214.049C-256.116 -196.795 -178.269 -162.724 -125.093 -121.601C-71.902 -80.4672 -43.4643 -32.3382 -52.1722 13.0403Z" stroke="black" stroke-width="0.574219"/>
</g>
<path style="mix-blend-mode:overlay" opacity="0.8" d="M-607.885 118.155L-536.031 60.1558L580.172 60.1583L508.319 118.154L-607.885 118.155Z" fill="url(#paint6_linear_2827_220)"/>
<path style="mix-blend-mode:overlay" opacity="0.8" d="M-738 25.4078L-678.88 -22.312L286.757 -22.3108L227.638 25.4066L-738 25.4078Z" fill="url(#paint7_linear_2827_220)"/>
<path style="mix-blend-mode:overlay" opacity="0.8" d="M-386.029 65.7739L-365.878 49.5093H138.992L118.843 65.7739H-386.029Z" fill="url(#paint8_linear_2827_220)"/>
<path style="mix-blend-mode:color-dodge" d="M-162.27 14.1603L-145.107 0.307129H456.645L439.485 14.1603H-162.27Z" fill="url(#paint9_linear_2827_220)"/>
<path style="mix-blend-mode:multiply" opacity="0.6" d="M-121.364 98.9241C144.451 98.9241 359.936 87.3045 359.936 72.9711C359.936 58.6376 144.451 47.0181 -121.364 47.0181C-387.179 47.0181 -602.664 58.6376 -602.664 72.9711C-602.664 87.3045 -387.179 98.9241 -121.364 98.9241Z" fill="url(#paint10_radial_2827_220)"/>
<path style="mix-blend-mode:multiply" opacity="0.6" d="M229.698 148.714C495.513 148.714 710.998 137.094 710.998 122.761C710.998 108.427 495.513 96.8076 229.698 96.8076C-36.1162 96.8076 -251.602 108.427 -251.602 122.761C-251.602 137.094 -36.1162 148.714 229.698 148.714Z" fill="url(#paint11_radial_2827_220)"/>
<mask id="mask0_2827_220" style="mask-type:luminance" maskUnits="userSpaceOnUse" x="810" y="54" width="12" height="53">
<path d="M821.182 54.0034H810.617V106.828H821.182V54.0034Z" fill="white"/>
</mask>
<g mask="url(#mask0_2827_220)">
<path d="M811.72 50.7726L794.463 101.312L820.079 110.059L837.336 59.5195L811.72 50.7726Z" fill="url(#paint12_linear_2827_220)"/>
</g>
<mask id="mask1_2827_220" style="mask-type:luminance" maskUnits="userSpaceOnUse" x="705" y="75" width="32" height="11">
<path d="M736.956 75.1436H705.74V85.7079H736.956V75.1436Z" fill="white"/>
</mask>
<g mask="url(#mask1_2827_220)">
<path d="M709 65.5976L702.51 84.6045L733.696 95.2533L740.186 76.2465L709 65.5976Z" fill="url(#paint13_linear_2827_220)"/>
</g>
<mask id="mask2_2827_220" style="mask-type:luminance" maskUnits="userSpaceOnUse" x="684" y="54" width="53" height="53">
<path d="M699.553 54.0249C695.462 54.0249 691.873 55.5257 688.805 58.5934C685.693 61.6618 684.148 65.274 684.148 69.4283V91.382C684.148 95.538 685.693 99.1494 688.805 102.217C691.873 105.285 695.462 106.808 699.553 106.808H736.953V96.2342H699.857C698.464 96.2342 697.246 95.7336 696.245 94.7325C695.201 93.6882 694.701 92.4703 694.701 91.0771V69.734C694.701 68.3417 695.201 67.1449 696.245 66.0998C697.246 65.0776 698.464 64.577 699.857 64.577H736.953V54.0249H699.553Z" fill="white"/>
</mask>
<g mask="url(#mask2_2827_220)">
<path d="M689.663 37.8764L668.008 101.296L731.44 122.956L753.096 59.536L689.663 37.8764Z" fill="url(#paint14_linear_2827_220)"/>
</g>
<mask id="mask3_2827_220" style="mask-type:luminance" maskUnits="userSpaceOnUse" x="831" y="54" width="54" height="43">
<path d="M846.975 54.0034C842.89 54.0034 839.298 55.5352 836.2 58.5988C833.099 61.6632 831.551 65.2729 831.551 69.4281V85.6981H873.811V96.1866H884.375V75.1337H842.116V69.7452C842.116 68.3381 842.626 67.1226 843.648 66.1012C844.668 65.0805 845.883 64.5694 847.292 64.5694H884.375V54.0034H846.975Z" fill="white"/>
</mask>
<g mask="url(#mask3_2827_220)">
<path d="M837.066 37.8493L818.65 91.7817L878.859 112.341L897.275 58.4081L837.066 37.8493Z" fill="url(#paint15_linear_2827_220)"/>
</g>
<mask id="mask4_2827_220" style="mask-type:luminance" maskUnits="userSpaceOnUse" x="831" y="96" width="43" height="11">
<path d="M831.551 96.2641V106.828H873.774V96.2217L831.551 96.2641Z" fill="white"/>
</mask>
<g mask="url(#mask4_2827_220)">
<path d="M835.959 83.3088L828.307 105.72L869.365 119.74L877.017 97.3285L835.959 83.3088Z" fill="url(#paint16_linear_2827_220)"/>
</g>
<mask id="mask5_2827_220" style="mask-type:luminance" maskUnits="userSpaceOnUse" x="758" y="75" width="43" height="32">
<path d="M768.898 75.1333V85.6976H789.681V91.0854C789.681 92.424 789.168 93.6223 788.148 94.6788C787.127 95.7345 785.946 96.2636 784.609 96.2636H778.423V96.262H758.514V106.828H784.821C788.904 106.828 792.496 105.28 795.597 102.179C798.695 99.081 800.245 95.4892 800.245 91.4025V75.1333H768.898Z" fill="white"/>
</mask>
<g mask="url(#mask5_2827_220)">
<path d="M762.87 62.3714L748.82 103.518L795.887 119.589L809.937 78.4426L762.87 62.3714Z" fill="url(#paint17_linear_2827_220)"/>
</g>
<mask id="mask6_2827_220" style="mask-type:luminance" maskUnits="userSpaceOnUse" x="747" y="54" width="54" height="43">
<path d="M762.951 54.0034C758.795 54.0034 755.169 55.5352 752.071 58.5988C748.969 61.6632 747.42 65.2729 747.42 69.4281V96.1776H757.986V69.7452C757.986 68.3381 758.514 67.1226 759.571 66.1012C760.627 65.0805 761.825 64.5694 763.162 64.5694H800.246V54.0034H762.951Z" fill="white"/>
</mask>
<g mask="url(#mask6_2827_220)">
<path d="M752.935 37.8487L734.521 91.7734L794.728 112.332L813.141 58.407L752.935 37.8487Z" fill="url(#paint18_linear_2827_220)"/>
</g>
<mask id="mask7_2827_220" style="mask-type:luminance" maskUnits="userSpaceOnUse" x="617" y="54" width="57" height="53">
<path d="M627.565 69.7418C627.565 68.3396 628.071 67.1241 629.098 66.0969C630.117 65.0787 631.331 64.5652 632.742 64.5652H657.524C658.935 64.5652 660.149 65.0787 661.168 66.0969C662.187 67.1241 662.701 68.3396 662.701 69.7418V75.1303H627.565V69.7418ZM632.424 54C631.959 54 631.494 54.0245 631.046 54.0644C627.524 54.375 624.394 55.9076 621.647 58.6549C618.549 61.7527 617 65.3478 617 69.432V106.826H627.565V85.6955H662.701V106.826H673.266V69.432C673.266 65.3478 671.717 61.7527 668.619 58.6549C665.864 55.9076 662.742 54.375 659.22 54.0644C658.771 54.0245 658.307 54 657.842 54H632.424Z" fill="white"/>
</mask>
<g mask="url(#mask7_2827_220)">
<path d="M667.391 36.7931L600.846 59.5156L622.875 124.032L689.421 101.309L667.391 36.7931Z" fill="url(#paint19_linear_2827_220)"/>
</g>
<mask id="mask8_2827_220" style="mask-type:luminance" maskUnits="userSpaceOnUse" x="916" y="56" width="18" height="51">
<path d="M916 56V65.2176H924.332V106.842H933.586V56H916Z" fill="white"/>
</mask>
<g mask="url(#mask8_2827_220)">
<path d="M933.484 54.6653L912.143 56.2939L916.102 108.176L937.443 106.548L933.484 54.6653Z" fill="url(#paint20_linear_2827_220)"/>
</g>
<mask id="mask9_2827_220" style="mask-type:luminance" maskUnits="userSpaceOnUse" x="942" y="56" width="48" height="51">
<path d="M947.129 56V65.2176H976.734C977.916 65.2176 978.814 65.5372 979.429 66.1747C980.042 66.813 980.351 67.7594 980.351 69.0108V73.0893C980.351 74.2942 980.049 75.2105 979.447 75.8366C978.843 76.4635 977.916 76.7765 976.663 76.7765H955.886C954.303 76.7765 952.885 76.9779 951.632 77.3798C950.379 77.7808 949.275 78.3189 948.317 78.9923C947.36 79.6656 946.545 80.4401 945.871 81.314C945.197 82.1887 944.647 83.1107 944.222 84.08C943.796 85.0493 943.483 86.0235 943.282 87.005C943.082 87.9865 942.98 88.9142 942.98 89.7873V106.842H989.676V97.6239H952.199V89.7873C952.27 89.3406 952.364 88.8906 952.483 88.4414C952.601 87.9922 952.784 87.5903 953.032 87.2357C953.281 86.8811 953.629 86.5974 954.079 86.3846C954.527 86.1718 955.13 86.0658 955.886 86.0658H976.734C978.033 86.0658 979.434 85.8343 980.936 85.3745C982.438 84.914 983.837 84.168 985.138 83.1409C986.436 82.1121 987.518 80.7776 988.38 79.1341C989.244 77.4914 989.676 75.4762 989.676 73.0893V68.9407C989.676 68.0896 989.576 67.1741 989.374 66.1926C989.173 65.2119 988.854 64.2426 988.417 63.2864C987.979 62.3277 987.418 61.4122 986.733 60.5375C986.047 59.6627 985.226 58.8891 984.269 58.2157C983.311 57.5424 982.206 57.0043 980.954 56.6024C979.701 56.1997 978.294 56 976.734 56H947.129Z" fill="white"/>
</mask>
<g mask="url(#mask9_2827_220)">
<path d="M989.406 52.4572L939.123 56.2944L943.251 110.385L993.534 106.548L989.406 52.4572Z" fill="url(#paint21_linear_2827_220)"/>
</g>
<mask id="mask10_2827_220" style="mask-type:luminance" maskUnits="userSpaceOnUse" x="998" y="56" width="48" height="51">
<path d="M998.398 56V73.0893C998.398 74.3887 998.628 75.7958 999.089 77.308C999.55 78.8211 1000.29 80.2281 1001.31 81.5267C1002.32 82.8278 1003.65 83.9088 1005.29 84.7705C1006.94 85.6354 1008.95 86.0658 1011.34 86.0658H1032.12C1033.34 86.0658 1034.27 86.3846 1034.88 87.0221C1035.5 87.6604 1035.8 88.5832 1035.8 89.7873V93.9009C1035.8 94.9647 1035.49 95.8508 1034.86 96.5601C1034.24 97.2693 1033.34 97.6239 1032.19 97.6239H998.398V106.842H1032.19C1033.75 106.842 1035.15 106.641 1036.41 106.239C1037.66 105.837 1038.76 105.3 1039.72 104.627C1040.68 103.952 1041.49 103.178 1042.17 102.304C1042.84 101.429 1043.4 100.514 1043.83 99.556C1044.27 98.5989 1044.59 97.6362 1044.79 96.6661C1044.99 95.6976 1045.09 94.7756 1045.09 93.9009V89.7873C1045.09 87.4012 1044.66 85.3794 1043.8 83.7262C1042.94 82.0713 1041.86 80.7287 1040.57 79.7015C1039.28 78.6727 1037.88 77.9284 1036.37 77.4678C1034.86 77.0072 1033.46 76.7765 1032.19 76.7765H1011.34C1010.13 76.7765 1009.21 76.4692 1008.57 75.8545C1007.94 75.2398 1007.62 74.3178 1007.62 73.0893V65.2176H1040.87V56H998.398Z" fill="white"/>
</mask>
<g mask="url(#mask10_2827_220)">
<path d="M1044.82 52.4578L994.541 56.2949L998.669 110.386L1048.95 106.549L1044.82 52.4578Z" fill="url(#paint22_linear_2827_220)"/>
</g>
<mask id="mask11_2827_220" style="mask-type:luminance" maskUnits="userSpaceOnUse" x="1052" y="56" width="60" height="51">
<path d="M1069.11 96.8087C1067.66 96.2413 1066.38 95.4318 1065.27 94.3802C1064.16 93.3286 1063.27 92.0577 1062.61 90.5683C1061.95 89.0797 1061.61 87.4126 1061.61 85.5694V77.2722C1061.61 75.429 1061.95 73.757 1062.63 72.2553C1063.3 70.7553 1064.2 69.4787 1065.32 68.4263C1066.44 67.3755 1067.73 66.5717 1069.18 66.0157C1070.64 65.4605 1072.13 65.1948 1073.67 65.2176H1090.3C1091.88 65.1948 1093.39 65.4662 1094.84 66.0328C1096.28 66.601 1097.55 67.4162 1098.65 68.4801C1099.75 69.5431 1100.63 70.8206 1101.29 72.3091C1101.95 73.7985 1102.28 75.4526 1102.28 77.2722V85.5694C1102.28 87.3188 1102 88.9313 1101.43 90.4093C1100.86 91.8865 1100.06 93.1558 1099.02 94.2196C1097.98 95.2835 1096.72 96.1174 1095.24 96.7199C1093.77 97.3231 1092.12 97.6239 1090.3 97.6239H1073.67C1073.61 97.6256 1073.54 97.6256 1073.48 97.6256C1071.97 97.6256 1070.51 97.3533 1069.11 96.8087ZM1073.67 56C1070.88 56 1068.2 56.5258 1065.64 57.5766C1063.07 58.6291 1060.81 60.094 1058.85 61.9739C1056.89 63.8521 1055.32 66.0923 1054.15 68.692C1052.98 71.2926 1052.4 74.1532 1052.4 77.2722V85.5694C1052.4 87.649 1052.66 89.6169 1053.19 91.4723C1053.73 93.3286 1054.47 95.0487 1055.43 96.6318C1056.39 98.215 1057.52 99.6342 1058.85 100.886C1060.17 102.139 1061.62 103.207 1063.19 104.094C1064.76 104.981 1066.44 105.661 1068.21 106.133C1069.98 106.607 1071.8 106.842 1073.67 106.842H1090.3C1092.14 106.842 1093.95 106.607 1095.72 106.133C1097.5 105.661 1099.17 104.981 1100.74 104.094C1102.31 103.207 1103.76 102.139 1105.08 100.886C1106.41 99.6342 1107.55 98.215 1108.52 96.6318C1109.49 95.0487 1110.24 93.3286 1110.77 91.4723C1111.3 89.6169 1111.57 87.649 1111.57 85.5694V77.2722C1111.57 75.1934 1111.3 73.2254 1110.77 71.3692C1110.24 69.5138 1109.49 67.7937 1108.52 66.2105C1107.55 64.6274 1106.41 63.2089 1105.08 61.9559C1103.76 60.7038 1102.31 59.6334 1100.74 58.7473C1099.17 57.8611 1097.5 57.1821 1095.72 56.7084C1093.95 56.2364 1092.14 56 1090.3 56H1073.67Z" fill="white"/>
</mask>
<g mask="url(#mask11_2827_220)">
<path d="M1111.23 51.5109L1048.54 56.2949L1052.74 111.333L1115.43 106.549L1111.23 51.5109Z" fill="url(#paint23_linear_2827_220)"/>
</g>
</g>
<defs>
<filter id="filter0_f_2827_220" x="-290.154" y="394.163" width="2362.29" height="1560.97" filterUnits="userSpaceOnUse" color-interpolation-filters="sRGB">
<feFlood flood-opacity="0" result="BackgroundImageFix"/>
<feBlend mode="normal" in="SourceGraphic" in2="BackgroundImageFix" result="shape"/>
<feGaussianBlur stdDeviation="103.359" result="effect1_foregroundBlur_2827_220"/>
</filter>
<filter id="filter1_f_2827_220" x="905.371" y="-432.545" width="1068.02" height="766.266" filterUnits="userSpaceOnUse" color-interpolation-filters="sRGB">
<feFlood flood-opacity="0" result="BackgroundImageFix"/>
<feBlend mode="normal" in="SourceGraphic" in2="BackgroundImageFix" result="shape"/>
<feGaussianBlur stdDeviation="103.359" result="effect1_foregroundBlur_2827_220"/>
</filter>
<filter id="filter2_f_2827_220" x="259.371" y="-432.545" width="1068.02" height="766.266" filterUnits="userSpaceOnUse" color-interpolation-filters="sRGB">
<feFlood flood-opacity="0" result="BackgroundImageFix"/>
<feBlend mode="normal" in="SourceGraphic" in2="BackgroundImageFix" result="shape"/>
<feGaussianBlur stdDeviation="103.359" result="effect1_foregroundBlur_2827_220"/>
</filter>
<filter id="filter3_f_2827_220" x="-265.631" y="-432.545" width="1068.02" height="766.266" filterUnits="userSpaceOnUse" color-interpolation-filters="sRGB">
<feFlood flood-opacity="0" result="BackgroundImageFix"/>
<feBlend mode="normal" in="SourceGraphic" in2="BackgroundImageFix" result="shape"/>
<feGaussianBlur stdDeviation="103.359" result="effect1_foregroundBlur_2827_220"/>
</filter>
<filter id="filter4_f_2827_220" x="-911.631" y="-432.545" width="1068.02" height="766.266" filterUnits="userSpaceOnUse" color-interpolation-filters="sRGB">
<feFlood flood-opacity="0" result="BackgroundImageFix"/>
<feBlend mode="normal" in="SourceGraphic" in2="BackgroundImageFix" result="shape"/>
<feGaussianBlur stdDeviation="103.359" result="effect1_foregroundBlur_2827_220"/>
</filter>
<linearGradient id="paint0_linear_2827_220" x1="1376.8" y1="324.107" x2="1007.82" y2="-70.5673" gradientUnits="userSpaceOnUse">
<stop stop-color="#CCCDE8"/>
<stop offset="0.375" stop-color="#CECFE3"/>
<stop offset="1" stop-color="#ECB9AF" stop-opacity="0"/>
</linearGradient>
<linearGradient id="paint1_linear_2827_220" x1="1135.32" y1="204.719" x2="816.249" y2="-136.57" gradientUnits="userSpaceOnUse">
<stop stop-color="#CCCDE8"/>
<stop offset="0.375" stop-color="#CECFE3"/>
<stop offset="1" stop-color="#ECB9AF" stop-opacity="0"/>
</linearGradient>
<linearGradient id="paint2_linear_2827_220" x1="1146.51" y1="163.559" x2="980.162" y2="-14.3642" gradientUnits="userSpaceOnUse">
<stop stop-color="#CCCDE8"/>
<stop offset="0.375" stop-color="#CECFE3"/>
<stop offset="1" stop-color="#ECB9AF" stop-opacity="0"/>
</linearGradient>
<linearGradient id="paint3_linear_2827_220" x1="1008.73" y1="7.23373" x2="1627.64" y2="7.23373" gradientUnits="userSpaceOnUse">
<stop stop-color="white"/>
<stop offset="1"/>
</linearGradient>
<radialGradient id="paint4_radial_2827_220" cx="0" cy="0" r="1" gradientUnits="userSpaceOnUse" gradientTransform="translate(1049.42 72.9624) scale(453.631 27.0742)">
<stop offset="0.004" stop-color="#231F20"/>
<stop offset="0.07" stop-color="#393536"/>
<stop offset="0.258" stop-color="#747272"/>
<stop offset="0.44" stop-color="#A6A4A4"/>
<stop offset="0.609" stop-color="#CCCBCB"/>
<stop offset="0.764" stop-color="#E8E7E7"/>
<stop offset="0.899" stop-color="#F9F8F8"/>
<stop offset="1" stop-color="white"/>
</radialGradient>
<radialGradient id="paint5_radial_2827_220" cx="0" cy="0" r="1" gradientUnits="userSpaceOnUse" gradientTransform="translate(1400.42 122.781) scale(453.631 27.0742)">
<stop offset="0.004" stop-color="#231F20"/>
<stop offset="0.07" stop-color="#393536"/>
<stop offset="0.258" stop-color="#747272"/>
<stop offset="0.44" stop-color="#A6A4A4"/>
<stop offset="0.609" stop-color="#CCCBCB"/>
<stop offset="0.764" stop-color="#E8E7E7"/>
<stop offset="0.899" stop-color="#F9F8F8"/>
<stop offset="1" stop-color="white"/>
</radialGradient>
<linearGradient id="paint6_linear_2827_220" x1="205.8" y1="324.107" x2="-163.184" y2="-70.5673" gradientUnits="userSpaceOnUse">
<stop stop-color="#CCCDE8"/>
<stop offset="0.375" stop-color="#CECFE3"/>
<stop offset="1" stop-color="#ECB9AF" stop-opacity="0"/>
</linearGradient>
<linearGradient id="paint7_linear_2827_220" x1="-35.6764" y1="204.719" x2="-354.751" y2="-136.57" gradientUnits="userSpaceOnUse">
<stop stop-color="#CCCDE8"/>
<stop offset="0.375" stop-color="#CECFE3"/>
<stop offset="1" stop-color="#ECB9AF" stop-opacity="0"/>
</linearGradient>
<linearGradient id="paint8_linear_2827_220" x1="-24.4946" y1="163.559" x2="-190.838" y2="-14.3642" gradientUnits="userSpaceOnUse">
<stop stop-color="#CCCDE8"/>
<stop offset="0.375" stop-color="#CECFE3"/>
<stop offset="1" stop-color="#ECB9AF" stop-opacity="0"/>
</linearGradient>
<linearGradient id="paint9_linear_2827_220" x1="-162.271" y1="7.23373" x2="456.645" y2="7.23373" gradientUnits="userSpaceOnUse">
<stop stop-color="white"/>
<stop offset="1"/>
</linearGradient>
<radialGradient id="paint10_radial_2827_220" cx="0" cy="0" r="1" gradientUnits="userSpaceOnUse" gradientTransform="translate(-121.584 72.9624) scale(453.631 27.0742)">
<stop offset="0.004" stop-color="#231F20"/>
<stop offset="0.07" stop-color="#393536"/>
<stop offset="0.258" stop-color="#747272"/>
<stop offset="0.44" stop-color="#A6A4A4"/>
<stop offset="0.609" stop-color="#CCCBCB"/>
<stop offset="0.764" stop-color="#E8E7E7"/>
<stop offset="0.899" stop-color="#F9F8F8"/>
<stop offset="1" stop-color="white"/>
</radialGradient>
<radialGradient id="paint11_radial_2827_220" cx="0" cy="0" r="1" gradientUnits="userSpaceOnUse" gradientTransform="translate(229.417 122.781) scale(453.631 27.0742)">
<stop offset="0.004" stop-color="#231F20"/>
<stop offset="0.07" stop-color="#393536"/>
<stop offset="0.258" stop-color="#747272"/>
<stop offset="0.44" stop-color="#A6A4A4"/>
<stop offset="0.609" stop-color="#CCCBCB"/>
<stop offset="0.764" stop-color="#E8E7E7"/>
<stop offset="0.899" stop-color="#F9F8F8"/>
<stop offset="1" stop-color="white"/>
</radialGradient>
<linearGradient id="paint12_linear_2827_220" x1="863.666" y1="-60.2908" x2="747.444" y2="280.078" gradientUnits="userSpaceOnUse">
<stop stop-color="white"/>
<stop offset="0.63" stop-color="#087DFF"/>
<stop offset="1" stop-color="#0D1637"/>
</linearGradient>
<linearGradient id="paint13_linear_2827_220" x1="739.102" y1="27.4368" x2="695.393" y2="155.443" gradientUnits="userSpaceOnUse">
<stop stop-color="white"/>
<stop offset="0.63" stop-color="#087DFF"/>
<stop offset="1" stop-color="#0D1637"/>
</linearGradient>
<linearGradient id="paint14_linear_2827_220" x1="770.187" y1="-96.2552" x2="624.345" y2="330.86" gradientUnits="userSpaceOnUse">
<stop stop-color="white"/>
<stop offset="0.63" stop-color="#087DFF"/>
<stop offset="1" stop-color="#0D1637"/>
</linearGradient>
<linearGradient id="paint15_linear_2827_220" x1="908.616" y1="-75.1673" x2="784.591" y2="288.052" gradientUnits="userSpaceOnUse">
<stop stop-color="white"/>
<stop offset="0.63" stop-color="#087DFF"/>
<stop offset="1" stop-color="#0D1637"/>
</linearGradient>
<linearGradient id="paint16_linear_2827_220" x1="873.554" y1="39.03" x2="822.016" y2="189.964" gradientUnits="userSpaceOnUse">
<stop stop-color="white"/>
<stop offset="0.63" stop-color="#087DFF"/>
<stop offset="1" stop-color="#0D1637"/>
</linearGradient>
<linearGradient id="paint17_linear_2827_220" x1="818.012" y1="-23.6632" x2="723.39" y2="253.448" gradientUnits="userSpaceOnUse">
<stop stop-color="white"/>
<stop offset="0.63" stop-color="#087DFF"/>
<stop offset="1" stop-color="#0D1637"/>
</linearGradient>
<linearGradient id="paint18_linear_2827_220" x1="824.477" y1="-75.1506" x2="700.47" y2="288.016" gradientUnits="userSpaceOnUse">
<stop stop-color="white"/>
<stop offset="0.63" stop-color="#087DFF"/>
<stop offset="1" stop-color="#0D1637"/>
</linearGradient>
<linearGradient id="paint19_linear_2827_220" x1="830.074" y1="16.5601" x2="381.911" y2="169.59" gradientUnits="userSpaceOnUse">
<stop stop-color="white"/>
<stop offset="0.63" stop-color="#087DFF"/>
<stop offset="1" stop-color="#0D1637"/>
</linearGradient>
<linearGradient id="paint20_linear_2827_220" x1="984.135" y1="76.3835" x2="840.407" y2="87.3519" gradientUnits="userSpaceOnUse">
<stop stop-color="white"/>
<stop offset="0.63" stop-color="#087DFF"/>
<stop offset="1" stop-color="#0D1637"/>
</linearGradient>
<linearGradient id="paint21_linear_2827_220" x1="1106.2" y1="70.2171" x2="767.555" y2="96.06" gradientUnits="userSpaceOnUse">
<stop stop-color="white"/>
<stop offset="0.63" stop-color="#087DFF"/>
<stop offset="1" stop-color="#0D1637"/>
</linearGradient>
<linearGradient id="paint22_linear_2827_220" x1="1161.61" y1="70.218" x2="822.979" y2="96.0601" gradientUnits="userSpaceOnUse">
<stop stop-color="white"/>
<stop offset="0.63" stop-color="#087DFF"/>
<stop offset="1" stop-color="#0D1637"/>
</linearGradient>
<linearGradient id="paint23_linear_2827_220" x1="1256.37" y1="67.5741" x2="834.176" y2="99.7934" gradientUnits="userSpaceOnUse">
<stop stop-color="white"/>
<stop offset="0.63" stop-color="#087DFF"/>
<stop offset="1" stop-color="#0D1637"/>
</linearGradient>
<clipPath id="clip0_2827_220">
<rect width="1728" height="1117" fill="white"/>
</clipPath>
</defs>
</svg>
