<svg width="652" height="668" viewBox="0 0 652 668" fill="none" xmlns="http://www.w3.org/2000/svg">
<path d="M647.84 643.122L625.129 662H26.2132L3.5 643.122V24.3774L26.2133 5.49982H625.129L647.84 24.3774V643.122Z" fill="#0A4F9B" fill-opacity="0.1" stroke="#0A4F9B" stroke-width="3"/>
<path d="M487 4L474.889 13.708H325.916V4.51265L487 4Z" fill="#0A4F9B"/>
<path d="M165 4L177.111 13.708H326.084V4.51265L165 4Z" fill="#0A4F9B"/>
<path d="M487 663.708L474.889 654H325.916V663.195L487 663.708Z" fill="#0A4F9B"/>
<path d="M165 663.708L177.111 654H326.084V663.195L165 663.708Z" fill="#0A4F9B"/>
<path d="M619 665.276H24.8801L2 646.543V604" stroke="#0A4F9B" stroke-width="4" stroke-miterlimit="10"/>
<path d="M33 665.276H627.12L650 646.543V604" stroke="#0A4F9B" stroke-width="4" stroke-miterlimit="10"/>
<path d="M494 2.49999H627.127L650.007 21.2334V87.9998" stroke="#0A4F9B" stroke-width="4" stroke-miterlimit="10"/>
<path d="M517.5 2.50021H24.8801L2 21.2336V88" stroke="#0A4F9B" stroke-width="4" stroke-miterlimit="10"/>
</svg>
