<svg width="1514" height="866" viewBox="0 0 1514 866" fill="none" xmlns="http://www.w3.org/2000/svg">
<path d="M1512.5 843.873L1496.11 864.5H17.89L1.5 843.873V22.127L17.89 1.5H1496.11L1512.5 22.127V843.873Z" fill="#0A4F9B" fill-opacity="0.1" stroke="#78889B" stroke-width="3"/>
<path d="M1512.5 843.873L1496.11 864.5H17.89L1.5 843.873V22.127L17.89 1.5H1496.11L1512.5 22.127V843.873Z" fill="#0A4F9B" fill-opacity="0.1" stroke="#78889B" stroke-width="3"/>
<path d="M1512.5 843.873L1496.11 864.5H17.89L1.5 843.873V22.127L17.89 1.5H1496.11L1512.5 22.127V843.873Z" fill="#0A4F9B" fill-opacity="0.1" stroke="#78889B" stroke-width="3"/>
<path d="M286.791 52.5H97.7734L85 42.1821L85 3L107.903 3.00005L273.792 3H299.563V42.1821L286.791 52.5Z" fill="#0664E0"/>
<path d="M110.34 36V18.2965H114.619V32.525H121.984V36H110.34ZM140.219 27.1483C140.219 29.0961 139.844 30.7472 139.095 32.1014C138.346 33.4557 137.332 34.4844 136.052 35.1874C134.779 35.8905 133.349 36.242 131.765 36.242C130.174 36.242 128.742 35.8876 127.468 35.1788C126.195 34.47 125.184 33.4413 124.434 32.0928C123.691 30.7385 123.319 29.0903 123.319 27.1483C123.319 25.2004 123.691 23.5494 124.434 22.1951C125.184 20.8408 126.195 19.8122 127.468 19.1091C128.742 18.406 130.174 18.0545 131.765 18.0545C133.349 18.0545 134.779 18.406 136.052 19.1091C137.332 19.8122 138.346 20.8408 139.095 22.1951C139.844 23.5494 140.219 25.2004 140.219 27.1483ZM135.845 27.1483C135.845 25.9957 135.681 25.0218 135.352 24.2265C135.029 23.4312 134.563 22.829 133.952 22.4199C133.347 22.0107 132.618 21.8061 131.765 21.8061C130.918 21.8061 130.189 22.0107 129.578 22.4199C128.967 22.829 128.497 23.4312 128.169 24.2265C127.846 25.0218 127.685 25.9957 127.685 27.1483C127.685 28.3008 127.846 29.2748 128.169 30.07C128.497 30.8653 128.967 31.4675 129.578 31.8767C130.189 32.2858 130.918 32.4904 131.765 32.4904C132.618 32.4904 133.347 32.2858 133.952 31.8767C134.563 31.4675 135.029 30.8653 135.352 30.07C135.681 29.2748 135.845 28.3008 135.845 27.1483ZM154.335 24.0796C154.237 23.7165 154.093 23.3967 153.903 23.12C153.712 22.8377 153.479 22.5985 153.202 22.4026C152.926 22.2066 152.609 22.0597 152.252 21.9617C151.894 21.858 151.502 21.8061 151.076 21.8061C150.217 21.8061 149.474 22.0136 148.846 22.4285C148.223 22.8434 147.742 23.4485 147.402 24.2438C147.062 25.0333 146.892 25.9928 146.892 27.1223C146.892 28.2576 147.056 29.2258 147.385 30.0268C147.713 30.8278 148.189 31.4387 148.811 31.8594C149.434 32.2801 150.188 32.4904 151.076 32.4904C151.86 32.4904 152.522 32.3636 153.064 32.1101C153.612 31.8508 154.027 31.4848 154.309 31.0123C154.591 30.5397 154.732 29.9836 154.732 29.3439L155.528 29.439H151.223V26.3184H158.856V28.661C158.856 30.2458 158.519 31.6029 157.844 32.7325C157.176 33.862 156.254 34.7293 155.078 35.3344C153.908 35.9395 152.563 36.242 151.041 36.242C149.353 36.242 147.869 35.8761 146.59 35.1442C145.31 34.4123 144.313 33.3693 143.599 32.015C142.884 30.655 142.527 29.0414 142.527 27.1742C142.527 25.722 142.743 24.434 143.175 23.3102C143.607 22.1807 144.21 21.2241 144.982 20.4403C145.76 19.6566 146.659 19.063 147.679 18.6596C148.705 18.2562 149.808 18.0545 150.99 18.0545C152.015 18.0545 152.969 18.2015 153.851 18.4954C154.738 18.7893 155.522 19.2042 156.202 19.7401C156.888 20.2761 157.444 20.9129 157.87 21.6505C158.297 22.3882 158.562 23.1978 158.666 24.0796H154.335ZM166.608 36V18.2965H170.886V25.4021H177.862V18.2965H182.133V36H177.862V28.8858H170.886V36H166.608ZM189.096 18.2965V36H184.817V18.2965H189.096ZM201.351 23.6041C201.293 22.9702 201.037 22.4775 200.582 22.126C200.132 21.7687 199.49 21.59 198.654 21.59C198.101 21.59 197.64 21.662 197.271 21.8061C196.902 21.9502 196.626 22.149 196.441 22.4026C196.257 22.6504 196.162 22.9356 196.156 23.2583C196.144 23.5234 196.196 23.7568 196.311 23.9585C196.432 24.1602 196.605 24.3389 196.83 24.4945C197.061 24.6443 197.337 24.7769 197.66 24.8921C197.983 25.0074 198.346 25.1082 198.749 25.1947L200.271 25.5404C201.146 25.7306 201.919 25.9842 202.587 26.3011C203.261 26.6181 203.826 26.9956 204.281 27.4335C204.742 27.8715 205.091 28.3758 205.327 28.9463C205.564 29.5168 205.685 30.1565 205.69 30.8653C205.685 31.9833 205.402 32.9428 204.843 33.7438C204.284 34.5449 203.48 35.1586 202.432 35.5851C201.388 36.0115 200.129 36.2248 198.654 36.2248C197.173 36.2248 195.882 36.0029 194.781 35.5591C193.681 35.1154 192.825 34.4412 192.214 33.5364C191.603 32.6316 191.289 31.4877 191.272 30.1046H195.369C195.404 30.6751 195.556 31.1506 195.827 31.5309C196.098 31.9113 196.47 32.1994 196.942 32.3953C197.421 32.5913 197.974 32.6892 198.602 32.6892C199.178 32.6892 199.668 32.6114 200.072 32.4559C200.481 32.3003 200.795 32.0841 201.014 31.8075C201.233 31.5309 201.345 31.214 201.351 30.8567C201.345 30.5224 201.242 30.2372 201.04 30.0009C200.838 29.7588 200.527 29.5514 200.106 29.3785C199.691 29.1998 199.161 29.0356 198.516 28.8858L196.666 28.4536C195.133 28.102 193.926 27.5344 193.044 26.7506C192.162 25.9611 191.724 24.895 191.73 23.5523C191.724 22.4573 192.018 21.4978 192.612 20.6737C193.205 19.8496 194.026 19.2071 195.075 18.746C196.124 18.285 197.32 18.0545 198.663 18.0545C200.034 18.0545 201.224 18.2879 202.233 18.7547C203.247 19.2157 204.034 19.864 204.593 20.6996C205.152 21.5353 205.437 22.5034 205.448 23.6041H201.351ZM207.272 21.7715V18.2965H222.236V21.7715H216.867V36H212.649V21.7715H207.272ZM240.226 27.1483C240.226 29.0961 239.852 30.7472 239.103 32.1014C238.354 33.4557 237.339 34.4844 236.06 35.1874C234.786 35.8905 233.357 36.242 231.772 36.242C230.182 36.242 228.75 35.8876 227.476 35.1788C226.203 34.47 225.191 33.4413 224.442 32.0928C223.699 30.7385 223.327 29.0903 223.327 27.1483C223.327 25.2004 223.699 23.5494 224.442 22.1951C225.191 20.8408 226.203 19.8122 227.476 19.1091C228.75 18.406 230.182 18.0545 231.772 18.0545C233.357 18.0545 234.786 18.406 236.06 19.1091C237.339 19.8122 238.354 20.8408 239.103 22.1951C239.852 23.5494 240.226 25.2004 240.226 27.1483ZM235.852 27.1483C235.852 25.9957 235.688 25.0218 235.36 24.2265C235.037 23.4312 234.57 22.829 233.959 22.4199C233.354 22.0107 232.625 21.8061 231.772 21.8061C230.925 21.8061 230.196 22.0107 229.585 22.4199C228.975 22.829 228.505 23.4312 228.176 24.2265C227.854 25.0218 227.692 25.9957 227.692 27.1483C227.692 28.3008 227.854 29.2748 228.176 30.07C228.505 30.8653 228.975 31.4675 229.585 31.8767C230.196 32.2858 230.925 32.4904 231.772 32.4904C232.625 32.4904 233.354 32.2858 233.959 31.8767C234.57 31.4675 235.037 30.8653 235.36 30.07C235.688 29.2748 235.852 28.3008 235.852 27.1483ZM242.725 36V18.2965H250.038C251.363 18.2965 252.507 18.5357 253.469 19.014C254.438 19.4866 255.184 20.1666 255.708 21.0541C256.233 21.9358 256.495 22.9817 256.495 24.1919C256.495 25.4194 256.227 26.4625 255.691 27.3212C255.155 28.1741 254.394 28.8253 253.409 29.2748C252.424 29.7185 251.257 29.9404 249.908 29.9404H245.283V26.5691H249.113C249.758 26.5691 250.297 26.4855 250.729 26.3184C251.167 26.1455 251.499 25.8862 251.723 25.5404C251.948 25.1889 252.06 24.7394 252.06 24.1919C252.06 23.6445 251.948 23.1921 251.723 22.8348C251.499 22.4717 251.167 22.2009 250.729 22.0222C250.291 21.8378 249.752 21.7456 249.113 21.7456H247.004V36H242.725ZM252.691 27.909L257.1 36H252.432L248.11 27.909H252.691ZM257.176 18.2965H261.956L265.699 25.7047H265.855L269.598 18.2965H274.378L267.903 30.0873V36H263.65V30.0873L257.176 18.2965Z" fill="#D9D9D9"/>
</svg>
