<svg width="456" height="99" viewBox="0 0 456 99" fill="none" xmlns="http://www.w3.org/2000/svg">
<path opacity="0.5" d="M445.5 97H10.1739L2 93.3045V5.69551L10.1739 2H445.5L453.673 5.69551V93.3045L445.5 97Z" fill="#003672"/>
<path d="M181.986 46.5653C181.918 45.8778 181.625 45.3437 181.108 44.9631C180.591 44.5824 179.889 44.392 179.003 44.392C178.401 44.392 177.892 44.4773 177.477 44.6477C177.063 44.8125 176.744 45.0426 176.523 45.3381C176.307 45.6335 176.199 45.9688 176.199 46.3438C176.188 46.6562 176.253 46.929 176.395 47.1619C176.543 47.3949 176.744 47.5966 177 47.767C177.256 47.9318 177.551 48.0767 177.886 48.2017C178.222 48.321 178.58 48.4233 178.96 48.5085L180.528 48.8835C181.29 49.054 181.989 49.2812 182.625 49.5653C183.261 49.8494 183.813 50.1989 184.278 50.6136C184.744 51.0284 185.105 51.517 185.361 52.0795C185.622 52.642 185.756 53.2869 185.761 54.0142C185.756 55.0824 185.483 56.0085 184.943 56.7926C184.409 57.571 183.636 58.1761 182.625 58.608C181.619 59.0341 180.406 59.2472 178.986 59.2472C177.577 59.2472 176.349 59.0312 175.304 58.5994C174.264 58.1676 173.452 57.5284 172.866 56.6818C172.287 55.8295 171.983 54.7756 171.955 53.5199H175.526C175.565 54.1051 175.733 54.5937 176.028 54.9858C176.33 55.3722 176.73 55.6648 177.23 55.8636C177.736 56.0568 178.307 56.1534 178.943 56.1534C179.568 56.1534 180.111 56.0625 180.571 55.8807C181.037 55.6989 181.398 55.446 181.653 55.1222C181.909 54.7983 182.037 54.4261 182.037 54.0057C182.037 53.6136 181.92 53.2841 181.688 53.017C181.46 52.75 181.125 52.5227 180.682 52.3352C180.244 52.1477 179.707 51.9773 179.071 51.8239L177.17 51.3466C175.699 50.9886 174.537 50.429 173.685 49.6676C172.832 48.9062 172.409 47.8807 172.415 46.5909C172.409 45.5341 172.69 44.6108 173.259 43.821C173.832 43.0312 174.619 42.4148 175.619 41.9716C176.619 41.5284 177.756 41.3068 179.028 41.3068C180.324 41.3068 181.455 41.5284 182.42 41.9716C183.392 42.4148 184.148 43.0312 184.688 43.821C185.227 44.6108 185.506 45.5256 185.523 46.5653H181.986ZM187.579 44.5881V41.5455H201.914V44.5881H196.57V59H192.923V44.5881H187.579ZM205.151 59H201.196L207.222 41.5455H211.977L217.994 59H214.04L209.668 45.5341H209.531L205.151 59ZM204.903 52.1392H214.244V55.0199H204.903V52.1392ZM220.095 59V41.5455H226.982C228.3 41.5455 229.425 41.7812 230.357 42.2528C231.294 42.7187 232.007 43.3807 232.496 44.2386C232.99 45.0909 233.237 46.0937 233.237 47.2472C233.237 48.4062 232.987 49.4034 232.487 50.2386C231.987 51.0682 231.263 51.7045 230.314 52.1477C229.371 52.5909 228.229 52.8125 226.888 52.8125H222.277V49.8466H226.291C226.996 49.8466 227.581 49.75 228.047 49.5568C228.513 49.3636 228.859 49.0739 229.087 48.6875C229.32 48.3011 229.436 47.821 229.436 47.2472C229.436 46.6676 229.32 46.179 229.087 45.7812C228.859 45.3835 228.51 45.0824 228.038 44.8778C227.572 44.6676 226.984 44.5625 226.274 44.5625H223.786V59H220.095ZM229.521 51.0568L233.859 59H229.786L225.541 51.0568H229.521ZM235.18 44.5881V41.5455H249.516V44.5881H244.172V59H240.524V44.5881H235.18ZM266.9 46.5653C266.832 45.8778 266.539 45.3437 266.022 44.9631C265.505 44.5824 264.803 44.392 263.917 44.392C263.315 44.392 262.806 44.4773 262.391 44.6477C261.977 44.8125 261.658 45.0426 261.437 45.3381C261.221 45.6335 261.113 45.9688 261.113 46.3438C261.102 46.6562 261.167 46.929 261.309 47.1619C261.457 47.3949 261.658 47.5966 261.914 47.767C262.17 47.9318 262.465 48.0767 262.8 48.2017C263.136 48.321 263.494 48.4233 263.874 48.5085L265.442 48.8835C266.204 49.054 266.903 49.2812 267.539 49.5653C268.175 49.8494 268.727 50.1989 269.192 50.6136C269.658 51.0284 270.019 51.517 270.275 52.0795C270.536 52.642 270.67 53.2869 270.675 54.0142C270.67 55.0824 270.397 56.0085 269.857 56.7926C269.323 57.571 268.55 58.1761 267.539 58.608C266.533 59.0341 265.32 59.2472 263.9 59.2472C262.491 59.2472 261.263 59.0312 260.218 58.5994C259.178 58.1676 258.366 57.5284 257.781 56.6818C257.201 55.8295 256.897 54.7756 256.869 53.5199H260.44C260.479 54.1051 260.647 54.5937 260.942 54.9858C261.244 55.3722 261.644 55.6648 262.144 55.8636C262.65 56.0568 263.221 56.1534 263.857 56.1534C264.482 56.1534 265.025 56.0625 265.485 55.8807C265.951 55.6989 266.312 55.446 266.567 55.1222C266.823 54.7983 266.951 54.4261 266.951 54.0057C266.951 53.6136 266.835 53.2841 266.602 53.017C266.374 52.75 266.039 52.5227 265.596 52.3352C265.158 52.1477 264.621 51.9773 263.985 51.8239L262.085 51.3466C260.613 50.9886 259.451 50.429 258.599 49.6676C257.746 48.9062 257.323 47.8807 257.329 46.5909C257.323 45.5341 257.604 44.6108 258.173 43.821C258.746 43.0312 259.533 42.4148 260.533 41.9716C261.533 41.5284 262.67 41.3068 263.942 41.3068C265.238 41.3068 266.369 41.5284 267.335 41.9716C268.306 42.4148 269.062 43.0312 269.602 43.821C270.141 44.6108 270.42 45.5256 270.437 46.5653H266.9ZM288.558 47.6562H284.825C284.757 47.1733 284.618 46.7443 284.408 46.3693C284.197 45.9886 283.928 45.6648 283.598 45.3977C283.268 45.1307 282.888 44.9261 282.456 44.7841C282.03 44.642 281.567 44.571 281.067 44.571C280.163 44.571 279.376 44.7955 278.706 45.2443C278.036 45.6875 277.516 46.3352 277.146 47.1875C276.777 48.0341 276.592 49.0625 276.592 50.2727C276.592 51.517 276.777 52.5625 277.146 53.4091C277.521 54.2557 278.044 54.8949 278.714 55.3267C279.385 55.7585 280.161 55.9744 281.041 55.9744C281.536 55.9744 281.993 55.9091 282.413 55.7784C282.839 55.6477 283.217 55.4574 283.547 55.2074C283.876 54.9517 284.149 54.642 284.365 54.2784C284.587 53.9148 284.74 53.5 284.825 53.0341L288.558 53.0511C288.462 53.8523 288.22 54.625 287.834 55.3693C287.453 56.108 286.939 56.7699 286.291 57.3551C285.649 57.9347 284.882 58.3949 283.99 58.7358C283.104 59.071 282.101 59.2386 280.982 59.2386C279.425 59.2386 278.033 58.8864 276.805 58.1818C275.584 57.4773 274.618 56.4574 273.908 55.1222C273.203 53.7869 272.851 52.1705 272.851 50.2727C272.851 48.3693 273.209 46.75 273.925 45.4148C274.641 44.0795 275.612 43.0625 276.839 42.3636C278.067 41.6591 279.447 41.3068 280.982 41.3068C281.993 41.3068 282.93 41.4489 283.794 41.733C284.663 42.017 285.433 42.4318 286.104 42.9773C286.774 43.517 287.32 44.179 287.74 44.9631C288.166 45.7472 288.439 46.6449 288.558 47.6562ZM293.885 59H289.93L295.956 41.5455H300.712L306.729 59H302.774L298.402 45.5341H298.266L293.885 59ZM293.638 52.1392H302.979V55.0199H293.638V52.1392ZM323.429 41.5455V59H320.241L312.648 48.0142H312.52V59H308.83V41.5455H312.068L319.602 52.5227H319.756V41.5455H323.429Z" fill="white"/>
<path d="M130.974 61.6797C131.566 61.6797 132.088 61.472 132.736 61.0983L149.388 51.6432C150.6 50.9511 151.108 50.4112 151.108 49.5391C151.108 48.6669 150.6 48.1409 149.388 47.4349L132.736 37.9799C132.088 37.6061 131.566 37.3984 130.974 37.3984C129.818 37.3984 129 38.2706 129 39.6411V59.4371C129 60.8214 129.818 61.6797 130.974 61.6797Z" fill="white"/>
<path d="M453.716 86V92.5172L449.938 96.2265H443" stroke="#0A4F9B" stroke-width="3" stroke-miterlimit="10"/>
<path d="M453.716 12.374V5.85686L449.938 2.14748H443" stroke="#0A4F9B" stroke-width="3" stroke-miterlimit="10"/>
<path d="M12.4157 96.5218H5.77835L2 92.8121V86.0002" stroke="#0A4F9B" stroke-width="3" stroke-miterlimit="10"/>
<path d="M12.4157 2.00009H5.77835L2 5.70982V12.5217" stroke="#0A4F9B" stroke-width="3" stroke-miterlimit="10"/>
</svg>
