<svg width="338" height="159" viewBox="0 0 338 159" fill="none" xmlns="http://www.w3.org/2000/svg">
<path d="M325.683 157.353L12.3179 157.351L2 147.033V12.3182L12.3179 2.00024L325.683 2.0022L336 12.3201V147.035L325.683 157.353Z" fill="#083363"/>
<path d="M31.7383 70.6436C31.7383 74.1252 32.972 77.3175 35.1261 79.704C35.508 80.1379 36.0563 80.1069 36.3794 79.7246C36.7026 79.363 36.634 78.8258 36.2717 78.4126C34.4211 76.367 33.4126 73.6293 33.4126 70.6436C33.4126 67.658 34.4211 64.9202 36.2717 62.8747C36.634 62.4614 36.7026 61.9242 36.3794 61.5523C36.0563 61.1804 35.508 61.1494 35.1261 61.5833C32.972 63.9594 31.7383 67.1621 31.7383 70.6436ZM57.8717 70.6436C57.8717 67.1621 56.638 63.9594 54.4839 61.5833C54.0922 61.1494 53.5439 61.1804 53.2208 61.5523C52.9074 61.9242 52.9662 62.4614 53.3383 62.8747C55.1889 64.9202 56.1974 67.658 56.1974 70.6436C56.1974 73.6293 55.1889 76.367 53.3383 78.4126C52.9662 78.8258 52.9074 79.363 53.2208 79.7246C53.5439 80.1069 54.0922 80.1379 54.4839 79.704C56.638 77.3175 57.8717 74.1252 57.8717 70.6436ZM35.3024 70.6436C35.3024 73.1231 36.1444 75.4269 37.6523 77.1522C38.044 77.6068 38.6119 77.6068 38.9448 77.2038C39.2777 76.8113 39.1896 76.3154 38.8175 75.8815C37.623 74.4661 36.9767 72.6375 36.9767 70.6436C36.9767 68.6394 37.623 66.8211 38.8175 65.4058C39.1896 64.9719 39.2777 64.4657 38.9448 64.0834C38.6119 63.6702 38.044 63.6805 37.6523 64.1247C36.1444 65.8604 35.3024 68.1642 35.3024 70.6436ZM54.2978 70.6436C54.2978 68.1642 53.4558 65.8604 51.9577 64.1247C51.566 63.6805 50.9883 63.6702 50.6554 64.0834C50.3323 64.4657 50.4106 64.9719 50.7827 65.4058C51.9773 66.8211 52.6235 68.6394 52.6235 70.6436C52.6235 72.6375 51.9773 74.4661 50.7827 75.8815C50.4106 76.3154 50.3323 76.8113 50.6554 77.2038C50.9883 77.6068 51.566 77.6068 51.9577 77.1522C53.4558 75.4269 54.2978 73.1231 54.2978 70.6436ZM38.8763 70.6436C38.8763 72.0487 39.3267 73.371 40.11 74.4145C40.4723 74.9 41.0891 74.9104 41.4318 74.4971C41.755 74.1149 41.6375 73.65 41.3143 73.1747C40.815 72.4826 40.5408 71.6044 40.5408 70.6436C40.5408 69.6828 40.815 68.8047 41.3143 68.1125C41.6375 67.627 41.755 67.1621 41.4318 66.7798C41.0891 66.3769 40.4723 66.3872 40.11 66.8625C39.3267 67.9162 38.8763 69.2386 38.8763 70.6436ZM50.7337 70.6436C50.7337 69.2386 50.2833 67.9162 49.4902 66.8625C49.1377 66.3872 48.5209 66.3769 48.1782 66.7798C47.8453 67.1621 47.9628 67.627 48.2957 68.1125C48.795 68.8047 49.0594 69.6828 49.0594 70.6436C49.0594 71.6044 48.795 72.4826 48.2957 73.1747C47.9628 73.65 47.8453 74.1149 48.1782 74.4971C48.5209 74.9104 49.1377 74.9 49.4902 74.4145C50.2833 73.371 50.7337 72.0487 50.7337 70.6436ZM44.8001 73.1644C46.0926 73.1644 47.1892 72.0177 47.1892 70.6333C47.1892 69.2489 46.0926 68.1125 44.8001 68.1125C43.5174 68.1125 42.411 69.2489 42.411 70.6333C42.411 72.0177 43.5174 73.1644 44.8001 73.1644Z" fill="white"/>
<path d="M300.428 22.3496C298.962 20.8751 298.971 18.4847 300.444 17.0196L303.244 14.2381C304.718 12.773 307.109 12.7814 308.574 14.255C310.039 15.7294 310.03 18.1198 308.557 19.5849L305.758 22.3664C304.283 23.8315 301.892 23.8231 300.428 22.3496ZM307.247 15.5741C306.51 14.8322 305.306 14.8275 304.563 15.5657L301.764 18.3472C301.022 19.0844 301.017 20.2885 301.755 21.0304C302.492 21.7723 303.696 21.777 304.438 21.0388L307.238 18.2574C307.98 17.5201 307.984 16.316 307.247 15.5741Z" fill="white"/>
<path d="M291.832 30.8885C290.367 29.414 290.375 27.0236 291.849 25.5585L294.648 22.7771C296.122 21.312 298.513 21.3204 299.978 22.7939C301.443 24.2684 301.435 26.6588 299.961 28.1239L297.162 30.9053C295.687 32.3705 293.297 32.363 291.832 30.8885ZM298.651 24.1131C297.914 23.3712 296.71 23.3665 295.968 24.1046L293.169 26.8861C292.427 27.6233 292.422 28.8274 293.16 29.5693C293.898 30.3113 295.102 30.3159 295.844 29.5778L298.643 26.7963C299.385 26.0591 299.389 24.8559 298.651 24.1131Z" fill="white"/>
<path d="M301.968 19.6973L297.037 24.5959L298.158 25.7242L303.089 20.8256L301.968 19.6973Z" fill="white"/>
<path d="M15.7383 109L321.738 109" stroke="white" stroke-width="1.01426" stroke-linecap="round"/>
<path d="M32.8516 132.3C32.8516 135.5 35.6974 138.711 38.494 138.711C40.9952 138.711 42.2655 136.495 43.6244 132.586C43.7032 132.586 43.7918 132.576 43.8804 132.566C44.0183 132.556 44.1463 132.546 44.2645 132.517V136.603C44.2645 138.445 45.2196 139.439 47.0118 139.439C50.222 139.439 53.4322 136.593 53.4322 133.787C53.4322 131.286 51.2166 130.025 47.2974 128.666C47.2974 128.578 47.2875 128.499 47.2777 128.41C47.2777 128.282 47.258 128.154 47.2285 128.016H51.315C53.1663 128.016 54.151 127.061 54.151 125.269C54.151 122.069 51.3052 118.858 48.5086 118.858C45.9976 118.858 44.7371 121.074 43.3782 124.993C43.2896 124.993 43.2108 124.993 43.132 125.003C42.9942 125.013 42.8563 125.033 42.7381 125.052V120.966C42.7381 119.124 41.783 118.13 39.9908 118.13C36.7806 118.13 33.5704 120.976 33.5704 123.772C33.5704 126.274 35.786 127.544 39.7052 128.903C39.7052 128.991 39.7052 129.09 39.7151 129.178C39.7249 129.297 39.7446 129.425 39.7643 129.543H35.6876C33.8461 129.543 32.8516 130.508 32.8516 132.3ZM41.3201 128.785C41.3201 127.583 42.295 126.598 43.4964 126.598C44.6977 126.598 45.6825 127.583 45.6825 128.785C45.6825 129.986 44.6977 130.961 43.4964 130.961C42.295 130.961 41.3201 129.986 41.3201 128.785ZM42.1965 128.785C42.1965 129.503 42.7677 130.075 43.4964 130.075C44.2152 130.075 44.7864 129.503 44.7864 128.785C44.7864 128.066 44.2152 127.485 43.4964 127.485C42.7677 127.485 42.1965 128.066 42.1965 128.785Z" fill="white"/>
<path d="M249.562 109L249.189 142.83" stroke="white" stroke-width="1.01426" stroke-linecap="round"/>
<path d="M336.263 129V147.127L325.946 157.444H307" stroke="#0A4F9B" stroke-width="2.80709" stroke-miterlimit="10"/>
<path d="M336.263 30.4436V12.3173L325.946 2.00031H307" stroke="#0A4F9B" stroke-width="2.80709" stroke-miterlimit="10"/>
<path d="M30.4433 157.264H12.3179L2 146.946V128" stroke="#0A4F9B" stroke-width="2.80709" stroke-miterlimit="10"/>
<path d="M30.4433 2.00001H12.3179L2 12.3179V31.2639" stroke="#0A4F9B" stroke-width="2.80709" stroke-miterlimit="10"/>
</svg>
