<svg width="338" height="159" viewBox="0 0 338 159" fill="none" xmlns="http://www.w3.org/2000/svg">
<path d="M325.683 157.353L12.3179 157.351L2 147.033V12.3182L12.3179 2.00024L325.683 2.0022L336 12.3201V147.035L325.683 157.353Z" fill="#405064"/>
<path d="M325.683 157.353L12.3179 157.351L2 147.033V12.3182L12.3179 2.00024L325.683 2.0022L336 12.3201V147.035L325.683 157.353Z" fill="#405064"/>
<path d="M300.762 22.2754C299.286 20.7897 299.294 18.381 300.779 16.9047L303.6 14.102C305.085 12.6256 307.494 12.6341 308.97 14.1189C310.447 15.6037 310.438 18.0134 308.954 19.4897L306.133 22.2924C304.648 23.7687 302.238 23.7602 300.762 22.2754ZM307.634 15.4482C306.891 14.7006 305.678 14.6959 304.929 15.4397L302.108 18.2424C301.361 18.9853 301.356 20.1986 302.1 20.9462C302.844 21.6938 304.056 21.6985 304.804 20.9547L307.624 18.1519C308.373 17.4091 308.378 16.1958 307.634 15.4482Z" fill="white"/>
<path d="M292.102 30.8808C290.626 29.395 290.634 26.9864 292.119 25.51L294.94 22.7073C296.425 21.231 298.834 21.2395 300.31 22.7243C301.787 24.2091 301.778 26.6187 300.293 28.095L297.473 30.8978C295.987 32.3741 293.577 32.3665 292.102 30.8808ZM298.974 24.0535C298.231 23.3059 297.017 23.3012 296.27 24.045L293.449 26.8478C292.702 27.5907 292.697 28.804 293.441 29.5515C294.184 30.2991 295.397 30.3038 296.144 29.56L298.965 26.7573C299.713 26.0144 299.716 24.8021 298.974 24.0535Z" fill="white"/>
<path d="M297.546 14.7812L297.518 19.1951L299.12 19.2054L299.149 14.7915L297.546 14.7812Z" fill="white"/>
<path d="M292.909 19.3398L292.854 20.9415L297.265 21.0956L297.321 19.4939L292.909 19.3398Z" fill="white"/>
<path d="M302.075 25.7499L302.047 30.1638L303.65 30.1741L303.678 25.7603L302.075 25.7499Z" fill="white"/>
<path d="M303.929 23.8634L303.873 25.4651L308.284 25.6191L308.34 24.0174L303.929 23.8634Z" fill="white"/>
<path d="M32 70.6436C32 74.1252 33.2337 77.3175 35.3878 79.704C35.7697 80.1379 36.318 80.1069 36.6412 79.7246C36.9643 79.363 36.8957 78.8258 36.5335 78.4126C34.6829 76.367 33.6743 73.6293 33.6743 70.6436C33.6743 67.658 34.6829 64.9202 36.5335 62.8747C36.8957 62.4614 36.9643 61.9242 36.6412 61.5523C36.318 61.1804 35.7697 61.1494 35.3878 61.5833C33.2337 63.9594 32 67.1621 32 70.6436ZM58.1334 70.6436C58.1334 67.1621 56.8997 63.9594 54.7456 61.5833C54.3539 61.1494 53.8056 61.1804 53.4825 61.5523C53.1692 61.9242 53.2279 62.4614 53.6 62.8747C55.4506 64.9202 56.4591 67.658 56.4591 70.6436C56.4591 73.6293 55.4506 76.367 53.6 78.4126C53.2279 78.8258 53.1692 79.363 53.4825 79.7246C53.8056 80.1069 54.3539 80.1379 54.7456 79.704C56.8997 77.3175 58.1334 74.1252 58.1334 70.6436ZM35.5641 70.6436C35.5641 73.1231 36.4062 75.4269 37.914 77.1522C38.3057 77.6068 38.8736 77.6068 39.2065 77.2038C39.5394 76.8113 39.4513 76.3154 39.0792 75.8815C37.8847 74.4661 37.2384 72.6375 37.2384 70.6436C37.2384 68.6394 37.8847 66.8211 39.0792 65.4058C39.4513 64.9719 39.5394 64.4657 39.2065 64.0834C38.8736 63.6702 38.3057 63.6805 37.914 64.1247C36.4062 65.8604 35.5641 68.1642 35.5641 70.6436ZM54.5596 70.6436C54.5596 68.1642 53.7175 65.8604 52.2194 64.1247C51.8277 63.6805 51.25 63.6702 50.9171 64.0834C50.594 64.4657 50.6723 64.9719 51.0444 65.4058C52.239 66.8211 52.8852 68.6394 52.8852 70.6436C52.8852 72.6375 52.239 74.4661 51.0444 75.8815C50.6723 76.3154 50.594 76.8113 50.9171 77.2038C51.25 77.6068 51.8277 77.6068 52.2194 77.1522C53.7175 75.4269 54.5596 73.1231 54.5596 70.6436ZM39.138 70.6436C39.138 72.0487 39.5884 73.371 40.3717 74.4145C40.734 74.9 41.3509 74.9104 41.6936 74.4971C42.0167 74.1149 41.8992 73.65 41.5761 73.1747C41.0767 72.4826 40.8025 71.6044 40.8025 70.6436C40.8025 69.6828 41.0767 68.8047 41.5761 68.1125C41.8992 67.627 42.0167 67.1621 41.6936 66.7798C41.3509 66.3769 40.734 66.3872 40.3717 66.8625C39.5884 67.9162 39.138 69.2386 39.138 70.6436ZM50.9955 70.6436C50.9955 69.2386 50.5451 67.9162 49.7519 66.8625C49.3994 66.3872 48.7826 66.3769 48.4399 66.7798C48.107 67.1621 48.2245 67.627 48.5574 68.1125C49.0567 68.8047 49.3211 69.6828 49.3211 70.6436C49.3211 71.6044 49.0567 72.4826 48.5574 73.1747C48.2245 73.65 48.107 74.1149 48.4399 74.4971C48.7826 74.9104 49.3994 74.9 49.7519 74.4145C50.5451 73.371 50.9955 72.0487 50.9955 70.6436ZM45.0618 73.1644C46.3543 73.1644 47.4509 72.0177 47.4509 70.6333C47.4509 69.2489 46.3543 68.1125 45.0618 68.1125C43.7791 68.1125 42.6727 69.2489 42.6727 70.6333C42.6727 72.0177 43.7791 73.1644 45.0618 73.1644Z" fill="white"/>
<path d="M300.689 22.3496C299.224 20.8751 299.233 18.4847 300.706 17.0196L303.505 14.2381C304.98 12.773 307.37 12.7814 308.835 14.255C310.3 15.7294 310.292 18.1198 308.819 19.5849L306.019 22.3664C304.545 23.8315 302.153 23.8231 300.689 22.3496ZM307.509 15.5741C306.771 14.8322 305.567 14.8275 304.825 15.5657L302.025 18.3472C301.283 19.0844 301.279 20.2885 302.017 21.0304C302.754 21.7723 303.958 21.777 304.7 21.0388L307.499 18.2574C308.242 17.5201 308.246 16.316 307.509 15.5741Z" fill="white"/>
<path d="M292.094 30.8885C290.628 29.414 290.637 27.0236 292.11 25.5585L294.91 22.7771C296.384 21.312 298.775 21.3204 300.24 22.7939C301.705 24.2684 301.696 26.6588 300.223 28.1239L297.424 30.9053C295.949 32.3705 293.559 32.363 292.094 30.8885ZM298.913 24.1131C298.176 23.3712 296.972 23.3665 296.23 24.1046L293.431 26.8861C292.689 27.6233 292.684 28.8274 293.422 29.5693C294.159 30.3113 295.363 30.3159 296.105 29.5778L298.905 26.7963C299.646 26.0591 299.65 24.8559 298.913 24.1131Z" fill="white"/>
<path d="M302.229 19.6973L297.299 24.5959L298.42 25.7242L303.35 20.8256L302.229 19.6973Z" fill="white"/>
<path d="M16 109L322 109" stroke="white" stroke-width="1.01426" stroke-linecap="round"/>
<path d="M33.1133 132.3C33.1133 135.5 35.9591 138.711 38.7557 138.711C41.2569 138.711 42.5272 136.495 43.8861 132.586C43.9649 132.586 44.0535 132.576 44.1421 132.566C44.28 132.556 44.408 132.546 44.5262 132.517V136.603C44.5262 138.445 45.4814 139.439 47.2735 139.439C50.4837 139.439 53.6939 136.593 53.6939 133.787C53.6939 131.286 51.4783 130.025 47.5591 128.666C47.5591 128.578 47.5493 128.499 47.5394 128.41C47.5394 128.282 47.5197 128.154 47.4902 128.016H51.5768C53.428 128.016 54.4128 127.061 54.4128 125.269C54.4128 122.069 51.5669 118.858 48.7703 118.858C46.2593 118.858 44.9988 121.074 43.6399 124.993C43.5513 124.993 43.4725 124.993 43.3937 125.003C43.2559 125.013 43.118 125.033 42.9999 125.052V120.966C42.9999 119.124 42.0447 118.13 40.2525 118.13C37.0423 118.13 33.8321 120.976 33.8321 123.772C33.8321 126.274 36.0477 127.544 39.9669 128.903C39.9669 128.991 39.9669 129.09 39.9768 129.178C39.9866 129.297 40.0063 129.425 40.026 129.543H35.9493C34.1078 129.543 33.1133 130.508 33.1133 132.3ZM41.5819 128.785C41.5819 127.583 42.5567 126.598 43.7581 126.598C44.9595 126.598 45.9442 127.583 45.9442 128.785C45.9442 129.986 44.9595 130.961 43.7581 130.961C42.5567 130.961 41.5819 129.986 41.5819 128.785ZM42.4583 128.785C42.4583 129.503 43.0294 130.075 43.7581 130.075C44.4769 130.075 45.0481 129.503 45.0481 128.785C45.0481 128.066 44.4769 127.485 43.7581 127.485C43.0294 127.485 42.4583 128.066 42.4583 128.785Z" fill="white"/>
<path d="M249.824 109L249.45 142.83" stroke="white" stroke-width="1.01426" stroke-linecap="round"/>
<path d="M336.263 129V147.127L325.946 157.444H307" stroke="#78889B" stroke-width="2.80709" stroke-miterlimit="10"/>
<path d="M336.263 30.4436V12.3173L325.946 2.00031H307" stroke="#78889B" stroke-width="2.80709" stroke-miterlimit="10"/>
<path d="M30.4433 157.264H12.3179L2 146.946V128" stroke="#78889B" stroke-width="2.80709" stroke-miterlimit="10"/>
<path d="M30.4433 2.00001H12.3179L2 12.3179V31.2639" stroke="#78889B" stroke-width="2.80709" stroke-miterlimit="10"/>
</svg>
