<svg width="338" height="159" viewBox="0 0 338 159" fill="none" xmlns="http://www.w3.org/2000/svg">
<path opacity="0.3" d="M326.158 157.353L12.7925 157.351L2.47461 147.033V12.3179L12.7925 2L326.158 2.00195L336.475 12.3199V147.035L326.158 157.353Z" fill="#00FFF0"/>
<path d="M37.5879 134.284C37.5879 137.485 40.4337 140.695 43.2303 140.695C45.7315 140.695 47.0018 138.479 48.3607 134.57C48.4395 134.57 48.5281 134.56 48.6167 134.55C48.7546 134.54 48.8826 134.531 49.0008 134.501V138.588C49.0008 140.429 49.956 141.424 51.7482 141.424C54.9583 141.424 58.1685 138.578 58.1685 135.771C58.1685 133.27 55.9529 132.01 52.0337 130.651C52.0337 130.562 52.0239 130.483 52.014 130.395C52.014 130.267 51.9943 130.139 51.9648 130.001H56.0514C57.9026 130.001 58.8874 129.046 58.8874 127.253C58.8874 124.053 56.0415 120.843 53.2449 120.843C50.7339 120.843 49.4735 123.058 48.1145 126.978C48.0259 126.978 47.9471 126.978 47.8684 126.988C47.7305 126.997 47.5926 127.017 47.4745 127.037V122.95C47.4745 121.109 46.5193 120.114 44.7271 120.114C41.5169 120.114 38.3067 122.96 38.3067 125.757C38.3067 128.258 40.5224 129.528 44.4415 130.887C44.4415 130.976 44.4415 131.074 44.4514 131.163C44.4612 131.281 44.4809 131.409 44.5006 131.527H40.4239C38.5825 131.527 37.5879 132.492 37.5879 134.284ZM46.0565 130.769C46.0565 129.568 47.0313 128.583 48.2327 128.583C49.4341 128.583 50.4188 129.568 50.4188 130.769C50.4188 131.97 49.4341 132.945 48.2327 132.945C47.0313 132.945 46.0565 131.97 46.0565 130.769ZM46.9329 130.769C46.9329 131.488 47.504 132.059 48.2327 132.059C48.9516 132.059 49.5227 131.488 49.5227 130.769C49.5227 130.05 48.9516 129.469 48.2327 129.469C47.504 129.469 46.9329 130.05 46.9329 130.769Z" fill="white"/>
<path d="M32.4746 72.6436C32.4746 76.1252 33.7083 79.3175 35.8625 81.704C36.2443 82.1379 36.7926 82.1069 37.1158 81.7246C37.4389 81.363 37.3703 80.8258 37.0081 80.4126C35.1575 78.367 34.149 75.6293 34.149 72.6436C34.149 69.658 35.1575 66.9202 37.0081 64.8747C37.3703 64.4614 37.4389 63.9242 37.1158 63.5523C36.7926 63.1804 36.2443 63.1494 35.8625 63.5833C33.7083 65.9594 32.4746 69.1621 32.4746 72.6436ZM58.6081 72.6436C58.6081 69.1621 57.3743 65.9594 55.2202 63.5833C54.8285 63.1494 54.2802 63.1804 53.9571 63.5523C53.6438 63.9242 53.7025 64.4614 54.0746 64.8747C55.9252 66.9202 56.9337 69.658 56.9337 72.6436C56.9337 75.6293 55.9252 78.367 54.0746 80.4126C53.7025 80.8258 53.6438 81.363 53.9571 81.7246C54.2802 82.1069 54.8285 82.1379 55.2202 81.704C57.3743 79.3175 58.6081 76.1252 58.6081 72.6436ZM36.0387 72.6436C36.0387 75.1231 36.8808 77.4269 38.3887 79.1522C38.7803 79.6068 39.3482 79.6068 39.6811 79.2038C40.014 78.8113 39.9259 78.3154 39.5538 77.8815C38.3593 76.4661 37.713 74.6375 37.713 72.6436C37.713 70.6394 38.3593 68.8211 39.5538 67.4058C39.9259 66.9719 40.014 66.4657 39.6811 66.0834C39.3482 65.6702 38.7803 65.6805 38.3887 66.1247C36.8808 67.8604 36.0387 70.1642 36.0387 72.6436ZM55.0342 72.6436C55.0342 70.1642 54.1921 67.8604 52.694 66.1247C52.3023 65.6805 51.7246 65.6702 51.3917 66.0834C51.0686 66.4657 51.1469 66.9719 51.519 67.4058C52.7136 68.8211 53.3598 70.6394 53.3598 72.6436C53.3598 74.6375 52.7136 76.4661 51.519 77.8815C51.1469 78.3154 51.0686 78.8113 51.3917 79.2038C51.7246 79.6068 52.3023 79.6068 52.694 79.1522C54.1921 77.4269 55.0342 75.1231 55.0342 72.6436ZM39.6126 72.6436C39.6126 74.0487 40.063 75.371 40.8463 76.4145C41.2086 76.9 41.8255 76.9104 42.1682 76.4971C42.4913 76.1149 42.3738 75.65 42.0507 75.1747C41.5513 74.4826 41.2771 73.6044 41.2771 72.6436C41.2771 71.6828 41.5513 70.8047 42.0507 70.1125C42.3738 69.627 42.4913 69.1621 42.1682 68.7798C41.8255 68.3769 41.2086 68.3872 40.8463 68.8625C40.063 69.9162 39.6126 71.2386 39.6126 72.6436ZM51.4701 72.6436C51.4701 71.2386 51.0197 69.9162 50.2266 68.8625C49.8741 68.3872 49.2572 68.3769 48.9145 68.7798C48.5816 69.1621 48.6991 69.627 49.032 70.1125C49.5314 70.8047 49.7957 71.6828 49.7957 72.6436C49.7957 73.6044 49.5314 74.4826 49.032 75.1747C48.6991 75.65 48.5816 76.1149 48.9145 76.4971C49.2572 76.9104 49.8741 76.9 50.2266 76.4145C51.0197 75.371 51.4701 74.0487 51.4701 72.6436ZM45.5364 75.1644C46.8289 75.1644 47.9256 74.0177 47.9256 72.6333C47.9256 71.2489 46.8289 70.1125 45.5364 70.1125C44.2538 70.1125 43.1473 71.2489 43.1473 72.6333C43.1473 74.0177 44.2538 75.1644 45.5364 75.1644Z" fill="white"/>
<path d="M301.164 24.3496C299.699 22.8751 299.707 20.4847 301.181 19.0196L303.98 16.2381C305.454 14.773 307.845 14.7814 309.31 16.255C310.775 17.7294 310.767 20.1198 309.293 21.5849L306.494 24.3664C305.019 25.8315 302.628 25.8231 301.164 24.3496ZM307.983 17.5741C307.246 16.8322 306.042 16.8275 305.299 17.5657L302.5 20.3472C301.758 21.0844 301.753 22.2885 302.491 23.0304C303.229 23.7723 304.433 23.777 305.175 23.0388L307.974 20.2574C308.717 19.5201 308.721 18.316 307.983 17.5741Z" fill="white"/>
<path d="M292.568 32.8885C291.103 31.414 291.112 29.0236 292.585 27.5585L295.384 24.7771C296.859 23.312 299.249 23.3204 300.714 24.7939C302.179 26.2684 302.171 28.6588 300.697 30.1239L297.898 32.9053C296.424 34.3705 294.033 34.363 292.568 32.8885ZM299.388 26.1131C298.65 25.3712 297.446 25.3665 296.704 26.1046L293.905 28.8861C293.163 29.6233 293.159 30.8274 293.897 31.5693C294.634 32.3113 295.838 32.3159 296.58 31.5778L299.379 28.7963C300.121 28.0591 300.125 26.8559 299.388 26.1131Z" fill="white"/>
<path d="M302.704 21.6973L297.773 26.5959L298.894 27.7242L303.825 22.8256L302.704 21.6973Z" fill="white"/>
<path d="M16.4746 111L322.475 111" stroke="white" stroke-width="1.01426" stroke-linecap="round"/>
<path d="M250.299 111L249.925 144.83" stroke="white" stroke-width="1.01426" stroke-linecap="round"/>
<path d="M336.263 129V147.127L325.946 157.444H307" stroke="#00FFF0" stroke-width="2.80709" stroke-miterlimit="10"/>
<path d="M336.263 30.4436V12.3173L325.946 2.00031H307" stroke="#00FFF0" stroke-width="2.80709" stroke-miterlimit="10"/>
<path d="M30.4433 157.264H12.3179L2 146.946V128" stroke="#00FFF0" stroke-width="2.80709" stroke-miterlimit="10"/>
<path d="M30.4433 2.00001H12.3179L2 12.3179V31.2639" stroke="#00FFF0" stroke-width="2.80709" stroke-miterlimit="10"/>
</svg>
