<svg width="112" height="296" viewBox="0 0 112 296" fill="none" xmlns="http://www.w3.org/2000/svg">
<path d="M85.5485 190.5V189.811L86.0717 189.362L110.25 168.612V117.481L86.0746 96.7315L85.5516 96.2826V95.5933V31.9328L55.1188 1.5H-1.4931V294.5H55.1158L85.5485 264.067V190.5Z" fill="#071F3D" stroke="#0A4F9B" stroke-width="3"/>
<path d="M97.1124 142.831L99.3982 140.545C99.4877 140.456 99.6406 140.519 99.6406 140.646V145.279C99.6406 145.407 99.4858 145.469 99.3969 145.378L97.111 143.031C97.0568 142.975 97.0574 142.886 97.1124 142.831Z" fill="#0079FF"/>
<path d="M104.407 154.859H101.755C101.718 154.859 101.682 154.844 101.655 154.818L95.774 149.007C95.747 148.98 95.7318 148.944 95.7318 148.906V146.894C95.7318 146.856 95.7168 146.82 95.6902 146.793L91.7847 142.888C91.7292 142.833 91.7292 142.743 91.7847 142.687L95.6902 138.782C95.7168 138.755 95.7318 138.719 95.7318 138.681V137.166C95.7318 137.128 95.7468 137.092 95.7734 137.065L101.797 131.042C101.824 131.015 101.86 131 101.897 131H104.407C104.534 131 104.597 131.153 104.508 131.242L101.738 134.012C101.712 134.038 101.697 134.075 101.697 134.112V135.983C101.697 136.021 101.682 136.057 101.655 136.083L94.9091 142.829C94.8536 142.885 94.8536 142.975 94.9091 143.03L101.797 149.918C101.824 149.945 101.839 149.981 101.839 150.018V151.889C101.839 151.927 101.854 151.963 101.88 151.989L104.508 154.617C104.597 154.706 104.534 154.859 104.407 154.859Z" fill="#0079FF"/>
<path d="M93.6738 138.74L89.9276 142.486C89.7612 142.652 89.7612 142.922 89.9276 143.088L93.6738 146.835" stroke="#0079FF" stroke-width="0.994132" stroke-linecap="round"/>
<rect width="2.7" height="97" transform="matrix(-1 0 0 1 86.75 95)" fill="#0A4F9B"/>
<path d="M14.7392 178.5H12.6738V172.12H14.8046C15.4297 172.12 15.9666 172.248 16.4152 172.503C16.8638 172.757 17.2075 173.121 17.4463 173.597C17.6872 174.07 17.8077 174.638 17.8077 175.301C17.8077 175.965 17.6862 176.536 17.4432 177.014C17.2023 177.492 16.8534 177.859 16.3965 178.117C15.9396 178.372 15.3871 178.5 14.7392 178.5ZM13.6364 177.659H14.6862C15.1722 177.659 15.5761 177.568 15.898 177.385C16.22 177.2 16.4609 176.933 16.6208 176.584C16.7807 176.233 16.8607 175.805 16.8607 175.301C16.8607 174.8 16.7807 174.375 16.6208 174.026C16.4629 173.678 16.2272 173.413 15.9136 173.232C15.6 173.051 15.2106 172.961 14.7454 172.961H13.6364V177.659ZM19.2267 178.5H18.2049L20.5008 172.12H21.613L23.9089 178.5H22.8871L21.0834 173.279H21.0335L19.2267 178.5ZM19.398 176.002H22.7127V176.812H19.398V176.002ZM28.2586 173.796C28.2254 173.501 28.0883 173.273 27.8474 173.111C27.6065 172.947 27.3033 172.865 26.9377 172.865C26.6761 172.865 26.4497 172.906 26.2586 172.989C26.0675 173.07 25.919 173.182 25.8131 173.326C25.7093 173.467 25.6574 173.628 25.6574 173.808C25.6574 173.96 25.6927 174.091 25.7633 174.201C25.836 174.311 25.9305 174.403 26.0468 174.478C26.1651 174.551 26.2918 174.612 26.4268 174.662C26.5618 174.71 26.6916 174.749 26.8162 174.78L27.4393 174.942C27.6428 174.992 27.8515 175.06 28.0655 175.145C28.2794 175.23 28.4777 175.342 28.6605 175.481C28.8432 175.62 28.9907 175.793 29.1028 175.998C29.2171 176.204 29.2742 176.45 29.2742 176.737C29.2742 177.098 29.1807 177.419 28.9938 177.699C28.809 177.98 28.54 178.201 28.1869 178.363C27.836 178.525 27.4113 178.606 26.9128 178.606C26.4351 178.606 26.0218 178.53 25.6729 178.379C25.324 178.227 25.0509 178.012 24.8536 177.734C24.6563 177.453 24.5473 177.121 24.5265 176.737H25.4923C25.5109 176.967 25.5857 177.159 25.7166 177.313C25.8495 177.465 26.0187 177.578 26.2243 177.653C26.432 177.725 26.6594 177.762 26.9066 177.762C27.1786 177.762 27.4206 177.719 27.6324 177.634C27.8463 177.547 28.0146 177.426 28.1371 177.273C28.2596 177.117 28.3209 176.935 28.3209 176.727C28.3209 176.538 28.2669 176.384 28.1589 176.263C28.053 176.143 27.9087 176.043 27.7259 175.964C27.5452 175.885 27.3406 175.816 27.1122 175.755L26.3583 175.55C25.8474 175.411 25.4424 175.206 25.1433 174.936C24.8464 174.666 24.6979 174.309 24.6979 173.864C24.6979 173.497 24.7976 173.176 24.9969 172.902C25.1963 172.628 25.4663 172.415 25.8069 172.263C26.1475 172.11 26.5317 172.033 26.9595 172.033C27.3915 172.033 27.7726 172.109 28.1028 172.26C28.4351 172.412 28.6968 172.62 28.8879 172.886C29.079 173.15 29.1786 173.453 29.1869 173.796H28.2586ZM30.4245 178.5V172.12H31.3871V174.893H34.5678V172.12H35.5335V178.5H34.5678V175.718H31.3871V178.5H30.4245ZM36.9354 178.5V172.12H39.2718C39.7246 172.12 40.0994 172.195 40.3964 172.344C40.6934 172.492 40.9156 172.692 41.0631 172.945C41.2105 173.197 41.2843 173.48 41.2843 173.796C41.2843 174.062 41.2355 174.286 41.1378 174.469C41.0402 174.65 40.9094 174.795 40.7453 174.905C40.5833 175.013 40.4047 175.092 40.2095 175.142V175.204C40.4213 175.214 40.628 175.283 40.8294 175.41C41.033 175.534 41.2012 175.712 41.3341 175.942C41.467 176.173 41.5335 176.453 41.5335 176.783C41.5335 177.11 41.4566 177.402 41.303 177.662C41.1513 177.92 40.9167 178.124 40.5989 178.276C40.2811 178.425 39.8751 178.5 39.3808 178.5H36.9354ZM37.898 177.674H39.2874C39.7484 177.674 40.0787 177.585 40.278 177.407C40.4774 177.228 40.5771 177.005 40.5771 176.737C40.5771 176.535 40.5262 176.35 40.4245 176.182C40.3227 176.014 40.1773 175.88 39.9883 175.78C39.8014 175.681 39.5792 175.631 39.3217 175.631H37.898V177.674ZM37.898 174.88H39.1877C39.4037 174.88 39.5979 174.839 39.7702 174.755C39.9447 174.672 40.0828 174.556 40.1846 174.407C40.2884 174.255 40.3403 174.076 40.3403 173.871C40.3403 173.607 40.2479 173.386 40.0631 173.207C39.8782 173.029 39.5948 172.939 39.2126 172.939H37.898V174.88ZM48.2173 175.31C48.2173 175.991 48.0927 176.577 47.8434 177.067C47.5942 177.555 47.2526 177.931 46.8185 178.195C46.3865 178.456 45.8954 178.587 45.345 178.587C44.7926 178.587 44.2993 178.456 43.8653 178.195C43.4333 177.931 43.0927 177.554 42.8434 177.064C42.5942 176.574 42.4696 175.989 42.4696 175.31C42.4696 174.629 42.5942 174.044 42.8434 173.556C43.0927 173.066 43.4333 172.69 43.8653 172.428C44.2993 172.165 44.7926 172.033 45.345 172.033C45.8954 172.033 46.3865 172.165 46.8185 172.428C47.2526 172.69 47.5942 173.066 47.8434 173.556C48.0927 174.044 48.2173 174.629 48.2173 175.31ZM47.264 175.31C47.264 174.791 47.1799 174.354 47.0117 173.998C46.8455 173.641 46.6171 173.371 46.3263 173.188C46.0376 173.004 45.7105 172.911 45.345 172.911C44.9774 172.911 44.6493 173.004 44.3606 173.188C44.0719 173.371 43.8434 173.641 43.6752 173.998C43.5091 174.354 43.426 174.791 43.426 175.31C43.426 175.829 43.5091 176.267 43.6752 176.625C43.8434 176.98 44.0719 177.25 44.3606 177.435C44.6493 177.617 44.9774 177.709 45.345 177.709C45.7105 177.709 46.0376 177.617 46.3263 177.435C46.6171 177.25 46.8455 176.98 47.0117 176.625C47.1799 176.267 47.264 175.829 47.264 175.31ZM49.6394 178.5H48.6176L50.9135 172.12H52.0257L54.3216 178.5H53.2998L51.4961 173.279H51.4462L49.6394 178.5ZM49.8107 176.002H53.1253V176.812H49.8107V176.002ZM55.2429 178.5V172.12H57.5171C58.0114 172.12 58.4215 172.205 58.7476 172.375C59.0757 172.546 59.3208 172.781 59.4828 173.083C59.6448 173.382 59.7258 173.727 59.7258 174.12C59.7258 174.51 59.6438 174.854 59.4797 175.151C59.3177 175.446 59.0726 175.676 58.7445 175.84C58.4184 176.004 58.0083 176.086 57.514 176.086H55.7912V175.257H57.4267C57.7383 175.257 57.9916 175.212 58.1869 175.123C58.3842 175.034 58.5285 174.904 58.6199 174.734C58.7113 174.563 58.757 174.359 58.757 174.12C58.757 173.879 58.7102 173.67 58.6168 173.494C58.5254 173.317 58.381 173.182 58.1837 173.089C57.9885 172.993 57.732 172.945 57.4143 172.945H56.2056V178.5H55.2429ZM58.3925 175.622L59.9688 178.5H58.8722L57.327 175.622H58.3925ZM62.9625 178.5H60.8971V172.12H63.028C63.6531 172.12 64.19 172.248 64.6386 172.503C65.0871 172.757 65.4309 173.121 65.6697 173.597C65.9106 174.07 66.0311 174.638 66.0311 175.301C66.0311 175.965 65.9096 176.536 65.6666 177.014C65.4257 177.492 65.0768 177.859 64.6199 178.117C64.163 178.372 63.6105 178.5 62.9625 178.5ZM61.8597 177.659H62.9096C63.3956 177.659 63.7995 177.568 64.1214 177.385C64.4433 177.2 64.6842 176.933 64.8442 176.584C65.0041 176.233 65.084 175.805 65.084 175.301C65.084 174.8 65.0041 174.375 64.8442 174.026C64.6863 173.678 64.4506 173.413 64.137 173.232C63.8234 173.051 63.434 172.961 62.9688 172.961H61.8597V177.659Z" fill="white"/>
<rect x="20.002" y="114" width="17.5389" height="22.7356" rx="2.4616" fill="white"/>
<rect width="17.5389" height="22.7356" rx="2.4616" transform="matrix(-1 0 0 1 58.0039 136.736)" fill="white"/>
<rect x="40.459" y="114" width="17.5389" height="18.4727" rx="2.4616" fill="white"/>
<rect width="17.5389" height="18.4727" rx="2.4616" transform="matrix(-1 0 0 1 37.5391 140.999)" fill="white"/>
</svg>
