<svg width="325" height="96" viewBox="0 0 325 96" fill="none" xmlns="http://www.w3.org/2000/svg">
<path d="M323.254 74.6439L300.061 93.9216H25.9409L2.74626 74.6439V21.024L25.9409 1.74626H300.061L323.254 21.024V74.6439Z" fill="#0A4F9B" fill-opacity="0.1" stroke="#0A4F9B" stroke-width="1.49251"/>
<path d="M46.0067 1.89268H24.8801L2 20.6261V34.8993" stroke="#0A4F9B" stroke-width="2.98502" stroke-miterlimit="10"/>
<path d="M46.0067 93.7764H24.8801L2 75.0429V60.7697" stroke="#0A4F9B" stroke-width="2.98502" stroke-miterlimit="10"/>
<path d="M278.921 1.89288H300.048L322.928 20.6263V34.8995" stroke="#0A4F9B" stroke-width="2.98502" stroke-miterlimit="10"/>
<path d="M278.921 93.7763H300.048L322.928 75.0428V60.7696" stroke="#0A4F9B" stroke-width="2.98502" stroke-miterlimit="10"/>
<path d="M79.8553 57.041V39.6736H90.7438V41.9293H82.4757V47.221H90.1757V49.4682H82.4757V54.7853H90.8456V57.041H79.8553ZM96.0673 39.6736L100.223 46.4662H100.358L104.514 39.6736H107.549L102.139 48.3573L107.583 57.041H104.53L100.358 50.3417H100.223L96.0503 57.041H92.9974L98.535 48.3573L93.0314 39.6736H96.0673ZM110.149 57.041V39.6736H116.339C117.69 39.6736 118.81 39.9195 119.697 40.4114C120.585 40.9032 121.249 41.576 121.69 42.4297C122.131 43.2777 122.352 44.2331 122.352 45.296C122.352 46.3645 122.128 47.3256 121.682 48.1792C121.241 49.0273 120.574 49.7 119.68 50.1975C118.793 50.6894 117.676 50.9353 116.331 50.9353H112.074V48.7135H116.093C116.947 48.7135 117.639 48.5665 118.171 48.2725C118.702 47.9729 119.092 47.5658 119.341 47.0514C119.59 46.5369 119.714 45.9518 119.714 45.296C119.714 44.6402 119.59 44.0579 119.341 43.5491C119.092 43.0402 118.699 42.6417 118.162 42.3534C117.631 42.065 116.93 41.9209 116.059 41.9209H112.769V57.041H110.149ZM140.51 48.3573C140.51 50.2116 140.171 51.8059 139.492 53.1401C138.814 54.4687 137.884 55.492 136.702 56.21C135.526 56.9223 134.189 57.2785 132.691 57.2785C131.187 57.2785 129.845 56.9223 128.663 56.21C127.487 55.492 126.56 54.4659 125.881 53.1317C125.203 51.7974 124.864 50.206 124.864 48.3573C124.864 46.503 125.203 44.9115 125.881 43.583C126.56 42.2488 127.487 41.2255 128.663 40.5132C129.845 39.7952 131.187 39.4362 132.691 39.4362C134.189 39.4362 135.526 39.7952 136.702 40.5132C137.884 41.2255 138.814 42.2488 139.492 43.583C140.171 44.9115 140.51 46.503 140.51 48.3573ZM137.915 48.3573C137.915 46.944 137.686 45.7539 137.228 44.7872C136.776 43.8148 136.154 43.0798 135.362 42.5823C134.576 42.0792 133.686 41.8276 132.691 41.8276C131.69 41.8276 130.797 42.0792 130.011 42.5823C129.225 43.0798 128.604 43.8148 128.146 44.7872C127.693 45.7539 127.467 46.944 127.467 48.3573C127.467 49.7707 127.693 50.9636 128.146 51.936C128.604 52.9027 129.225 53.6376 130.011 54.1408C130.797 54.6383 131.69 54.8871 132.691 54.8871C133.686 54.8871 134.576 54.6383 135.362 54.1408C136.154 53.6376 136.776 52.9027 137.228 51.936C137.686 50.9636 137.915 49.7707 137.915 48.3573ZM143.777 57.041V39.6736H149.967C151.313 39.6736 152.429 39.9054 153.317 40.369C154.21 40.8326 154.877 41.4742 155.318 42.294C155.759 43.1081 155.98 44.0494 155.98 45.1179C155.98 46.1807 155.756 47.1164 155.31 47.9248C154.869 48.7276 154.202 49.3523 153.308 49.7989C152.421 50.2456 151.304 50.4689 149.959 50.4689H145.269V48.2132H149.721C150.569 48.2132 151.259 48.0916 151.79 47.8485C152.328 47.6054 152.72 47.2521 152.969 46.7885C153.218 46.3249 153.342 45.768 153.342 45.1179C153.342 44.4621 153.215 43.8939 152.961 43.4134C152.712 42.9328 152.319 42.5654 151.782 42.311C151.251 42.0509 150.552 41.9209 149.687 41.9209H146.397V57.041H143.777ZM152.35 49.2053L156.641 57.041H153.656L149.45 49.2053H152.35ZM158.312 41.9293V39.6736H171.753V41.9293H166.334V57.041H163.722V41.9293H158.312ZM181.577 48.3573C181.577 46.2316 181.857 44.2755 182.417 42.489C182.976 40.7025 183.793 39.0546 184.867 37.5451H187.191C186.773 38.1048 186.383 38.7917 186.021 39.6058C185.659 40.4199 185.342 41.3131 185.071 42.2855C184.8 43.2523 184.588 44.2557 184.435 45.296C184.282 46.3306 184.206 47.351 184.206 48.3573C184.206 49.7028 184.339 51.0653 184.605 52.4448C184.87 53.8242 185.229 55.1047 185.681 56.2863C186.134 57.4679 186.637 58.4318 187.191 59.178H184.867C183.793 57.6685 182.976 56.0206 182.417 54.2341C181.857 52.4476 181.577 50.4887 181.577 48.3573ZM191.535 57.2021C191.071 57.2021 190.673 57.0382 190.339 56.7103C190.006 56.3767 189.839 55.9753 189.839 55.5061C189.839 55.0425 190.006 54.6468 190.339 54.3189C190.673 53.9853 191.071 53.8185 191.535 53.8185C191.999 53.8185 192.397 53.9853 192.731 54.3189C193.064 54.6468 193.231 55.0425 193.231 55.5061C193.231 55.817 193.152 56.1025 192.994 56.3626C192.841 56.617 192.637 56.8205 192.383 56.9732C192.129 57.1258 191.846 57.2021 191.535 57.2021ZM195.158 41.9293V39.6736H208.599V41.9293H203.18V57.041H200.568V41.9293H195.158ZM213.393 39.6736L217.548 46.4662H217.684L221.839 39.6736H224.875L219.464 48.3573L224.909 57.041H221.856L217.684 50.3417H217.548L213.376 57.041H210.323L215.86 48.3573L210.357 39.6736H213.393ZM226.617 41.9293V39.6736H240.058V41.9293H234.64V57.041H232.028V41.9293H226.617ZM247.701 48.3573C247.701 50.4887 247.421 52.4476 246.862 54.2341C246.302 56.0206 245.485 57.6685 244.411 59.178H242.087C242.506 58.6183 242.896 57.9314 243.258 57.1173C243.619 56.3032 243.936 55.4128 244.207 54.4461C244.479 53.4737 244.691 52.4674 244.843 51.4271C244.996 50.3869 245.072 49.3636 245.072 48.3573C245.072 47.0175 244.94 45.6578 244.674 44.2784C244.408 42.8989 244.049 41.6184 243.597 40.4368C243.145 39.2553 242.641 38.2914 242.087 37.5451H244.411C245.485 39.0546 246.302 40.7025 246.862 42.489C247.421 44.2755 247.701 46.2316 247.701 48.3573Z" fill="white"/>
</svg>
