<svg width="325" height="96" viewBox="0 0 325 96" fill="none" xmlns="http://www.w3.org/2000/svg">
<path d="M323.254 75.7523L300.061 95.03H25.9409L2.74626 75.7523V22.1324L25.9409 2.85465H300.061L323.254 22.1324V75.7523Z" fill="#0A4F9B" fill-opacity="0.1" stroke="#0A4F9B" stroke-width="1.49251"/>
<path d="M46.0067 2.00002H24.8801L2 20.7334V35.0067" stroke="#0A4F9B" stroke-width="2.98502" stroke-miterlimit="10"/>
<path d="M46.0067 93.8839H24.8801L2 75.1505V60.8773" stroke="#0A4F9B" stroke-width="2.98502" stroke-miterlimit="10"/>
<path d="M278.921 2.00021H300.048L322.928 20.7336V35.0068" stroke="#0A4F9B" stroke-width="2.98502" stroke-miterlimit="10"/>
<path d="M278.921 93.8841H300.048L322.928 75.1507V60.8774" stroke="#0A4F9B" stroke-width="2.98502" stroke-miterlimit="10"/>
<path d="M46.5408 57V39.6326H57.3106V41.8883H49.1612V47.18H56.5389V49.4272H49.1612V57H46.5408ZM60.5331 57V39.6326H66.7236C68.0691 39.6326 69.1857 39.8644 70.0733 40.328C70.9665 40.7916 71.6336 41.4332 72.0746 42.253C72.5156 43.0671 72.736 44.0084 72.736 45.0769C72.736 46.1397 72.5127 47.0754 72.0661 47.8838C71.6251 48.6866 70.958 49.3113 70.0648 49.7579C69.1772 50.2046 68.0606 50.4279 66.7151 50.4279H62.0256V48.1721H66.4777C67.3257 48.1721 68.0154 48.0506 68.5468 47.8075C69.0839 47.5644 69.4768 47.2111 69.7256 46.7475C69.9743 46.2839 70.0987 45.727 70.0987 45.0769C70.0987 44.4211 69.9715 43.8529 69.7171 43.3724C69.4683 42.8918 69.0754 42.5243 68.5384 42.2699C68.0069 42.0099 67.3087 41.8799 66.4438 41.8799H63.1534V57H60.5331ZM69.1065 49.1643L73.3975 57H70.4125L66.2063 49.1643H69.1065ZM75.9246 57V39.6326H86.8131V41.8883H78.545V47.18H86.245V49.4272H78.545V54.7443H86.9149V57H75.9246ZM96.6989 51.3692H99.2769L101.092 53.7351L101.948 54.7867L104.84 58.5604H102.16L100.227 56.0417L99.5652 55.1259L96.6989 51.3692ZM105.4 48.3163C105.4 50.1706 105.06 51.7649 104.382 53.0991C103.704 54.4277 102.774 55.451 101.592 56.1689C100.416 56.8813 99.079 57.2374 97.5808 57.2374C96.077 57.2374 94.7343 56.8813 93.5527 56.1689C92.3768 55.451 91.4497 54.4249 90.7712 53.0906C90.0928 51.7564 89.7536 50.165 89.7536 48.3163C89.7536 46.462 90.0928 44.8705 90.7712 43.542C91.4497 42.2077 92.3768 41.1845 93.5527 40.4721C94.7343 39.7542 96.077 39.3952 97.5808 39.3952C99.079 39.3952 100.416 39.7542 101.592 40.4721C102.774 41.1845 103.704 42.2077 104.382 43.542C105.06 44.8705 105.4 46.462 105.4 48.3163ZM102.805 48.3163C102.805 46.9029 102.576 45.7129 102.118 44.7461C101.665 43.7738 101.044 43.0388 100.252 42.5413C99.4663 42.0381 98.5758 41.7866 97.5808 41.7866C96.5802 41.7866 95.6869 42.0381 94.9011 42.5413C94.1153 43.0388 93.4934 43.7738 93.0355 44.7461C92.5832 45.7129 92.357 46.9029 92.357 48.3163C92.357 49.7297 92.5832 50.9225 93.0355 51.8949C93.4934 52.8617 94.1153 53.5966 94.9011 54.0998C95.6869 54.5973 96.5802 54.846 97.5808 54.846C98.5758 54.846 99.4663 54.5973 100.252 54.0998C101.044 53.5966 101.665 52.8617 102.118 51.8949C102.576 50.9225 102.805 49.7297 102.805 48.3163ZM124.459 44.1949C124.368 43.3921 123.995 42.7703 123.339 42.3293C122.684 41.8827 121.858 41.6594 120.863 41.6594C120.151 41.6594 119.535 41.7724 119.014 41.9986C118.494 42.2191 118.09 42.5243 117.802 42.9144C117.519 43.2989 117.378 43.737 117.378 44.2289C117.378 44.6416 117.474 44.9977 117.666 45.2974C117.864 45.597 118.121 45.8486 118.438 46.0521C118.76 46.25 119.105 46.4167 119.472 46.5524C119.84 46.6825 120.193 46.7899 120.532 46.8747L122.228 47.3156C122.782 47.4513 123.351 47.6351 123.933 47.8669C124.515 48.0986 125.055 48.4039 125.553 48.7827C126.05 49.1615 126.452 49.6307 126.757 50.1904C127.068 50.7501 127.223 51.42 127.223 52.2002C127.223 53.1839 126.969 54.0574 126.46 54.8206C125.957 55.5838 125.225 56.1859 124.264 56.6269C123.308 57.0678 122.152 57.2883 120.795 57.2883C119.495 57.2883 118.37 57.082 117.42 56.6693C116.47 56.2566 115.727 55.6714 115.19 54.9139C114.653 54.1507 114.356 53.2461 114.299 52.2002H116.928C116.979 52.8278 117.183 53.3507 117.539 53.7691C117.901 54.1818 118.361 54.4899 118.921 54.6934C119.487 54.8913 120.106 54.9902 120.778 54.9902C121.519 54.9902 122.178 54.8743 122.754 54.6425C123.337 54.4051 123.794 54.0772 124.128 53.6588C124.462 53.2348 124.628 52.7401 124.628 52.1748C124.628 51.6603 124.481 51.2391 124.187 50.9112C123.899 50.5833 123.506 50.312 123.009 50.0971C122.517 49.8823 121.96 49.6929 121.338 49.529L119.286 48.9693C117.895 48.5905 116.793 48.0336 115.979 47.2987C115.17 46.5637 114.766 45.5913 114.766 44.3815C114.766 43.3808 115.037 42.5074 115.58 41.7611C116.123 41.0149 116.858 40.4354 117.785 40.0227C118.712 39.6043 119.758 39.3952 120.923 39.3952C122.098 39.3952 123.136 39.6015 124.035 40.0142C124.939 40.4269 125.652 40.9951 126.172 41.7187C126.692 42.4367 126.963 43.2621 126.986 44.1949H124.459ZM130.355 57V39.6326H141.243V41.8883H132.975V47.18H140.675V49.4272H132.975V54.7443H141.345V57H130.355ZM143.887 41.8883V39.6326H157.328V41.8883H151.909V57H149.297V41.8883H143.887ZM173.368 39.6326H175.98V51.9458C175.98 53.0595 175.76 54.0122 175.319 54.8036C174.883 55.5951 174.27 56.2 173.478 56.6184C172.687 57.0311 171.76 57.2374 170.697 57.2374C169.719 57.2374 168.84 57.0594 168.06 56.7032C167.285 56.347 166.672 55.8297 166.219 55.1513C165.773 54.4673 165.549 53.6362 165.549 52.6582H168.153C168.153 53.1387 168.263 53.5542 168.484 53.9047C168.71 54.2553 169.018 54.5294 169.408 54.7273C169.804 54.9195 170.256 55.0156 170.765 55.0156C171.319 55.0156 171.788 54.8997 172.172 54.668C172.563 54.4305 172.859 54.0828 173.063 53.6249C173.266 53.167 173.368 52.6073 173.368 51.9458V39.6326ZM181.261 57H178.48L184.729 39.6326H187.757L194.007 57H191.225L186.315 42.7872H186.18L181.261 57ZM181.727 50.1989H190.75V52.4037H181.727V50.1989ZM196.515 39.6326H199.695L205.224 53.133H205.427L210.957 39.6326H214.137V57H211.643V44.4324H211.482L206.36 56.9746H204.291L199.169 44.4239H199.008V57H196.515V39.6326ZM217.946 39.6326H221.126L226.655 53.133H226.859L232.388 39.6326H235.568V57H233.075V44.4324H232.914L227.792 56.9746H225.723L220.601 44.4239H220.439V57H217.946V39.6326ZM239.378 57V39.6326H250.266V41.8883H241.998V47.18H249.698V49.4272H241.998V54.7443H250.368V57H239.378ZM253.767 57V39.6326H259.957C261.303 39.6326 262.419 39.8644 263.307 40.328C264.2 40.7916 264.867 41.4332 265.308 42.253C265.749 43.0671 265.97 44.0084 265.97 45.0769C265.97 46.1397 265.746 47.0754 265.3 47.8838C264.859 48.6866 264.192 49.3113 263.298 49.7579C262.411 50.2046 261.294 50.4279 259.949 50.4279H255.259V48.1721H259.711C260.559 48.1721 261.249 48.0506 261.78 47.8075C262.317 47.5644 262.71 47.2111 262.959 46.7475C263.208 46.2839 263.332 45.727 263.332 45.0769C263.332 44.4211 263.205 43.8529 262.951 43.3724C262.702 42.8918 262.309 42.5243 261.772 42.2699C261.24 42.0099 260.542 41.8799 259.677 41.8799H256.387V57H253.767ZM262.34 49.1643L266.631 57H263.646L259.44 49.1643H262.34ZM281.346 39.6326V57H278.717V43.1688H278.573C278.483 43.3384 278.274 43.5222 277.946 43.72C277.623 43.9179 277.208 44.0903 276.699 44.2373C276.196 44.3843 275.614 44.4578 274.952 44.4578V42.3039C275.591 42.3039 276.148 42.1908 276.623 41.9647C277.103 41.7385 277.51 41.4671 277.844 41.1506C278.177 40.8283 278.432 40.5258 278.607 40.2432C278.782 39.9549 278.881 39.7513 278.904 39.6326H281.346Z" fill="white"/>
</svg>
