<svg width="325" height="96" viewBox="0 0 325 96" fill="none" xmlns="http://www.w3.org/2000/svg">
<path d="M323.254 73.7523L300.061 93.03H25.9409L2.74626 73.7523V20.1324L25.9409 0.854654H300.061L323.254 20.1324V73.7523Z" fill="#0A4F9B" fill-opacity="0.1" stroke="#0A4F9B" stroke-width="1.49251"/>
<path d="M46.0067 1.8923H24.8801L2 20.6257V34.8989" stroke="#0A4F9B" stroke-width="2.98502" stroke-miterlimit="10"/>
<path d="M46.0067 93.7762H24.8801L2 75.0427V60.7695" stroke="#0A4F9B" stroke-width="2.98502" stroke-miterlimit="10"/>
<path d="M278.919 1.89248H300.046L322.926 20.6259V34.8991" stroke="#0A4F9B" stroke-width="2.98502" stroke-miterlimit="10"/>
<path d="M278.919 93.7763H300.046L322.926 75.0429V60.7697" stroke="#0A4F9B" stroke-width="2.98502" stroke-miterlimit="10"/>
<path d="M43.1168 53V35.6326H53.8867V37.8883H45.7372V43.18H53.115V45.4272H45.7372V53H43.1168ZM57.1091 53V35.6326H63.2997C64.6452 35.6326 65.7617 35.8644 66.6493 36.328C67.5426 36.7916 68.2097 37.4332 68.6507 38.253C69.0916 39.0671 69.3121 40.0084 69.3121 41.0769C69.3121 42.1397 69.0888 43.0754 68.6422 43.8838C68.2012 44.6866 67.5341 45.3113 66.6409 45.7579C65.7533 46.2046 64.6367 46.4279 63.2912 46.4279H58.6016V44.1721H63.0537C63.9018 44.1721 64.5915 44.0506 65.1229 43.8075C65.66 43.5644 66.0529 43.2111 66.3016 42.7475C66.5504 42.2839 66.6748 41.727 66.6748 41.0769C66.6748 40.4211 66.5476 39.8529 66.2932 39.3724C66.0444 38.8918 65.6515 38.5243 65.1144 38.2699C64.583 38.0099 63.8848 37.8799 63.0198 37.8799H59.7295V53H57.1091ZM65.6826 45.1643L69.9736 53H66.9885L62.7824 45.1643H65.6826ZM72.5006 53V35.6326H83.3892V37.8883H75.121V43.18H82.821V45.4272H75.121V50.7443H83.491V53H72.5006ZM93.275 47.3692H95.8529L97.6677 49.7351L98.5242 50.7867L101.416 54.5604H98.7362L96.8027 52.0417L96.1413 51.1259L93.275 47.3692ZM101.976 44.3163C101.976 46.1706 101.636 47.7649 100.958 49.0991C100.28 50.4277 99.3496 51.451 98.168 52.1689C96.9921 52.8813 95.6551 53.2374 94.1569 53.2374C92.6531 53.2374 91.3104 52.8813 90.1288 52.1689C88.9529 51.451 88.0257 50.4249 87.3473 49.0906C86.6689 47.7564 86.3297 46.165 86.3297 44.3163C86.3297 42.462 86.6689 40.8705 87.3473 39.542C88.0257 38.2077 88.9529 37.1845 90.1288 36.4721C91.3104 35.7542 92.6531 35.3952 94.1569 35.3952C95.6551 35.3952 96.9921 35.7542 98.168 36.4721C99.3496 37.1845 100.28 38.2077 100.958 39.542C101.636 40.8705 101.976 42.462 101.976 44.3163ZM99.3807 44.3163C99.3807 42.9029 99.1517 41.7129 98.6938 40.7461C98.2415 39.7738 97.6196 39.0388 96.8281 38.5413C96.0423 38.0381 95.1519 37.7866 94.1569 37.7866C93.1562 37.7866 92.263 38.0381 91.4772 38.5413C90.6913 39.0388 90.0695 39.7738 89.6115 40.7461C89.1592 41.7129 88.9331 42.9029 88.9331 44.3163C88.9331 45.7297 89.1592 46.9225 89.6115 47.8949C90.0695 48.8617 90.6913 49.5966 91.4772 50.0998C92.263 50.5973 93.1562 50.846 94.1569 50.846C95.1519 50.846 96.0423 50.5973 96.8281 50.0998C97.6196 49.5966 98.2415 48.8617 98.6938 47.8949C99.1517 46.9225 99.3807 45.7297 99.3807 44.3163ZM121.035 40.1949C120.944 39.3921 120.571 38.7703 119.915 38.3293C119.26 37.8827 118.434 37.6594 117.439 37.6594C116.727 37.6594 116.111 37.7724 115.591 37.9986C115.07 38.2191 114.666 38.5243 114.378 38.9144C114.095 39.2989 113.954 39.737 113.954 40.2289C113.954 40.6416 114.05 40.9977 114.242 41.2974C114.44 41.597 114.697 41.8486 115.014 42.0521C115.336 42.25 115.681 42.4167 116.048 42.5524C116.416 42.6825 116.769 42.7899 117.108 42.8747L118.805 43.3156C119.359 43.4513 119.927 43.6351 120.509 43.8669C121.091 44.0986 121.631 44.4039 122.129 44.7827C122.626 45.1615 123.028 45.6307 123.333 46.1904C123.644 46.7501 123.799 47.42 123.799 48.2002C123.799 49.1839 123.545 50.0574 123.036 50.8206C122.533 51.5838 121.801 52.1859 120.84 52.6269C119.884 53.0678 118.728 53.2883 117.371 53.2883C116.071 53.2883 114.946 53.082 113.996 52.6693C113.046 52.2566 112.303 51.6714 111.766 50.9139C111.229 50.1507 110.932 49.2461 110.876 48.2002H113.504C113.555 48.8278 113.759 49.3507 114.115 49.7691C114.477 50.1818 114.938 50.4899 115.497 50.6934C116.063 50.8913 116.682 50.9902 117.354 50.9902C118.095 50.9902 118.754 50.8743 119.33 50.6425C119.913 50.4051 120.371 50.0772 120.704 49.6588C121.038 49.2348 121.204 48.7401 121.204 48.1748C121.204 47.6603 121.057 47.2391 120.763 46.9112C120.475 46.5833 120.082 46.312 119.585 46.0971C119.093 45.8823 118.536 45.6929 117.914 45.529L115.862 44.9693C114.471 44.5905 113.369 44.0336 112.555 43.2987C111.746 42.5637 111.342 41.5913 111.342 40.3815C111.342 39.3808 111.613 38.5074 112.156 37.7611C112.699 37.0149 113.434 36.4354 114.361 36.0227C115.288 35.6043 116.334 35.3952 117.499 35.3952C118.674 35.3952 119.712 35.6015 120.611 36.0142C121.515 36.4269 122.228 36.9951 122.748 37.7187C123.268 38.4367 123.539 39.2621 123.562 40.1949H121.035ZM126.931 53V35.6326H137.819V37.8883H129.551V43.18H137.251V45.4272H129.551V50.7443H137.921V53H126.931ZM140.463 37.8883V35.6326H153.904V37.8883H148.485V53H145.873V37.8883H140.463ZM169.944 35.6326H172.556V47.9458C172.556 49.0595 172.336 50.0122 171.895 50.8036C171.459 51.5951 170.846 52.2 170.054 52.6184C169.263 53.0311 168.336 53.2374 167.273 53.2374C166.295 53.2374 165.416 53.0594 164.636 52.7032C163.861 52.347 163.248 51.8297 162.795 51.1513C162.349 50.4673 162.125 49.6362 162.125 48.6582H164.729C164.729 49.1387 164.839 49.5542 165.06 49.9047C165.286 50.2553 165.594 50.5294 165.984 50.7273C166.38 50.9195 166.832 51.0156 167.341 51.0156C167.895 51.0156 168.364 50.8997 168.749 50.668C169.139 50.4305 169.435 50.0828 169.639 49.6249C169.842 49.167 169.944 48.6073 169.944 47.9458V35.6326ZM177.837 53H175.056L181.306 35.6326H184.333L190.583 53H187.801L182.891 38.7872H182.756L177.837 53ZM178.304 46.1989H187.326V48.4037H178.304V46.1989ZM193.091 35.6326H196.271L201.8 49.133H202.004L207.533 35.6326H210.713V53H208.219V40.4324H208.058L202.936 52.9746H200.867L195.745 40.4239H195.584V53H193.091V35.6326ZM214.522 35.6326H217.702L223.231 49.133H223.435L228.964 35.6326H232.144V53H229.651V40.4324H229.49L224.368 52.9746H222.299L217.177 40.4239H217.016V53H214.522V35.6326ZM235.954 53V35.6326H246.842V37.8883H238.574V43.18H246.274V45.4272H238.574V50.7443H246.944V53H235.954ZM250.343 53V35.6326H256.533C257.879 35.6326 258.995 35.8644 259.883 36.328C260.776 36.7916 261.443 37.4332 261.884 38.253C262.325 39.0671 262.546 40.0084 262.546 41.0769C262.546 42.1397 262.322 43.0754 261.876 43.8838C261.435 44.6866 260.768 45.3113 259.874 45.7579C258.987 46.2046 257.87 46.4279 256.525 46.4279H251.835V44.1721H256.287C257.135 44.1721 257.825 44.0506 258.356 43.8075C258.893 43.5644 259.286 43.2111 259.535 42.7475C259.784 42.2839 259.908 41.727 259.908 41.0769C259.908 40.4211 259.781 39.8529 259.527 39.3724C259.278 38.8918 258.885 38.5243 258.348 38.2699C257.816 38.0099 257.118 37.8799 256.253 37.8799H252.963V53H250.343ZM258.916 45.1643L263.207 53H260.222L256.016 45.1643H258.916ZM271.817 53V51.1004L277.693 45.0117C278.321 44.3502 278.838 43.7707 279.245 43.2732C279.658 42.7701 279.966 42.2924 280.17 41.8401C280.373 41.3878 280.475 40.9073 280.475 40.3985C280.475 39.8218 280.339 39.3243 280.068 38.906C279.796 38.4819 279.426 38.1569 278.957 37.9307C278.488 37.6989 277.959 37.583 277.371 37.583C276.749 37.583 276.206 37.7102 275.743 37.9647C275.279 38.2191 274.923 38.5781 274.674 39.0416C274.426 39.5052 274.301 40.0479 274.301 40.6698H271.8C271.8 39.6126 272.043 38.6883 272.529 37.8968C273.015 37.1053 273.682 36.4919 274.53 36.0566C275.378 35.6156 276.342 35.3952 277.422 35.3952C278.513 35.3952 279.474 35.6128 280.305 36.0481C281.142 36.4778 281.795 37.0658 282.264 37.812C282.733 38.5526 282.968 39.3893 282.968 40.3221C282.968 40.9666 282.846 41.597 282.603 42.2132C282.366 42.8294 281.95 43.5163 281.357 44.2739C280.763 45.0258 279.938 45.9388 278.881 47.013L275.429 50.6256V50.7528H283.248V53H271.817Z" fill="white"/>
</svg>
