<svg width="115" height="296" viewBox="0 0 115 296" fill="none" xmlns="http://www.w3.org/2000/svg">
<path d="M26.2015 190.5V189.811L25.6783 189.362L1.5 168.612V117.481L25.6754 96.7315L26.1984 96.2826V95.5933V31.9328L56.6312 1.5H113.243V294.5H56.6342L26.2015 264.067V190.5Z" fill="#071F3D" stroke="#0A4F9B" stroke-width="3"/>
<path d="M14.6376 142.831L12.3518 140.545C12.2623 140.456 12.1094 140.519 12.1094 140.646V145.279C12.1094 145.407 12.2642 145.469 12.3531 145.378L14.639 143.031C14.6932 142.975 14.6926 142.886 14.6376 142.831Z" fill="#0079FF"/>
<path d="M7.34286 154.859H9.99508C10.0324 154.859 10.0683 154.844 10.0949 154.818L15.976 149.007C16.003 148.98 16.0182 148.944 16.0182 148.906V146.894C16.0182 146.856 16.0332 146.82 16.0598 146.793L19.9653 142.888C20.0208 142.833 20.0208 142.743 19.9653 142.687L16.0598 138.782C16.0332 138.755 16.0182 138.719 16.0182 138.681V137.166C16.0182 137.128 16.0032 137.092 15.9766 137.065L9.95298 131.042C9.92635 131.015 9.89022 131 9.85256 131H7.34286C7.21634 131 7.15297 131.153 7.24244 131.242L10.0118 134.012C10.0384 134.038 10.0534 134.075 10.0534 134.112V135.983C10.0534 136.021 10.0684 136.057 10.095 136.083L16.8409 142.829C16.8964 142.885 16.8964 142.975 16.8409 143.03L9.95298 149.918C9.92635 149.945 9.91139 149.981 9.91139 150.018V151.889C9.91139 151.927 9.89642 151.963 9.86979 151.989L7.24244 154.617C7.15297 154.706 7.21634 154.859 7.34286 154.859Z" fill="#0079FF"/>
<path d="M18.0762 138.74L21.8224 142.486C21.9888 142.652 21.9888 142.922 21.8224 143.088L18.0762 146.835" stroke="#0079FF" stroke-width="0.994132" stroke-linecap="round"/>
<path d="M54.1352 181.5V175.12H55.0978V177.893H58.2785V175.12H59.2442V181.5H58.2785V178.718H55.0978V181.5H54.1352ZM61.6087 175.12V181.5H60.6461V175.12H61.6087ZM66.4903 176.796C66.4571 176.501 66.32 176.273 66.0791 176.111C65.8382 175.947 65.5349 175.865 65.1694 175.865C64.9077 175.865 64.6814 175.906 64.4903 175.989C64.2992 176.07 64.1507 176.182 64.0448 176.326C63.941 176.467 63.889 176.628 63.889 176.808C63.889 176.96 63.9244 177.091 63.995 177.201C64.0677 177.311 64.1621 177.403 64.2785 177.478C64.3968 177.551 64.5235 177.612 64.6585 177.662C64.7935 177.71 64.9233 177.749 65.0479 177.78L65.671 177.942C65.8745 177.992 66.0832 178.06 66.2971 178.145C66.5111 178.23 66.7094 178.342 66.8922 178.481C67.0749 178.62 67.2224 178.793 67.3345 178.998C67.4487 179.204 67.5059 179.45 67.5059 179.737C67.5059 180.098 67.4124 180.419 67.2255 180.699C67.0406 180.98 66.7717 181.201 66.4186 181.363C66.0676 181.525 65.6429 181.606 65.1445 181.606C64.6668 181.606 64.2535 181.53 63.9046 181.379C63.5557 181.227 63.2826 181.012 63.0853 180.734C62.888 180.453 62.779 180.121 62.7582 179.737H63.7239C63.7426 179.967 63.8174 180.159 63.9482 180.313C64.0812 180.465 64.2504 180.578 64.456 180.653C64.6637 180.725 64.8911 180.762 65.1383 180.762C65.4103 180.762 65.6523 180.719 65.8641 180.634C66.078 180.547 66.2463 180.426 66.3688 180.273C66.4913 180.117 66.5526 179.935 66.5526 179.727C66.5526 179.538 66.4986 179.384 66.3906 179.263C66.2847 179.143 66.1403 179.043 65.9576 178.964C65.7769 178.885 65.5723 178.816 65.3439 178.755L64.59 178.55C64.0791 178.411 63.6741 178.206 63.375 177.936C63.078 177.666 62.9295 177.309 62.9295 176.864C62.9295 176.497 63.0292 176.176 63.2286 175.902C63.428 175.628 63.698 175.415 64.0386 175.263C64.3792 175.11 64.7634 175.033 65.1912 175.033C65.6232 175.033 66.0043 175.109 66.3345 175.26C66.6668 175.412 66.9285 175.62 67.1196 175.886C67.3106 176.15 67.4103 176.453 67.4186 176.796H66.4903ZM68.3415 175.949V175.12H73.2792V175.949H71.2886V181.5H70.3291V175.949H68.3415ZM79.6382 178.31C79.6382 178.991 79.5136 179.577 79.2644 180.067C79.0152 180.555 78.6735 180.931 78.2395 181.195C77.8075 181.456 77.3163 181.587 76.766 181.587C76.2135 181.587 75.7203 181.456 75.2862 181.195C74.8542 180.931 74.5136 180.554 74.2644 180.064C74.0152 179.574 73.8906 178.989 73.8906 178.31C73.8906 177.629 74.0152 177.044 74.2644 176.556C74.5136 176.066 74.8542 175.69 75.2862 175.428C75.7203 175.165 76.2135 175.033 76.766 175.033C77.3163 175.033 77.8075 175.165 78.2395 175.428C78.6735 175.69 79.0152 176.066 79.2644 176.556C79.5136 177.044 79.6382 177.629 79.6382 178.31ZM78.685 178.31C78.685 177.791 78.6008 177.354 78.4326 176.998C78.2665 176.641 78.038 176.371 77.7473 176.188C77.4586 176.004 77.1315 175.911 76.766 175.911C76.3984 175.911 76.0702 176.004 75.7815 176.188C75.4929 176.371 75.2644 176.641 75.0962 176.998C74.93 177.354 74.847 177.791 74.847 178.31C74.847 178.829 74.93 179.267 75.0962 179.625C75.2644 179.98 75.4929 180.25 75.7815 180.435C76.0702 180.617 76.3984 180.709 76.766 180.709C77.1315 180.709 77.4586 180.617 77.7473 180.435C78.038 180.25 78.2665 179.98 78.4326 179.625C78.6008 179.267 78.685 178.829 78.685 178.31ZM80.8384 181.5V175.12H83.1125C83.6068 175.12 84.017 175.205 84.343 175.375C84.6712 175.546 84.9162 175.781 85.0782 176.083C85.2402 176.382 85.3212 176.727 85.3212 177.12C85.3212 177.51 85.2392 177.854 85.0751 178.151C84.9131 178.446 84.6681 178.676 84.3399 178.84C84.0139 179.004 83.6037 179.086 83.1094 179.086H81.3867V178.257H83.0222C83.3337 178.257 83.5871 178.212 83.7823 178.123C83.9796 178.034 84.1239 177.904 84.2153 177.734C84.3067 177.563 84.3524 177.359 84.3524 177.12C84.3524 176.879 84.3056 176.67 84.2122 176.494C84.1208 176.317 83.9765 176.182 83.7792 176.089C83.5839 175.993 83.3275 175.945 83.0097 175.945H81.801V181.5H80.8384ZM83.9879 178.622L85.5642 181.5H84.4676L82.9225 178.622H83.9879ZM85.769 175.12H86.8625L88.5292 178.02H88.5977L90.2644 175.12H91.3578L89.0432 178.995V181.5H88.0837V178.995L85.769 175.12Z" fill="white"/>
<path d="M60.3125 119.75H84.6875M60.3125 129.5H84.6875M60.3125 139.25H74.9375M57.875 156.312H87.125C89.8174 156.312 92 154.13 92 151.437V114.875C92 112.183 89.8174 110 87.125 110H57.875C55.1826 110 53 112.183 53 114.875V151.437C53 154.13 55.1826 156.312 57.875 156.312Z" stroke="white" stroke-width="3.65625" stroke-linecap="round" stroke-linejoin="round"/>
<rect x="25" y="95" width="2.7" height="97" fill="#0A4F9B"/>
</svg>
