<svg width="495" height="53" viewBox="0 0 495 53" fill="none" xmlns="http://www.w3.org/2000/svg">
<mask id="mask0_2765_11737" style="mask-type:luminance" maskUnits="userSpaceOnUse" x="193" y="0" width="12" height="53">
<path d="M204.182 0.00341797H193.617V52.8284H204.182V0.00341797Z" fill="white"/>
</mask>
<g mask="url(#mask0_2765_11737)">
<path d="M194.72 -3.22743L177.463 47.312L203.079 56.0589L220.336 5.51945L194.72 -3.22743Z" fill="url(#paint0_linear_2765_11737)"/>
</g>
<mask id="mask1_2765_11737" style="mask-type:luminance" maskUnits="userSpaceOnUse" x="88" y="21" width="32" height="11">
<path d="M119.956 21.1436H88.7402V31.7079H119.956V21.1436Z" fill="white"/>
</mask>
<g mask="url(#mask1_2765_11737)">
<path d="M91.9999 11.5976L85.5098 30.6045L116.696 41.2533L123.186 22.2465L91.9999 11.5976Z" fill="url(#paint1_linear_2765_11737)"/>
</g>
<mask id="mask2_2765_11737" style="mask-type:luminance" maskUnits="userSpaceOnUse" x="67" y="0" width="53" height="53">
<path d="M82.5527 0.0249023C78.462 0.0249023 74.8726 1.52571 71.8049 4.59335C68.6933 7.66181 67.1484 11.274 67.1484 15.4283V37.382C67.1484 41.538 68.6933 45.1494 71.8049 48.217C74.8726 51.2846 78.462 52.8083 82.5527 52.8083H119.953V42.2342H82.8568C81.4644 42.2342 80.2465 41.7336 79.2454 40.7325C78.2011 39.6882 77.7005 38.4703 77.7005 37.0771V15.734C77.7005 14.3417 78.2011 13.1449 79.2454 12.0998C80.2465 11.0776 81.4644 10.577 82.8568 10.577H119.953V0.0249023H82.5527Z" fill="white"/>
</mask>
<g mask="url(#mask2_2765_11737)">
<path d="M72.6632 -16.1236L51.0078 47.2964L114.44 68.956L136.096 5.536L72.6632 -16.1236Z" fill="url(#paint2_linear_2765_11737)"/>
</g>
<mask id="mask3_2765_11737" style="mask-type:luminance" maskUnits="userSpaceOnUse" x="214" y="0" width="54" height="43">
<path d="M229.975 0.00341797C225.89 0.00341797 222.298 1.5352 219.2 4.59877C216.099 7.66315 214.551 11.2729 214.551 15.4281V31.6981H256.811V42.1866H267.375V21.1337H225.116V15.7452C225.116 14.3381 225.626 13.1226 226.648 12.1012C227.668 11.0805 228.883 10.5694 230.292 10.5694H267.375V0.00341797H229.975Z" fill="white"/>
</mask>
<g mask="url(#mask3_2765_11737)">
<path d="M220.066 -16.1507L201.65 37.7817L261.859 58.3405L280.275 4.40811L220.066 -16.1507Z" fill="url(#paint3_linear_2765_11737)"/>
</g>
<mask id="mask4_2765_11737" style="mask-type:luminance" maskUnits="userSpaceOnUse" x="214" y="42" width="43" height="11">
<path d="M214.551 42.2641V52.8284H256.774V42.2217L214.551 42.2641Z" fill="white"/>
</mask>
<g mask="url(#mask4_2765_11737)">
<path d="M218.959 29.3088L211.307 51.7202L252.365 65.7399L260.017 43.3285L218.959 29.3088Z" fill="url(#paint4_linear_2765_11737)"/>
</g>
<mask id="mask5_2765_11737" style="mask-type:luminance" maskUnits="userSpaceOnUse" x="141" y="21" width="43" height="32">
<path d="M151.898 21.1333V31.6976H172.681V37.0854C172.681 38.424 172.168 39.6223 171.148 40.6788C170.127 41.7345 168.946 42.2636 167.609 42.2636H161.423V42.262H141.514V52.8279H167.821C171.904 52.8279 175.496 51.2799 178.597 48.1788C181.695 45.081 183.245 41.4892 183.245 37.4025V21.1333H151.898Z" fill="white"/>
</mask>
<g mask="url(#mask5_2765_11737)">
<path d="M145.87 8.37135L131.82 49.5181L178.887 65.5893L192.937 24.4426L145.87 8.37135Z" fill="url(#paint5_linear_2765_11737)"/>
</g>
<mask id="mask6_2765_11737" style="mask-type:luminance" maskUnits="userSpaceOnUse" x="130" y="0" width="54" height="43">
<path d="M145.951 0.00341797C141.795 0.00341797 138.169 1.5352 135.071 4.59877C131.969 7.66315 130.42 11.2729 130.42 15.4281V42.1776H140.986V15.7452C140.986 14.3381 141.514 13.1226 142.571 12.1012C143.627 11.0805 144.825 10.5694 146.162 10.5694H183.246V0.00341797H145.951Z" fill="white"/>
</mask>
<g mask="url(#mask6_2765_11737)">
<path d="M135.935 -16.1513L117.521 37.7734L177.728 58.3317L196.141 4.40698L135.935 -16.1513Z" fill="url(#paint6_linear_2765_11737)"/>
</g>
<mask id="mask7_2765_11737" style="mask-type:luminance" maskUnits="userSpaceOnUse" x="0" y="0" width="57" height="53">
<path d="M10.5652 15.7418C10.5652 14.3396 11.0706 13.1241 12.0977 12.0969C13.1168 11.0787 14.3314 10.5652 15.7418 10.5652H40.5242C41.9345 10.5652 43.1492 11.0787 44.1682 12.0969C45.1872 13.1241 45.7008 14.3396 45.7008 15.7418V21.1303H10.5652V15.7418ZM15.4238 0C14.9591 0 14.4945 0.0244568 14.0461 0.0644022C10.5244 0.374998 7.39398 1.9076 4.64671 4.65486C1.5489 7.75267 0 11.3478 0 15.432V52.8258H10.5652V31.6955H45.7008V52.8258H56.266V15.432C56.266 11.3478 54.7171 7.75267 51.6192 4.65486C48.8638 1.9076 45.7416 0.374998 42.2198 0.0644022C41.7715 0.0244568 41.3068 0 40.8421 0H15.4238Z" fill="white"/>
</mask>
<g mask="url(#mask7_2765_11737)">
<path d="M50.391 -17.2069L-16.1543 5.51562L5.87546 70.0319L72.4207 47.3093L50.391 -17.2069Z" fill="url(#paint7_linear_2765_11737)"/>
</g>
<mask id="mask8_2765_11737" style="mask-type:luminance" maskUnits="userSpaceOnUse" x="299" y="2" width="18" height="51">
<path d="M299 2V11.2176H307.332V52.8424H316.586V2H299Z" fill="white"/>
</mask>
<g mask="url(#mask8_2765_11737)">
<path d="M316.484 0.665306L295.143 2.29395L299.102 54.1765L320.443 52.5478L316.484 0.665306Z" fill="url(#paint8_linear_2765_11737)"/>
</g>
<mask id="mask9_2765_11737" style="mask-type:luminance" maskUnits="userSpaceOnUse" x="325" y="2" width="48" height="51">
<path d="M330.129 2V11.2176H359.734C360.916 11.2176 361.814 11.5372 362.429 12.1747C363.042 12.813 363.351 13.7594 363.351 15.0108V19.0893C363.351 20.2942 363.049 21.2105 362.447 21.8366C361.843 22.4635 360.916 22.7765 359.663 22.7765H338.886C337.303 22.7765 335.885 22.9779 334.632 23.3798C333.379 23.7808 332.275 24.3189 331.317 24.9923C330.36 25.6656 329.545 26.4401 328.871 27.314C328.197 28.1887 327.647 29.1107 327.222 30.08C326.796 31.0493 326.483 32.0235 326.282 33.005C326.082 33.9865 325.98 34.9142 325.98 35.7873V52.8424H372.676V43.6239H335.199V35.7873C335.27 35.3405 335.364 34.8906 335.483 34.4414C335.601 33.9922 335.784 33.5903 336.032 33.2357C336.281 32.8811 336.629 32.5974 337.079 32.3846C337.527 32.1718 338.13 32.0658 338.886 32.0658H359.734C361.033 32.0658 362.434 31.8343 363.936 31.3745C365.438 30.914 366.837 30.168 368.138 29.1409C369.436 28.1121 370.518 26.7776 371.38 25.1341C372.244 23.4914 372.676 21.4762 372.676 19.0893V14.9407C372.676 14.0896 372.576 13.1741 372.374 12.1926C372.173 11.2119 371.854 10.2426 371.417 9.28637C370.979 8.32768 370.418 7.41219 369.733 6.53747C369.047 5.66274 368.226 4.88911 367.269 4.21574C366.311 3.54238 365.206 3.00434 363.954 2.60244C362.701 2.19973 361.294 2 359.734 2H330.129Z" fill="white"/>
</mask>
<g mask="url(#mask9_2765_11737)">
<path d="M372.406 -1.54284L322.123 2.29443L326.251 56.3855L376.534 52.5482L372.406 -1.54284Z" fill="url(#paint9_linear_2765_11737)"/>
</g>
<mask id="mask10_2765_11737" style="mask-type:luminance" maskUnits="userSpaceOnUse" x="381" y="2" width="48" height="51">
<path d="M381.398 2V19.0893C381.398 20.3887 381.628 21.7958 382.089 23.308C382.55 24.8211 383.289 26.2281 384.305 27.5267C385.322 28.8278 386.651 29.9088 388.293 30.7705C389.936 31.6354 391.951 32.0658 394.339 32.0658H415.116C416.345 32.0658 417.267 32.3846 417.882 33.0221C418.496 33.6604 418.804 34.5832 418.804 35.7873V39.9009C418.804 40.9647 418.49 41.8508 417.864 42.5601C417.237 43.2693 416.345 43.6239 415.187 43.6239H381.398V52.8424H415.187C416.747 52.8424 418.153 52.641 419.406 52.2391C420.658 51.8372 421.765 51.3 422.721 50.6266C423.679 49.9524 424.494 49.178 425.168 48.3041C425.841 47.4293 426.397 46.5139 426.834 45.556C427.27 44.5989 427.59 43.6362 427.791 42.6661C427.992 41.6976 428.092 40.7756 428.092 39.9009V35.7873C428.092 33.4012 427.661 31.3794 426.798 29.7262C425.936 28.0713 424.861 26.7287 423.572 25.7015C422.283 24.6727 420.883 23.9284 419.371 23.4678C417.857 23.0072 416.464 22.7765 415.187 22.7765H394.339C393.134 22.7765 392.211 22.4692 391.573 21.8545C390.936 21.2398 390.617 20.3178 390.617 19.0893V11.2176H423.873V2H381.398Z" fill="white"/>
</mask>
<g mask="url(#mask10_2765_11737)">
<path d="M427.822 -1.54223L377.541 2.29492L381.669 56.386L431.95 52.5488L427.822 -1.54223Z" fill="url(#paint10_linear_2765_11737)"/>
</g>
<mask id="mask11_2765_11737" style="mask-type:luminance" maskUnits="userSpaceOnUse" x="435" y="2" width="60" height="51">
<path d="M452.114 42.8087C450.661 42.2413 449.378 41.4318 448.267 40.3802C447.156 39.3286 446.269 38.0577 445.608 36.5683C444.946 35.0797 444.615 33.4126 444.615 31.5694V23.2722C444.615 21.429 444.952 19.757 445.626 18.2553C446.299 16.7553 447.197 15.4787 448.32 14.4263C449.443 13.3755 450.731 12.5717 452.185 12.0157C453.638 11.4605 455.133 11.1948 456.67 11.2176H473.299C474.882 11.1948 476.394 11.4662 477.837 12.0328C479.278 12.601 480.549 13.4162 481.648 14.4801C482.747 15.5431 483.627 16.8206 484.29 18.3091C484.951 19.7985 485.282 21.4526 485.282 23.2722V31.5694C485.282 33.3188 484.999 34.9313 484.431 36.4093C483.864 37.8865 483.06 39.1558 482.021 40.2196C480.98 41.2835 479.721 42.1174 478.244 42.7199C476.767 43.3231 475.119 43.6239 473.299 43.6239H456.67C456.608 43.6256 456.545 43.6256 456.482 43.6256C454.966 43.6256 453.51 43.3533 452.114 42.8087ZM456.67 2C453.881 2 451.203 2.52581 448.639 3.57662C446.074 4.62906 443.811 6.09399 441.85 7.97387C439.888 9.85212 438.321 12.0923 437.152 14.692C435.982 17.2926 435.396 20.1532 435.396 23.2722V31.5694C435.396 33.649 435.662 35.6169 436.195 37.4723C436.726 39.3286 437.47 41.0487 438.428 42.6318C439.385 44.215 440.525 45.6342 441.85 46.8856C443.173 48.1386 444.62 49.2073 446.192 50.0943C447.764 50.9812 449.437 51.6611 451.209 52.1331C452.982 52.6068 454.802 52.8424 456.67 52.8424H473.299C475.142 52.8424 476.95 52.6068 478.723 52.1331C480.496 51.6611 482.168 50.9812 483.739 50.0943C485.311 49.2073 486.759 48.1386 488.083 46.8856C489.407 45.6342 490.554 44.215 491.522 42.6318C492.492 41.0487 493.242 39.3286 493.774 37.4723C494.305 35.6169 494.571 33.649 494.571 31.5694V23.2722C494.571 21.1934 494.305 19.2254 493.774 17.3692C493.242 15.5138 492.492 13.7937 491.522 12.2105C490.554 10.6274 489.407 9.20892 488.083 7.95594C486.759 6.70378 485.311 5.6334 483.739 4.74726C482.168 3.86113 480.496 3.18205 478.723 2.70842C476.95 2.23641 475.142 2 473.299 2H456.67Z" fill="white"/>
</mask>
<g mask="url(#mask11_2765_11737)">
<path d="M494.228 -2.48914L431.539 2.29492L435.739 57.3329L498.429 52.5489L494.228 -2.48914Z" fill="url(#paint11_linear_2765_11737)"/>
</g>
<defs>
<linearGradient id="paint0_linear_2765_11737" x1="246.666" y1="-114.291" x2="130.444" y2="226.078" gradientUnits="userSpaceOnUse">
<stop stop-color="white"/>
<stop offset="0.63" stop-color="#087DFF"/>
<stop offset="1" stop-color="#0D1637"/>
</linearGradient>
<linearGradient id="paint1_linear_2765_11737" x1="122.102" y1="-26.5632" x2="78.393" y2="101.443" gradientUnits="userSpaceOnUse">
<stop stop-color="white"/>
<stop offset="0.63" stop-color="#087DFF"/>
<stop offset="1" stop-color="#0D1637"/>
</linearGradient>
<linearGradient id="paint2_linear_2765_11737" x1="153.187" y1="-150.255" x2="7.34451" y2="276.86" gradientUnits="userSpaceOnUse">
<stop stop-color="white"/>
<stop offset="0.63" stop-color="#087DFF"/>
<stop offset="1" stop-color="#0D1637"/>
</linearGradient>
<linearGradient id="paint3_linear_2765_11737" x1="291.616" y1="-129.167" x2="167.591" y2="234.052" gradientUnits="userSpaceOnUse">
<stop stop-color="white"/>
<stop offset="0.63" stop-color="#087DFF"/>
<stop offset="1" stop-color="#0D1637"/>
</linearGradient>
<linearGradient id="paint4_linear_2765_11737" x1="256.554" y1="-14.97" x2="205.016" y2="135.964" gradientUnits="userSpaceOnUse">
<stop stop-color="white"/>
<stop offset="0.63" stop-color="#087DFF"/>
<stop offset="1" stop-color="#0D1637"/>
</linearGradient>
<linearGradient id="paint5_linear_2765_11737" x1="201.012" y1="-77.6632" x2="106.39" y2="199.448" gradientUnits="userSpaceOnUse">
<stop stop-color="white"/>
<stop offset="0.63" stop-color="#087DFF"/>
<stop offset="1" stop-color="#0D1637"/>
</linearGradient>
<linearGradient id="paint6_linear_2765_11737" x1="207.477" y1="-129.151" x2="83.4702" y2="234.016" gradientUnits="userSpaceOnUse">
<stop stop-color="white"/>
<stop offset="0.63" stop-color="#087DFF"/>
<stop offset="1" stop-color="#0D1637"/>
</linearGradient>
<linearGradient id="paint7_linear_2765_11737" x1="213.074" y1="-37.4399" x2="-235.089" y2="115.59" gradientUnits="userSpaceOnUse">
<stop stop-color="white"/>
<stop offset="0.63" stop-color="#087DFF"/>
<stop offset="1" stop-color="#0D1637"/>
</linearGradient>
<linearGradient id="paint8_linear_2765_11737" x1="367.135" y1="22.3835" x2="223.407" y2="33.3519" gradientUnits="userSpaceOnUse">
<stop stop-color="white"/>
<stop offset="0.63" stop-color="#087DFF"/>
<stop offset="1" stop-color="#0D1637"/>
</linearGradient>
<linearGradient id="paint9_linear_2765_11737" x1="489.195" y1="16.2171" x2="150.555" y2="42.06" gradientUnits="userSpaceOnUse">
<stop stop-color="white"/>
<stop offset="0.63" stop-color="#087DFF"/>
<stop offset="1" stop-color="#0D1637"/>
</linearGradient>
<linearGradient id="paint10_linear_2765_11737" x1="544.608" y1="16.218" x2="205.979" y2="42.0601" gradientUnits="userSpaceOnUse">
<stop stop-color="white"/>
<stop offset="0.63" stop-color="#087DFF"/>
<stop offset="1" stop-color="#0D1637"/>
</linearGradient>
<linearGradient id="paint11_linear_2765_11737" x1="639.37" y1="13.5741" x2="217.176" y2="45.7934" gradientUnits="userSpaceOnUse">
<stop stop-color="white"/>
<stop offset="0.63" stop-color="#087DFF"/>
<stop offset="1" stop-color="#0D1637"/>
</linearGradient>
</defs>
</svg>
