<svg width="50" height="23" viewBox="0 0 50 23" fill="none" xmlns="http://www.w3.org/2000/svg">
<rect x="0.845703" y="0.430588" width="49" height="22" rx="2.65634" fill="#D9D9D9"/>
<path d="M11.6443 16.4306H9.01449V6.34978H11.6443V16.4306ZM18.7075 6.40822C21.045 6.67119 22.9735 8.10296 22.9735 11.2587C22.9735 14.4144 21.045 16.1092 18.7075 16.3721C18.1961 16.4306 17.9624 16.4306 17.4218 16.4306H13.6086V6.34978H17.4218C17.9624 6.34978 18.1961 6.34978 18.7075 6.40822ZM18.0062 14.356C19.3211 14.2391 20.2269 13.0995 20.2269 11.3025C20.2269 9.50551 19.3211 8.54126 18.0062 8.42438C17.6702 8.39516 17.4364 8.39516 17.0565 8.39516H16.2384V14.3852H17.0565C17.4364 14.3852 17.6702 14.3852 18.0062 14.356ZM32.2804 14.2099V16.4306H24.5517V6.34978H27.1815V14.2099H32.2804ZM41.4543 14.3852V16.4306H33.7257V6.34978H41.3082V8.39516H36.3555V10.3529H41.016V12.3983H36.3555V14.3852H41.4543Z" fill="black"/>
</svg>
