<svg width="853" height="472" viewBox="0 0 853 472" fill="none" xmlns="http://www.w3.org/2000/svg">
<path opacity="0.14" d="M826.945 469.437H29.5692C19.583 456.56 13.9838 449.34 4.00039 436.466L2.43066 36.4716C12.4169 23.5945 18.0161 16.3744 27.9995 3.50085L826.945 4.99973C836.932 17.8769 842.531 29.1262 852.514 41.9997V436.466C842.531 449.34 836.932 456.56 826.945 469.437Z" fill="#0A4F9B"/>
<path d="M282.639 467.802H30.1007L3.40039 433.373V31.7641L24.5433 4.50055H282.639" stroke="#0A4F9B" stroke-width="3" stroke-miterlimit="10"/>
<path d="M3.25553 55.9077C5.05351 55.9077 6.51106 54.0282 6.51106 51.7097C6.51106 49.3912 5.05351 47.5117 3.25553 47.5117C1.45755 47.5117 0 49.3912 0 51.7097C0 54.0282 1.45755 55.9077 3.25553 55.9077Z" fill="#0A4F9B"/>
<path d="M3.25553 419.441C5.05351 419.441 6.51106 417.562 6.51106 415.244C6.51106 412.925 5.05351 411.046 3.25553 411.046C1.45755 411.046 0 412.925 0 415.244C0 417.562 1.45755 419.441 3.25553 419.441Z" fill="#0A4F9B"/>
<path d="M43.609 472C45.407 472 46.8646 470.121 46.8646 467.802C46.8646 465.484 45.407 463.604 43.609 463.604C41.8111 463.604 40.3535 465.484 40.3535 467.802C40.3535 470.121 41.8111 472 43.609 472Z" fill="#0A4F9B"/>
<path d="M39.0026 8.39595C40.8006 8.39595 42.2581 6.51645 42.2581 4.19797C42.2581 1.8795 40.8006 0 39.0026 0C37.2046 0 35.7471 1.8795 35.7471 4.19797C35.7471 6.51645 37.2046 8.39595 39.0026 8.39595Z" fill="#0A4F9B"/>
<path d="M282.361 467.803L824.5 470L851.198 435.57V42.6975L830.057 6.69763L282.361 4.5" stroke="#0A4F9B" stroke-width="3" stroke-miterlimit="10"/>
<path d="M328 4.19727L335.526 13.9053H428.104V4.70991L328 4.19727Z" fill="#0A4F9B"/>
<path d="M527.93 4.19727L520.404 13.9053H427.826V4.70991L527.93 4.19727Z" fill="#0A4F9B"/>
<path d="M3 336.93L12.708 329.404L12.708 236.826L3.51264 236.826L3 336.93Z" fill="#0A4F9B"/>
<path d="M3 136.999L12.708 144.525L12.708 237.104L3.51265 237.104L3 136.999Z" fill="#0A4F9B"/>
<path d="M850.708 336.93L841 329.404L841 236.826L850.195 236.826L850.708 336.93Z" fill="#0A4F9B"/>
<path d="M850.708 137L841 144.526L841 237.104L850.195 237.104L850.708 137Z" fill="#0A4F9B"/>
<path d="M340 467.803L346.478 459.45H428.428V467.43L340 467.803Z" fill="#0A4F9B"/>
<path d="M516.578 467.803L510.1 459.45H428.15V467.43L516.578 467.803Z" fill="#0A4F9B"/>
</svg>
