<svg width="331" height="72" viewBox="0 0 331 72" fill="none" xmlns="http://www.w3.org/2000/svg">
<path opacity="0.6" d="M320.827 70H10.1739L2 66.3045V5.69551L10.1739 2H320.827L329 5.69551V66.3045L320.827 70Z" fill="#6781A2"/>
<path d="M110 24L85 49M85 24L110 49" stroke="white" stroke-width="2.67857" stroke-linecap="round" stroke-linejoin="round"/>
<path d="M161.918 33.6562H158.185C158.116 33.1733 157.977 32.7443 157.767 32.3693C157.557 31.9886 157.287 31.6648 156.957 31.3977C156.628 31.1307 156.247 30.9261 155.815 30.7841C155.389 30.642 154.926 30.571 154.426 30.571C153.523 30.571 152.736 30.7955 152.065 31.2443C151.395 31.6875 150.875 32.3352 150.506 33.1875C150.136 34.0341 149.952 35.0625 149.952 36.2727C149.952 37.517 150.136 38.5625 150.506 39.4091C150.881 40.2557 151.403 40.8949 152.074 41.3267C152.744 41.7585 153.52 41.9744 154.401 41.9744C154.895 41.9744 155.352 41.9091 155.773 41.7784C156.199 41.6477 156.577 41.4574 156.906 41.2074C157.236 40.9517 157.509 40.642 157.724 40.2784C157.946 39.9148 158.099 39.5 158.185 39.0341L161.918 39.0511C161.821 39.8523 161.58 40.625 161.193 41.3693C160.813 42.108 160.298 42.7699 159.651 43.3551C159.009 43.9347 158.241 44.3949 157.349 44.7358C156.463 45.071 155.46 45.2386 154.341 45.2386C152.784 45.2386 151.392 44.8864 150.165 44.1818C148.943 43.4773 147.977 42.4574 147.267 41.1222C146.562 39.7869 146.21 38.1705 146.21 36.2727C146.21 34.3693 146.568 32.75 147.284 31.4148C148 30.0795 148.972 29.0625 150.199 28.3636C151.426 27.6591 152.807 27.3068 154.341 27.3068C155.352 27.3068 156.29 27.4489 157.153 27.733C158.023 28.017 158.793 28.4318 159.463 28.9773C160.134 29.517 160.679 30.179 161.099 30.9631C161.526 31.7472 161.798 32.6449 161.918 33.6562ZM167.244 45H163.29L169.315 27.5455H174.071L180.088 45H176.134L171.761 31.5341H171.625L167.244 45ZM166.997 38.1392H176.338V41.0199H166.997V38.1392ZM196.788 27.5455V45H193.601L186.007 34.0142H185.879V45H182.189V27.5455H185.428L192.962 38.5227H193.115V27.5455H196.788ZM215.238 33.6562H211.505C211.437 33.1733 211.298 32.7443 211.087 32.3693C210.877 31.9886 210.607 31.6648 210.278 31.3977C209.948 31.1307 209.567 30.9261 209.136 30.7841C208.71 30.642 208.246 30.571 207.746 30.571C206.843 30.571 206.056 30.7955 205.386 31.2443C204.715 31.6875 204.195 32.3352 203.826 33.1875C203.457 34.0341 203.272 35.0625 203.272 36.2727C203.272 37.517 203.457 38.5625 203.826 39.4091C204.201 40.2557 204.724 40.8949 205.394 41.3267C206.065 41.7585 206.84 41.9744 207.721 41.9744C208.215 41.9744 208.673 41.9091 209.093 41.7784C209.519 41.6477 209.897 41.4574 210.227 41.2074C210.556 40.9517 210.829 40.642 211.045 40.2784C211.266 39.9148 211.42 39.5 211.505 39.0341L215.238 39.0511C215.141 39.8523 214.9 40.625 214.513 41.3693C214.133 42.108 213.619 42.7699 212.971 43.3551C212.329 43.9347 211.562 44.3949 210.67 44.7358C209.783 45.071 208.781 45.2386 207.661 45.2386C206.104 45.2386 204.712 44.8864 203.485 44.1818C202.263 43.4773 201.298 42.4574 200.587 41.1222C199.883 39.7869 199.531 38.1705 199.531 36.2727C199.531 34.3693 199.888 32.75 200.604 31.4148C201.32 30.0795 202.292 29.0625 203.519 28.3636C204.746 27.6591 206.127 27.3068 207.661 27.3068C208.673 27.3068 209.61 27.4489 210.474 27.733C211.343 28.017 212.113 28.4318 212.783 28.9773C213.454 29.517 213.999 30.179 214.42 30.9631C214.846 31.7472 215.119 32.6449 215.238 33.6562ZM217.884 45V27.5455H229.646V30.5881H221.575V34.7472H229.04V37.7898H221.575V41.9574H229.68V45H217.884ZM232.58 45V27.5455H236.27V41.9574H243.753V45H232.58Z" fill="white"/>
<path d="M328.716 59V65.5172L324.938 69.2265H318" stroke="#6781A2" stroke-width="3" stroke-miterlimit="10"/>
<path d="M328.716 12.374V5.85686L324.938 2.14748H318" stroke="#6781A2" stroke-width="3" stroke-miterlimit="10"/>
<path d="M12.7165 69.5216H6.07913L2.30078 65.8119V59" stroke="#6781A2" stroke-width="3" stroke-miterlimit="10"/>
<path d="M12.7165 1.99989H6.07913L2.30078 5.70962V12.5215" stroke="#6781A2" stroke-width="3" stroke-miterlimit="10"/>
</svg>
