<svg width="330" height="72" viewBox="0 0 330 72" fill="none" xmlns="http://www.w3.org/2000/svg">
<path opacity="0.6" d="M319.827 70H9.17394L1 66.3045V5.69551L9.17394 2H319.827L328 5.69551V66.3045L319.827 70Z" fill="#0059BB"/>
<path d="M131.182 25L108.369 47.8123L98 37.4431" stroke="white" stroke-width="3.11078" stroke-linecap="round" stroke-linejoin="round"/>
<path d="M177.167 32.5653C177.099 31.8778 176.807 31.3437 176.29 30.9631C175.773 30.5824 175.071 30.392 174.184 30.392C173.582 30.392 173.074 30.4773 172.659 30.6477C172.244 30.8125 171.926 31.0426 171.704 31.3381C171.488 31.6335 171.381 31.9688 171.381 32.3438C171.369 32.6562 171.434 32.929 171.577 33.1619C171.724 33.3949 171.926 33.5966 172.182 33.767C172.437 33.9318 172.733 34.0767 173.068 34.2017C173.403 34.321 173.761 34.4233 174.142 34.5085L175.71 34.8835C176.471 35.054 177.17 35.2812 177.807 35.5653C178.443 35.8494 178.994 36.1989 179.46 36.6136C179.926 37.0284 180.287 37.517 180.542 38.0795C180.804 38.642 180.937 39.2869 180.943 40.0142C180.937 41.0824 180.665 42.0085 180.125 42.7926C179.591 43.571 178.818 44.1761 177.807 44.608C176.801 45.0341 175.588 45.2472 174.167 45.2472C172.758 45.2472 171.531 45.0312 170.486 44.5994C169.446 44.1676 168.633 43.5284 168.048 42.6818C167.469 41.8295 167.165 40.7756 167.136 39.5199H170.707C170.747 40.1051 170.915 40.5937 171.21 40.9858C171.511 41.3722 171.912 41.6648 172.412 41.8636C172.917 42.0568 173.488 42.1534 174.125 42.1534C174.75 42.1534 175.292 42.0625 175.753 41.8807C176.219 41.6989 176.579 41.446 176.835 41.1222C177.091 40.7983 177.219 40.4261 177.219 40.0057C177.219 39.6136 177.102 39.2841 176.869 39.017C176.642 38.75 176.307 38.5227 175.863 38.3352C175.426 38.1477 174.889 37.9773 174.253 37.8239L172.352 37.3466C170.881 36.9886 169.719 36.429 168.866 35.6676C168.014 34.9062 167.591 33.8807 167.596 32.5909C167.591 31.5341 167.872 30.6108 168.44 29.821C169.014 29.0312 169.801 28.4148 170.801 27.9716C171.801 27.5284 172.937 27.3068 174.21 27.3068C175.506 27.3068 176.636 27.5284 177.602 27.9716C178.574 28.4148 179.329 29.0312 179.869 29.821C180.409 30.6108 180.687 31.5256 180.704 32.5653H177.167ZM186.035 45H182.081L188.106 27.5455H192.862L198.879 45H194.925L190.552 31.5341H190.416L186.035 45ZM185.788 38.1392H195.129V41.0199H185.788V38.1392ZM201.954 27.5455L206.172 40.8068H206.334L210.562 27.5455H214.653L208.635 45H203.88L197.854 27.5455H201.954ZM216.753 45V27.5455H228.515V30.5881H220.444V34.7472H227.91V37.7898H220.444V41.9574H228.549V45H216.753Z" fill="white"/>
<path d="M328.132 59V65.5172L324.354 69.2265H317.416" stroke="#0D5FBC" stroke-width="3" stroke-miterlimit="10"/>
<path d="M328.132 12.374V5.85686L324.354 2.14748H317.416" stroke="#0D5FBC" stroke-width="3" stroke-miterlimit="10"/>
<path d="M12.4157 69.5216H5.77835L2 65.8119V59" stroke="#0D5FBC" stroke-width="3" stroke-miterlimit="10"/>
<path d="M12.4157 1.99989H5.77835L2 5.70962V12.5215" stroke="#0D5FBC" stroke-width="3" stroke-miterlimit="10"/>
</svg>
