<svg width="45" height="23" viewBox="0 0 45 23" fill="none" xmlns="http://www.w3.org/2000/svg">
<rect x="0.5" y="0.929688" width="44" height="21" rx="2.15634" fill="#00FFF0"/>
<rect x="0.5" y="0.929688" width="44" height="21" rx="2.15634" stroke="#00FFF0"/>
<path d="M7.80417 16.4297V5.80433H12.1934C12.9889 5.80433 13.6754 5.94787 14.2531 6.23494C14.8341 6.51856 15.282 6.9267 15.5968 7.45935C15.9115 7.98854 16.0689 8.61631 16.0689 9.34265C16.0689 10.0794 15.9081 10.7054 15.5864 11.2208C15.2647 11.7327 14.8082 12.1235 14.2167 12.3933C13.6253 12.6596 12.9249 12.7928 12.1155 12.7928H9.33986V10.7694H11.6382C12.0256 10.7694 12.349 10.7192 12.6084 10.6189C12.8713 10.5152 13.0702 10.3595 13.205 10.152C13.3399 9.94102 13.4074 9.67124 13.4074 9.34265C13.4074 9.01407 13.3399 8.74256 13.205 8.52811C13.0702 8.31021 12.8713 8.14765 12.6084 8.04043C12.3455 7.92974 12.0221 7.8744 11.6382 7.8744H10.3723V16.4297H7.80417ZM13.7861 11.5736L16.4321 16.4297H13.6305L11.0364 11.5736H13.7861ZM23.9056 5.80433H26.4686V12.6579C26.4686 13.45 26.2801 14.14 25.9031 14.728C25.5261 15.3125 25.0003 15.7656 24.3259 16.0873C23.6514 16.4055 22.868 16.5646 21.9756 16.5646C21.0729 16.5646 20.2843 16.4055 19.6098 16.0873C18.9354 15.7656 18.4114 15.3125 18.0378 14.728C17.6643 14.14 17.4775 13.45 17.4775 12.6579V5.80433H20.0456V12.4348C20.0456 12.8014 20.1252 13.1283 20.2843 13.4154C20.4469 13.7024 20.6734 13.9273 20.9639 14.0898C21.2545 14.2524 21.5917 14.3337 21.9756 14.3337C22.3596 14.3337 22.6951 14.2524 22.9821 14.0898C23.2727 13.9273 23.4992 13.7024 23.6618 13.4154C23.8244 13.1283 23.9056 12.8014 23.9056 12.4348V5.80433ZM37.1212 5.80433V16.4297H34.9422L30.7138 10.2973H30.6464V16.4297H28.0782V5.80433H30.2884L34.47 11.9264H34.5582V5.80433H37.1212Z" fill="#083363"/>
</svg>
