<svg width="487" height="31" viewBox="0 0 487 31" fill="none" xmlns="http://www.w3.org/2000/svg">
<path d="M9.744 25.24C8.672 25.24 7.68 25.12 6.768 24.88C5.856 24.64 5.024 24.28 4.272 23.8C3.52 23.32 2.848 22.712 2.256 21.976L3.936 19.864C4.864 20.968 5.784 21.752 6.696 22.216C7.624 22.68 8.68 22.912 9.864 22.912C10.6 22.912 11.288 22.816 11.928 22.624C12.584 22.416 13.112 22.128 13.512 21.76C13.928 21.376 14.136 20.92 14.136 20.392C14.136 20.04 14.032 19.736 13.824 19.48C13.632 19.224 13.368 19.008 13.032 18.832C12.712 18.64 12.336 18.48 11.904 18.352C11.488 18.224 11.056 18.12 10.608 18.04C10.16 17.944 9.72 17.864 9.288 17.8C8.312 17.64 7.44 17.432 6.672 17.176C5.904 16.904 5.248 16.568 4.704 16.168C4.176 15.752 3.776 15.272 3.504 14.728C3.232 14.168 3.096 13.528 3.096 12.808C3.096 12.072 3.264 11.408 3.6 10.816C3.936 10.208 4.408 9.696 5.016 9.28C5.624 8.848 6.336 8.52 7.152 8.296C7.968 8.072 8.856 7.96 9.816 7.96C10.824 7.96 11.744 8.072 12.576 8.296C13.408 8.52 14.152 8.856 14.808 9.304C15.464 9.736 16.008 10.272 16.44 10.912L14.664 12.76C14.28 12.232 13.832 11.784 13.32 11.416C12.808 11.048 12.248 10.768 11.64 10.576C11.048 10.384 10.416 10.288 9.744 10.288C8.976 10.288 8.296 10.384 7.704 10.576C7.128 10.768 6.664 11.04 6.312 11.392C5.976 11.728 5.808 12.136 5.808 12.616C5.808 13 5.904 13.344 6.096 13.648C6.304 13.936 6.592 14.184 6.96 14.392C7.328 14.6 7.784 14.776 8.328 14.92C8.872 15.064 9.496 15.192 10.2 15.304C11.128 15.448 11.992 15.64 12.792 15.88C13.608 16.104 14.32 16.392 14.928 16.744C15.536 17.096 16.008 17.528 16.344 18.04C16.68 18.552 16.848 19.176 16.848 19.912C16.848 20.984 16.552 21.92 15.96 22.72C15.384 23.52 14.568 24.144 13.512 24.592C12.456 25.024 11.2 25.24 9.744 25.24ZM30.3324 25.24C29.0684 25.24 27.8924 25.04 26.8044 24.64C25.7164 24.224 24.7644 23.632 23.9484 22.864C23.1324 22.096 22.5004 21.184 22.0524 20.128C21.6044 19.056 21.3804 17.88 21.3804 16.6C21.3804 15.384 21.6204 14.256 22.1004 13.216C22.5804 12.176 23.2364 11.272 24.0684 10.504C24.9004 9.72 25.8604 9.12 26.9484 8.704C28.0364 8.272 29.1964 8.056 30.4284 8.056C31.3884 8.056 32.3164 8.192 33.2124 8.464C34.1244 8.72 34.9404 9.064 35.6604 9.496C36.3964 9.928 36.9884 10.4 37.4364 10.912L35.8044 12.928C35.2764 12.448 34.7244 12.04 34.1484 11.704C33.5724 11.352 32.9644 11.088 32.3244 10.912C31.6844 10.72 31.0044 10.624 30.2844 10.624C29.4684 10.624 28.6844 10.768 27.9324 11.056C27.1804 11.344 26.5084 11.752 25.9164 12.28C25.3404 12.792 24.8764 13.416 24.5244 14.152C24.1884 14.888 24.0204 15.704 24.0204 16.6C24.0204 17.56 24.1884 18.416 24.5244 19.168C24.8764 19.92 25.3564 20.56 25.9644 21.088C26.5884 21.6 27.2924 21.992 28.0764 22.264C28.8764 22.536 29.7244 22.672 30.6204 22.672C31.4044 22.672 32.1164 22.576 32.7564 22.384C33.3964 22.176 33.9804 21.912 34.5084 21.592C35.0364 21.256 35.5164 20.912 35.9484 20.56L37.2204 22.696C36.8044 23.096 36.2364 23.496 35.5164 23.896C34.8124 24.28 34.0124 24.6 33.1164 24.856C32.2364 25.112 31.3084 25.24 30.3324 25.24ZM41.0042 25L48.4442 8.2H51.3002L58.7162 25H55.9082L51.0602 14.056C50.9482 13.848 50.8202 13.568 50.6762 13.216C50.5482 12.864 50.4042 12.496 50.2442 12.112C50.1002 11.712 49.9562 11.328 49.8122 10.96C49.6842 10.576 49.5722 10.248 49.4762 9.976L50.1482 9.952C50.0202 10.288 49.8842 10.64 49.7402 11.008C49.6122 11.376 49.4762 11.752 49.3322 12.136C49.1882 12.504 49.0442 12.864 48.9002 13.216C48.7562 13.552 48.6202 13.864 48.4922 14.152L43.6922 25H41.0042ZM44.2682 20.968L45.2522 18.472H54.2042L54.9242 20.968H44.2682ZM63.7144 25V8.2H66.1864L78.3304 21.952L78.0904 22.168C78.0104 21.72 77.9464 21.24 77.8984 20.728C77.8504 20.216 77.8024 19.68 77.7544 19.12C77.7224 18.544 77.6904 17.96 77.6584 17.368C77.6424 16.76 77.6264 16.152 77.6104 15.544C77.6104 14.936 77.6104 14.328 77.6104 13.72V8.2H80.2024V25H77.6824L65.7064 11.752L65.8264 11.416C65.8744 12.008 65.9224 12.568 65.9704 13.096C66.0184 13.608 66.0584 14.104 66.0904 14.584C66.1384 15.048 66.1784 15.48 66.2104 15.88C66.2424 16.28 66.2664 16.664 66.2824 17.032C66.2984 17.384 66.3064 17.712 66.3064 18.016V25H63.7144ZM87.1519 25V8.2H89.6239L101.768 21.952L101.528 22.168C101.448 21.72 101.384 21.24 101.336 20.728C101.288 20.216 101.24 19.68 101.192 19.12C101.16 18.544 101.128 17.96 101.096 17.368C101.08 16.76 101.064 16.152 101.048 15.544C101.048 14.936 101.048 14.328 101.048 13.72V8.2H103.64V25H101.12L89.1439 11.752L89.2639 11.416C89.3119 12.008 89.3599 12.568 89.4079 13.096C89.4559 13.608 89.4959 14.104 89.5279 14.584C89.5759 15.048 89.6159 15.48 89.6479 15.88C89.6799 16.28 89.7039 16.664 89.7199 17.032C89.7359 17.384 89.7439 17.712 89.7439 18.016V25H87.1519ZM110.421 25V22.504H114.069V10.696H110.421V8.2H120.309V10.696H116.661V22.504H120.309V25H110.421ZM127.136 25V8.2H129.608L141.752 21.952L141.512 22.168C141.432 21.72 141.368 21.24 141.32 20.728C141.272 20.216 141.224 19.68 141.176 19.12C141.144 18.544 141.112 17.96 141.08 17.368C141.064 16.76 141.048 16.152 141.032 15.544C141.032 14.936 141.032 14.328 141.032 13.72V8.2H143.624V25H141.104L129.128 11.752L129.248 11.416C129.296 12.008 129.344 12.568 129.392 13.096C129.44 13.608 129.48 14.104 129.512 14.584C129.56 15.048 129.6 15.48 129.632 15.88C129.664 16.28 129.688 16.664 129.704 17.032C129.72 17.384 129.728 17.712 129.728 18.016V25H127.136ZM158.734 25.24C157.47 25.24 156.262 25.04 155.11 24.64C153.974 24.24 152.974 23.672 152.11 22.936C151.246 22.184 150.566 21.272 150.07 20.2C149.574 19.128 149.326 17.928 149.326 16.6C149.326 15.4 149.566 14.28 150.046 13.24C150.542 12.2 151.23 11.296 152.11 10.528C152.99 9.744 154.014 9.136 155.182 8.704C156.35 8.272 157.606 8.056 158.95 8.056C160.006 8.056 160.998 8.184 161.926 8.44C162.87 8.696 163.702 9.04 164.422 9.472C165.158 9.904 165.742 10.384 166.174 10.912L164.494 12.736C163.966 12.288 163.406 11.904 162.814 11.584C162.222 11.264 161.598 11.016 160.942 10.84C160.302 10.664 159.638 10.576 158.95 10.576C157.974 10.576 157.062 10.728 156.214 11.032C155.382 11.336 154.646 11.76 154.006 12.304C153.382 12.848 152.894 13.488 152.542 14.224C152.206 14.944 152.038 15.736 152.038 16.6C152.038 17.56 152.222 18.424 152.59 19.192C152.958 19.944 153.462 20.584 154.102 21.112C154.742 21.64 155.47 22.04 156.286 22.312C157.118 22.584 157.99 22.72 158.902 22.72C159.718 22.72 160.486 22.632 161.206 22.456C161.942 22.264 162.582 22 163.126 21.664C163.67 21.312 164.094 20.912 164.398 20.464C164.702 20.016 164.846 19.528 164.83 19L164.806 18.616L165.19 19.048H158.902V16.528H167.542C167.574 16.736 167.598 16.92 167.614 17.08C167.63 17.224 167.638 17.352 167.638 17.464C167.654 17.576 167.662 17.68 167.662 17.776C167.662 18.96 167.438 20.016 166.99 20.944C166.558 21.872 165.942 22.656 165.142 23.296C164.342 23.92 163.398 24.4 162.31 24.736C161.238 25.072 160.046 25.24 158.734 25.24ZM182.515 25V22.504H186.163V10.696H182.515V8.2H192.403V10.696H188.755V22.504H192.403V25H182.515ZM199.23 25V8.2H201.702L213.846 21.952L213.606 22.168C213.526 21.72 213.462 21.24 213.414 20.728C213.366 20.216 213.318 19.68 213.27 19.12C213.238 18.544 213.206 17.96 213.174 17.368C213.158 16.76 213.142 16.152 213.126 15.544C213.126 14.936 213.126 14.328 213.126 13.72V8.2H215.718V25H213.198L201.222 11.752L201.342 11.416C201.39 12.008 201.438 12.568 201.486 13.096C201.534 13.608 201.574 14.104 201.606 14.584C201.654 15.048 201.694 15.48 201.726 15.88C201.758 16.28 201.782 16.664 201.798 17.032C201.814 17.384 201.822 17.712 201.822 18.016V25H199.23ZM232.136 25V8.2H240.632C241.592 8.2 242.464 8.432 243.248 8.896C244.048 9.344 244.68 9.96 245.144 10.744C245.624 11.528 245.864 12.4 245.864 13.36C245.864 14.352 245.616 15.248 245.12 16.048C244.624 16.848 243.96 17.496 243.128 17.992C242.296 18.472 241.376 18.712 240.368 18.712H234.728V25H232.136ZM234.728 16.216H240.224C240.752 16.216 241.24 16.088 241.688 15.832C242.136 15.56 242.488 15.208 242.744 14.776C243.016 14.344 243.152 13.872 243.152 13.36C243.152 12.864 243.016 12.416 242.744 12.016C242.488 11.616 242.136 11.296 241.688 11.056C241.24 10.816 240.752 10.696 240.224 10.696H234.728V16.216ZM251.66 25V8.2H260.3C261.276 8.2 262.172 8.432 262.988 8.896C263.804 9.36 264.46 9.992 264.956 10.792C265.452 11.576 265.7 12.464 265.7 13.456C265.7 14.416 265.436 15.304 264.908 16.12C264.396 16.92 263.708 17.56 262.844 18.04C261.996 18.52 261.06 18.76 260.036 18.76H254.252V25H251.66ZM263.348 25L258.26 17.416L260.972 16.816L266.54 25.024L263.348 25ZM254.252 16.264H260.012C260.556 16.264 261.052 16.136 261.5 15.88C261.948 15.624 262.308 15.28 262.58 14.848C262.852 14.416 262.988 13.944 262.988 13.432C262.988 12.904 262.836 12.44 262.532 12.04C262.244 11.624 261.852 11.296 261.356 11.056C260.86 10.816 260.308 10.696 259.7 10.696H254.252V16.264ZM280.395 25.24C279.051 25.24 277.811 25.024 276.675 24.592C275.555 24.144 274.571 23.528 273.723 22.744C272.891 21.96 272.243 21.048 271.779 20.008C271.331 18.952 271.107 17.816 271.107 16.6C271.107 15.384 271.331 14.256 271.779 13.216C272.243 12.16 272.891 11.24 273.723 10.456C274.571 9.672 275.555 9.064 276.675 8.632C277.811 8.184 279.051 7.96 280.395 7.96C281.755 7.96 282.995 8.176 284.115 8.608C285.251 9.04 286.235 9.656 287.067 10.456C287.915 11.24 288.563 12.16 289.011 13.216C289.475 14.256 289.707 15.384 289.707 16.6C289.707 17.816 289.475 18.952 289.011 20.008C288.563 21.048 287.915 21.968 287.067 22.768C286.235 23.552 285.251 24.16 284.115 24.592C282.995 25.024 281.755 25.24 280.395 25.24ZM280.419 22.72C281.395 22.72 282.283 22.568 283.083 22.264C283.899 21.944 284.603 21.512 285.195 20.968C285.787 20.408 286.243 19.76 286.563 19.024C286.899 18.272 287.067 17.464 287.067 16.6C287.067 15.736 286.899 14.936 286.563 14.2C286.243 13.448 285.787 12.8 285.195 12.256C284.603 11.696 283.899 11.264 283.083 10.96C282.267 10.64 281.379 10.48 280.419 10.48C279.443 10.48 278.547 10.64 277.731 10.96C276.915 11.264 276.203 11.688 275.595 12.232C275.003 12.776 274.547 13.424 274.227 14.176C273.907 14.912 273.747 15.72 273.747 16.6C273.747 17.464 273.907 18.272 274.227 19.024C274.547 19.776 275.003 20.424 275.595 20.968C276.203 21.512 276.915 21.944 277.731 22.264C278.547 22.568 279.443 22.72 280.419 22.72ZM303.578 25.24C302.314 25.24 301.106 25.04 299.954 24.64C298.818 24.24 297.818 23.672 296.954 22.936C296.09 22.184 295.41 21.272 294.914 20.2C294.418 19.128 294.17 17.928 294.17 16.6C294.17 15.4 294.41 14.28 294.89 13.24C295.386 12.2 296.074 11.296 296.954 10.528C297.834 9.744 298.858 9.136 300.026 8.704C301.194 8.272 302.45 8.056 303.794 8.056C304.85 8.056 305.842 8.184 306.77 8.44C307.714 8.696 308.546 9.04 309.266 9.472C310.002 9.904 310.586 10.384 311.018 10.912L309.338 12.736C308.81 12.288 308.25 11.904 307.658 11.584C307.066 11.264 306.442 11.016 305.786 10.84C305.146 10.664 304.482 10.576 303.794 10.576C302.818 10.576 301.906 10.728 301.058 11.032C300.226 11.336 299.49 11.76 298.85 12.304C298.226 12.848 297.738 13.488 297.386 14.224C297.05 14.944 296.882 15.736 296.882 16.6C296.882 17.56 297.066 18.424 297.434 19.192C297.802 19.944 298.306 20.584 298.946 21.112C299.586 21.64 300.314 22.04 301.13 22.312C301.962 22.584 302.834 22.72 303.746 22.72C304.562 22.72 305.33 22.632 306.049 22.456C306.786 22.264 307.426 22 307.97 21.664C308.514 21.312 308.938 20.912 309.242 20.464C309.546 20.016 309.69 19.528 309.674 19L309.65 18.616L310.034 19.048H303.746V16.528H312.386C312.418 16.736 312.442 16.92 312.458 17.08C312.474 17.224 312.482 17.352 312.482 17.464C312.498 17.576 312.506 17.68 312.506 17.776C312.506 18.96 312.282 20.016 311.834 20.944C311.402 21.872 310.786 22.656 309.986 23.296C309.186 23.92 308.242 24.4 307.154 24.736C306.082 25.072 304.89 25.24 303.578 25.24ZM318.058 25V8.2H326.698C327.674 8.2 328.57 8.432 329.386 8.896C330.202 9.36 330.858 9.992 331.354 10.792C331.85 11.576 332.098 12.464 332.098 13.456C332.098 14.416 331.834 15.304 331.306 16.12C330.794 16.92 330.106 17.56 329.242 18.04C328.394 18.52 327.458 18.76 326.434 18.76H320.65V25H318.058ZM329.746 25L324.658 17.416L327.37 16.816L332.938 25.024L329.746 25ZM320.65 16.264H326.41C326.954 16.264 327.45 16.136 327.898 15.88C328.346 15.624 328.706 15.28 328.978 14.848C329.25 14.416 329.386 13.944 329.386 13.432C329.386 12.904 329.234 12.44 328.93 12.04C328.642 11.624 328.25 11.296 327.754 11.056C327.258 10.816 326.706 10.696 326.098 10.696H320.65V16.264ZM338.988 25V8.2H351.444V10.696H341.58V22.504H351.444V25H338.988ZM340.308 17.632V15.136H350.124V17.632H340.308ZM364.142 25.24C363.07 25.24 362.078 25.12 361.166 24.88C360.254 24.64 359.422 24.28 358.67 23.8C357.918 23.32 357.246 22.712 356.654 21.976L358.334 19.864C359.262 20.968 360.182 21.752 361.094 22.216C362.022 22.68 363.078 22.912 364.262 22.912C364.998 22.912 365.686 22.816 366.326 22.624C366.982 22.416 367.51 22.128 367.91 21.76C368.326 21.376 368.534 20.92 368.534 20.392C368.534 20.04 368.43 19.736 368.222 19.48C368.03 19.224 367.766 19.008 367.43 18.832C367.11 18.64 366.734 18.48 366.302 18.352C365.886 18.224 365.454 18.12 365.006 18.04C364.558 17.944 364.118 17.864 363.686 17.8C362.71 17.64 361.838 17.432 361.07 17.176C360.302 16.904 359.646 16.568 359.102 16.168C358.574 15.752 358.174 15.272 357.902 14.728C357.63 14.168 357.494 13.528 357.494 12.808C357.494 12.072 357.662 11.408 357.998 10.816C358.334 10.208 358.806 9.696 359.414 9.28C360.022 8.848 360.734 8.52 361.55 8.296C362.366 8.072 363.254 7.96 364.214 7.96C365.222 7.96 366.142 8.072 366.974 8.296C367.806 8.52 368.55 8.856 369.206 9.304C369.862 9.736 370.406 10.272 370.838 10.912L369.062 12.76C368.678 12.232 368.23 11.784 367.718 11.416C367.206 11.048 366.646 10.768 366.038 10.576C365.446 10.384 364.814 10.288 364.142 10.288C363.374 10.288 362.694 10.384 362.102 10.576C361.526 10.768 361.062 11.04 360.71 11.392C360.374 11.728 360.206 12.136 360.206 12.616C360.206 13 360.302 13.344 360.494 13.648C360.702 13.936 360.99 14.184 361.358 14.392C361.726 14.6 362.182 14.776 362.726 14.92C363.27 15.064 363.894 15.192 364.598 15.304C365.526 15.448 366.39 15.64 367.19 15.88C368.006 16.104 368.718 16.392 369.326 16.744C369.934 17.096 370.406 17.528 370.742 18.04C371.078 18.552 371.246 19.176 371.246 19.912C371.246 20.984 370.95 21.92 370.358 22.72C369.782 23.52 368.966 24.144 367.91 24.592C366.854 25.024 365.598 25.24 364.142 25.24ZM383.291 25.24C382.219 25.24 381.227 25.12 380.315 24.88C379.403 24.64 378.571 24.28 377.819 23.8C377.067 23.32 376.395 22.712 375.803 21.976L377.483 19.864C378.411 20.968 379.331 21.752 380.243 22.216C381.171 22.68 382.227 22.912 383.411 22.912C384.147 22.912 384.835 22.816 385.475 22.624C386.131 22.416 386.659 22.128 387.059 21.76C387.475 21.376 387.683 20.92 387.683 20.392C387.683 20.04 387.579 19.736 387.371 19.48C387.179 19.224 386.915 19.008 386.579 18.832C386.259 18.64 385.883 18.48 385.451 18.352C385.035 18.224 384.603 18.12 384.155 18.04C383.707 17.944 383.267 17.864 382.835 17.8C381.859 17.64 380.987 17.432 380.219 17.176C379.451 16.904 378.795 16.568 378.251 16.168C377.723 15.752 377.323 15.272 377.051 14.728C376.779 14.168 376.643 13.528 376.643 12.808C376.643 12.072 376.811 11.408 377.147 10.816C377.483 10.208 377.955 9.696 378.563 9.28C379.171 8.848 379.883 8.52 380.699 8.296C381.515 8.072 382.403 7.96 383.363 7.96C384.371 7.96 385.291 8.072 386.123 8.296C386.955 8.52 387.699 8.856 388.355 9.304C389.011 9.736 389.555 10.272 389.987 10.912L388.211 12.76C387.827 12.232 387.379 11.784 386.867 11.416C386.355 11.048 385.795 10.768 385.187 10.576C384.595 10.384 383.963 10.288 383.291 10.288C382.523 10.288 381.843 10.384 381.251 10.576C380.675 10.768 380.211 11.04 379.859 11.392C379.523 11.728 379.355 12.136 379.355 12.616C379.355 13 379.451 13.344 379.643 13.648C379.851 13.936 380.139 14.184 380.507 14.392C380.875 14.6 381.331 14.776 381.875 14.92C382.419 15.064 383.043 15.192 383.747 15.304C384.675 15.448 385.539 15.64 386.339 15.88C387.155 16.104 387.867 16.392 388.475 16.744C389.083 17.096 389.555 17.528 389.891 18.04C390.227 18.552 390.395 19.176 390.395 19.912C390.395 20.984 390.099 21.92 389.507 22.72C388.931 23.52 388.115 24.144 387.059 24.592C386.003 25.024 384.747 25.24 383.291 25.24ZM397.591 25.264C396.871 25.264 396.335 25.104 395.983 24.784C395.631 24.464 395.455 24.024 395.455 23.464C395.455 22.984 395.631 22.568 395.983 22.216C396.351 21.848 396.887 21.664 397.591 21.664C398.295 21.664 398.823 21.824 399.175 22.144C399.527 22.464 399.703 22.904 399.703 23.464C399.703 23.944 399.519 24.368 399.151 24.736C398.799 25.088 398.279 25.264 397.591 25.264ZM407.365 25.264C406.645 25.264 406.109 25.104 405.757 24.784C405.405 24.464 405.229 24.024 405.229 23.464C405.229 22.984 405.405 22.568 405.757 22.216C406.125 21.848 406.661 21.664 407.365 21.664C408.069 21.664 408.597 21.824 408.949 22.144C409.301 22.464 409.477 22.904 409.477 23.464C409.477 23.944 409.293 24.368 408.925 24.736C408.573 25.088 408.053 25.264 407.365 25.264Z" fill="white"/>
<path d="M460.426 1C454.525 6.90125 454.525 16.5115 460.426 22.4128L462.567 20.2715C457.823 15.5274 457.823 7.88536 462.567 3.14128L460.426 1ZM481.839 1L479.697 3.14128C484.442 7.88536 484.442 15.5274 479.697 20.2715L481.839 22.4128C487.74 16.5115 487.74 6.90125 481.839 1ZM464.708 5.28255C461.173 8.81834 461.173 14.5944 464.708 18.1302L466.85 15.9889C464.471 13.61 464.471 9.80279 466.85 7.42383L464.708 5.28255ZM477.556 5.28255L475.415 7.42383C477.794 9.80279 477.794 13.61 475.415 15.9889L477.556 18.1302C481.092 14.5944 481.092 8.81834 477.556 5.28255ZM471.132 8.67784C470.329 8.67784 469.559 8.99691 468.991 9.56488C468.423 10.1328 468.104 10.9032 468.104 11.7064C468.104 12.2376 468.244 12.7594 468.51 13.2193C468.776 13.6792 469.158 14.0612 469.618 14.3268V29.8777H472.647V14.3238C473.106 14.0585 473.488 13.677 473.754 13.2176C474.02 12.7582 474.16 12.2371 474.161 11.7064C474.161 10.9032 473.842 10.1328 473.274 9.56488C472.706 8.99691 471.936 8.67784 471.132 8.67784Z" fill="white"/>
<path d="M433.644 0C430.15 0 426.658 1.33029 424 3.9881L425.929 5.91688C430.202 1.64359 437.086 1.64359 441.359 5.91688L443.288 3.9881C440.63 1.33029 437.137 0 433.644 0ZM433.644 5.52526C431.564 5.52526 429.484 6.31468 427.906 7.89361L429.834 9.8224C431.95 7.70703 435.338 7.70703 437.454 9.8224L439.382 7.89361C437.803 6.31468 435.724 5.52526 433.644 5.52526ZM424.096 7.94157V26.59C424.096 28.4723 425.624 30 427.506 30H439.782C441.664 30 443.192 28.4723 443.192 26.59V7.94157L441.311 9.8224L440.464 10.6696V23.18H426.824V10.6696L425.977 9.8224L425.929 9.77444L424.096 7.94157ZM433.644 10.912C432.943 10.9119 432.242 11.1763 431.715 11.7032L433.644 13.632L435.573 11.7032C435.046 11.1753 434.345 10.9121 433.644 10.912ZM433.644 24.3735C434.492 24.3735 435.178 25.0596 435.178 25.908C435.178 26.7564 434.492 27.4425 433.644 27.4425C432.795 27.4425 432.109 26.7564 432.109 25.908C432.109 25.0596 432.795 24.3735 433.644 24.3735Z" fill="white"/>
</svg>
