<svg width="330" height="72" viewBox="0 0 330 72" fill="none" xmlns="http://www.w3.org/2000/svg">
<path opacity="0.3" d="M319.827 70H9.17394L1 66.3045V5.69551L9.17394 2H319.827L328 5.69551V66.3045L319.827 70Z" fill="#00FFF0"/>
<path d="M130.986 32.5653C130.918 31.8778 130.625 31.3437 130.108 30.9631C129.591 30.5824 128.889 30.392 128.003 30.392C127.401 30.392 126.892 30.4773 126.477 30.6477C126.063 30.8125 125.744 31.0426 125.523 31.3381C125.307 31.6335 125.199 31.9688 125.199 32.3438C125.188 32.6562 125.253 32.929 125.395 33.1619C125.543 33.3949 125.744 33.5966 126 33.767C126.256 33.9318 126.551 34.0767 126.886 34.2017C127.222 34.321 127.58 34.4233 127.96 34.5085L129.528 34.8835C130.29 35.054 130.989 35.2812 131.625 35.5653C132.261 35.8494 132.813 36.1989 133.278 36.6136C133.744 37.0284 134.105 37.517 134.361 38.0795C134.622 38.642 134.756 39.2869 134.761 40.0142C134.756 41.0824 134.483 42.0085 133.943 42.7926C133.409 43.571 132.636 44.1761 131.625 44.608C130.619 45.0341 129.406 45.2472 127.986 45.2472C126.577 45.2472 125.349 45.0312 124.304 44.5994C123.264 44.1676 122.452 43.5284 121.866 42.6818C121.287 41.8295 120.983 40.7756 120.955 39.5199H124.526C124.565 40.1051 124.733 40.5937 125.028 40.9858C125.33 41.3722 125.73 41.6648 126.23 41.8636C126.736 42.0568 127.307 42.1534 127.943 42.1534C128.568 42.1534 129.111 42.0625 129.571 41.8807C130.037 41.6989 130.398 41.446 130.653 41.1222C130.909 40.7983 131.037 40.4261 131.037 40.0057C131.037 39.6136 130.92 39.2841 130.688 39.017C130.46 38.75 130.125 38.5227 129.682 38.3352C129.244 38.1477 128.707 37.9773 128.071 37.8239L126.17 37.3466C124.699 36.9886 123.537 36.429 122.685 35.6676C121.832 34.9062 121.409 33.8807 121.415 32.5909C121.409 31.5341 121.69 30.6108 122.259 29.821C122.832 29.0312 123.619 28.4148 124.619 27.9716C125.619 27.5284 126.756 27.3068 128.028 27.3068C129.324 27.3068 130.455 27.5284 131.42 27.9716C132.392 28.4148 133.148 29.0312 133.688 29.821C134.227 30.6108 134.506 31.5256 134.523 32.5653H130.986ZM136.579 30.5881V27.5455H150.914V30.5881H145.57V45H141.923V30.5881H136.579ZM154.151 45H150.196L156.222 27.5455H160.977L166.994 45H163.04L158.668 31.5341H158.531L154.151 45ZM153.903 38.1392H163.244V41.0199H153.903V38.1392ZM169.095 45V27.5455H175.982C177.3 27.5455 178.425 27.7812 179.357 28.2528C180.294 28.7187 181.007 29.3807 181.496 30.2386C181.99 31.0909 182.237 32.0937 182.237 33.2472C182.237 34.4062 181.987 35.4034 181.487 36.2386C180.987 37.0682 180.263 37.7045 179.314 38.1477C178.371 38.5909 177.229 38.8125 175.888 38.8125H171.277V35.8466H175.291C175.996 35.8466 176.581 35.75 177.047 35.5568C177.513 35.3636 177.859 35.0739 178.087 34.6875C178.32 34.3011 178.436 33.821 178.436 33.2472C178.436 32.6676 178.32 32.179 178.087 31.7812C177.859 31.3835 177.51 31.0824 177.038 30.8778C176.572 30.6676 175.984 30.5625 175.274 30.5625H172.786V45H169.095ZM178.521 37.0568L182.859 45H178.786L174.541 37.0568H178.521ZM184.18 30.5881V27.5455H198.516V30.5881H193.172V45H189.524V30.5881H184.18ZM209.44 45H205.485L211.511 27.5455H216.266L222.283 45H218.329L213.957 31.5341H213.82L209.44 45ZM209.192 38.1392H218.533V41.0199H209.192V38.1392ZM224.384 45V27.5455H228.075V41.9574H235.558V45H224.384ZM238.001 45V27.5455H241.692V41.9574H249.175V45H238.001Z" fill="white"/>
<path d="M79.9739 47.6797C80.5661 47.6797 81.0878 47.472 81.7363 47.0983L98.3878 37.6432C99.6003 36.9511 100.108 36.4112 100.108 35.5391C100.108 34.6669 99.6003 34.1409 98.3878 33.4349L81.7363 23.9799C81.0878 23.6061 80.5661 23.3984 79.9739 23.3984C78.8178 23.3984 78 24.2706 78 25.6411V45.4371C78 46.8214 78.8178 47.6797 79.9739 47.6797Z" fill="white"/>
<path d="M328.132 59V65.5172L324.354 69.2265H317.416" stroke="#00FFF0" stroke-width="3" stroke-miterlimit="10"/>
<path d="M328.132 12.374V5.85686L324.354 2.14748H317.416" stroke="#00FFF0" stroke-width="3" stroke-miterlimit="10"/>
<path d="M12.4157 69.5217H5.77835L2 65.812V59.0001" stroke="#00FFF0" stroke-width="3" stroke-miterlimit="10"/>
<path d="M12.4157 2H5.77835L2 5.70972V12.5216" stroke="#00FFF0" stroke-width="3" stroke-miterlimit="10"/>
</svg>
