<svg width="331" height="72" viewBox="0 0 331 72" fill="none" xmlns="http://www.w3.org/2000/svg">
<path opacity="0.3" d="M320.827 70H10.1739L2 66.3045V5.69551L10.1739 2H320.827L329 5.69551V66.3045L320.827 70Z" fill="#BD0000"/>
<path d="M90 43.8514C90 45.831 91.2689 47.0353 93.3698 47.0353H110.106C112.193 47.0353 113.476 45.831 113.476 43.8514V27.184C113.476 25.2044 112.193 24 110.106 24H93.3698C91.2689 24 90 25.2044 90 27.184V43.8514Z" fill="white"/>
<path d="M142.986 32.5653C142.918 31.8778 142.625 31.3437 142.108 30.9631C141.591 30.5824 140.889 30.392 140.003 30.392C139.401 30.392 138.892 30.4773 138.477 30.6477C138.063 30.8125 137.744 31.0426 137.523 31.3381C137.307 31.6335 137.199 31.9688 137.199 32.3438C137.188 32.6562 137.253 32.929 137.395 33.1619C137.543 33.3949 137.744 33.5966 138 33.767C138.256 33.9318 138.551 34.0767 138.886 34.2017C139.222 34.321 139.58 34.4233 139.96 34.5085L141.528 34.8835C142.29 35.054 142.989 35.2812 143.625 35.5653C144.261 35.8494 144.813 36.1989 145.278 36.6136C145.744 37.0284 146.105 37.517 146.361 38.0795C146.622 38.642 146.756 39.2869 146.761 40.0142C146.756 41.0824 146.483 42.0085 145.943 42.7926C145.409 43.571 144.636 44.1761 143.625 44.608C142.619 45.0341 141.406 45.2472 139.986 45.2472C138.577 45.2472 137.349 45.0312 136.304 44.5994C135.264 44.1676 134.452 43.5284 133.866 42.6818C133.287 41.8295 132.983 40.7756 132.955 39.5199H136.526C136.565 40.1051 136.733 40.5937 137.028 40.9858C137.33 41.3722 137.73 41.6648 138.23 41.8636C138.736 42.0568 139.307 42.1534 139.943 42.1534C140.568 42.1534 141.111 42.0625 141.571 41.8807C142.037 41.6989 142.398 41.446 142.653 41.1222C142.909 40.7983 143.037 40.4261 143.037 40.0057C143.037 39.6136 142.92 39.2841 142.688 39.017C142.46 38.75 142.125 38.5227 141.682 38.3352C141.244 38.1477 140.707 37.9773 140.071 37.8239L138.17 37.3466C136.699 36.9886 135.537 36.429 134.685 35.6676C133.832 34.9062 133.409 33.8807 133.415 32.5909C133.409 31.5341 133.69 30.6108 134.259 29.821C134.832 29.0312 135.619 28.4148 136.619 27.9716C137.619 27.5284 138.756 27.3068 140.028 27.3068C141.324 27.3068 142.455 27.5284 143.42 27.9716C144.392 28.4148 145.148 29.0312 145.688 29.821C146.227 30.6108 146.506 31.5256 146.523 32.5653H142.986ZM148.579 30.5881V27.5455H162.914V30.5881H157.57V45H153.923V30.5881H148.579ZM180.518 36.2727C180.518 38.1761 180.157 39.7955 179.435 41.1307C178.719 42.4659 177.742 43.4858 176.504 44.1903C175.271 44.8892 173.884 45.2386 172.344 45.2386C170.793 45.2386 169.401 44.8864 168.168 44.1818C166.935 43.4773 165.961 42.4574 165.245 41.1222C164.529 39.7869 164.171 38.1705 164.171 36.2727C164.171 34.3693 164.529 32.75 165.245 31.4148C165.961 30.0795 166.935 29.0625 168.168 28.3636C169.401 27.6591 170.793 27.3068 172.344 27.3068C173.884 27.3068 175.271 27.6591 176.504 28.3636C177.742 29.0625 178.719 30.0795 179.435 31.4148C180.157 32.75 180.518 34.3693 180.518 36.2727ZM176.776 36.2727C176.776 35.0398 176.592 34 176.222 33.1534C175.859 32.3068 175.344 31.6648 174.68 31.2273C174.015 30.7898 173.237 30.571 172.344 30.571C171.452 30.571 170.674 30.7898 170.009 31.2273C169.344 31.6648 168.827 32.3068 168.458 33.1534C168.094 34 167.913 35.0398 167.913 36.2727C167.913 37.5057 168.094 38.5455 168.458 39.392C168.827 40.2386 169.344 40.8807 170.009 41.3182C170.674 41.7557 171.452 41.9744 172.344 41.9744C173.237 41.9744 174.015 41.7557 174.68 41.3182C175.344 40.8807 175.859 40.2386 176.222 39.392C176.592 38.5455 176.776 37.5057 176.776 36.2727ZM183.251 45V27.5455H190.138C191.462 27.5455 192.589 27.7983 193.521 28.304C194.453 28.804 195.163 29.5 195.652 30.392C196.146 31.2784 196.393 32.3011 196.393 33.4602C196.393 34.6193 196.143 35.642 195.643 36.5284C195.143 37.4148 194.419 38.1051 193.47 38.5994C192.527 39.0937 191.385 39.3409 190.044 39.3409H185.655V36.3835H189.447C190.158 36.3835 190.743 36.2614 191.203 36.017C191.669 35.767 192.016 35.4233 192.243 34.9858C192.476 34.5426 192.592 34.0341 192.592 33.4602C192.592 32.8807 192.476 32.375 192.243 31.9432C192.016 31.5057 191.669 31.1676 191.203 30.929C190.737 30.6847 190.146 30.5625 189.43 30.5625H186.942V45H183.251ZM207.354 45H203.399L209.425 27.5455H214.18L220.197 45H216.243L211.871 31.5341H211.734L207.354 45ZM207.107 38.1392H216.447V41.0199H207.107V38.1392ZM222.298 45V27.5455H225.989V41.9574H233.472V45H222.298ZM235.915 45V27.5455H239.606V41.9574H247.089V45H235.915Z" fill="white"/>
<path d="M328.716 59V65.5172L324.938 69.2265H318" stroke="#BD0000" stroke-width="3" stroke-miterlimit="10"/>
<path d="M328.716 12.374V5.85686L324.938 2.14748H318" stroke="#BD0000" stroke-width="3" stroke-miterlimit="10"/>
<path d="M12.7165 69.5215H6.07913L2.30078 65.8118V58.9999" stroke="#BD0000" stroke-width="3" stroke-miterlimit="10"/>
<path d="M12.7165 2H6.07913L2.30078 5.70972V12.5216" stroke="#BD0000" stroke-width="3" stroke-miterlimit="10"/>
</svg>
