<svg width="456" height="99" viewBox="0 0 456 99" fill="none" xmlns="http://www.w3.org/2000/svg">
<path opacity="0.5" d="M445.5 97H10.1739L2 93.3045V5.69551L10.1739 2H445.5L453.673 5.69551V93.3045L445.5 97Z" fill="#BD0000"/>
<path d="M181.986 46.5653C181.918 45.8778 181.625 45.3437 181.108 44.9631C180.591 44.5824 179.889 44.392 179.003 44.392C178.401 44.392 177.892 44.4773 177.477 44.6477C177.063 44.8125 176.744 45.0426 176.523 45.3381C176.307 45.6335 176.199 45.9688 176.199 46.3438C176.188 46.6562 176.253 46.929 176.395 47.1619C176.543 47.3949 176.744 47.5966 177 47.767C177.256 47.9318 177.551 48.0767 177.886 48.2017C178.222 48.321 178.58 48.4233 178.96 48.5085L180.528 48.8835C181.29 49.054 181.989 49.2812 182.625 49.5653C183.261 49.8494 183.813 50.1989 184.278 50.6136C184.744 51.0284 185.105 51.517 185.361 52.0795C185.622 52.642 185.756 53.2869 185.761 54.0142C185.756 55.0824 185.483 56.0085 184.943 56.7926C184.409 57.571 183.636 58.1761 182.625 58.608C181.619 59.0341 180.406 59.2472 178.986 59.2472C177.577 59.2472 176.349 59.0312 175.304 58.5994C174.264 58.1676 173.452 57.5284 172.866 56.6818C172.287 55.8295 171.983 54.7756 171.955 53.5199H175.526C175.565 54.1051 175.733 54.5937 176.028 54.9858C176.33 55.3722 176.73 55.6648 177.23 55.8636C177.736 56.0568 178.307 56.1534 178.943 56.1534C179.568 56.1534 180.111 56.0625 180.571 55.8807C181.037 55.6989 181.398 55.446 181.653 55.1222C181.909 54.7983 182.037 54.4261 182.037 54.0057C182.037 53.6136 181.92 53.2841 181.688 53.017C181.46 52.75 181.125 52.5227 180.682 52.3352C180.244 52.1477 179.707 51.9773 179.071 51.8239L177.17 51.3466C175.699 50.9886 174.537 50.429 173.685 49.6676C172.832 48.9062 172.409 47.8807 172.415 46.5909C172.409 45.5341 172.69 44.6108 173.259 43.821C173.832 43.0312 174.619 42.4148 175.619 41.9716C176.619 41.5284 177.756 41.3068 179.028 41.3068C180.324 41.3068 181.455 41.5284 182.42 41.9716C183.392 42.4148 184.148 43.0312 184.688 43.821C185.227 44.6108 185.506 45.5256 185.523 46.5653H181.986ZM187.579 44.5881V41.5455H201.914V44.5881H196.57V59H192.923V44.5881H187.579ZM219.518 50.2727C219.518 52.1761 219.157 53.7955 218.435 55.1307C217.719 56.4659 216.742 57.4858 215.504 58.1903C214.271 58.8892 212.884 59.2386 211.344 59.2386C209.793 59.2386 208.401 58.8864 207.168 58.1818C205.935 57.4773 204.961 56.4574 204.245 55.1222C203.529 53.7869 203.171 52.1705 203.171 50.2727C203.171 48.3693 203.529 46.75 204.245 45.4148C204.961 44.0795 205.935 43.0625 207.168 42.3636C208.401 41.6591 209.793 41.3068 211.344 41.3068C212.884 41.3068 214.271 41.6591 215.504 42.3636C216.742 43.0625 217.719 44.0795 218.435 45.4148C219.157 46.75 219.518 48.3693 219.518 50.2727ZM215.776 50.2727C215.776 49.0398 215.592 48 215.222 47.1534C214.859 46.3068 214.344 45.6648 213.68 45.2273C213.015 44.7898 212.237 44.571 211.344 44.571C210.452 44.571 209.674 44.7898 209.009 45.2273C208.344 45.6648 207.827 46.3068 207.458 47.1534C207.094 48 206.913 49.0398 206.913 50.2727C206.913 51.5057 207.094 52.5455 207.458 53.392C207.827 54.2386 208.344 54.8807 209.009 55.3182C209.674 55.7557 210.452 55.9744 211.344 55.9744C212.237 55.9744 213.015 55.7557 213.68 55.3182C214.344 54.8807 214.859 54.2386 215.222 53.392C215.592 52.5455 215.776 51.5057 215.776 50.2727ZM222.251 59V41.5455H229.138C230.462 41.5455 231.589 41.7983 232.521 42.304C233.453 42.804 234.163 43.5 234.652 44.392C235.146 45.2784 235.393 46.3011 235.393 47.4602C235.393 48.6193 235.143 49.642 234.643 50.5284C234.143 51.4148 233.419 52.1051 232.47 52.5994C231.527 53.0937 230.385 53.3409 229.044 53.3409H224.655V50.3835H228.447C229.158 50.3835 229.743 50.2614 230.203 50.017C230.669 49.767 231.016 49.4233 231.243 48.9858C231.476 48.5426 231.592 48.0341 231.592 47.4602C231.592 46.8807 231.476 46.375 231.243 45.9432C231.016 45.5057 230.669 45.1676 230.203 44.929C229.737 44.6847 229.146 44.5625 228.43 44.5625H225.942V59H222.251ZM252.814 46.5653C252.746 45.8778 252.453 45.3437 251.936 44.9631C251.419 44.5824 250.717 44.392 249.831 44.392C249.229 44.392 248.72 44.4773 248.305 44.6477C247.891 44.8125 247.572 45.0426 247.351 45.3381C247.135 45.6335 247.027 45.9688 247.027 46.3438C247.016 46.6562 247.081 46.929 247.223 47.1619C247.371 47.3949 247.572 47.5966 247.828 47.767C248.084 47.9318 248.379 48.0767 248.714 48.2017C249.05 48.321 249.408 48.4233 249.788 48.5085L251.357 48.8835C252.118 49.054 252.817 49.2812 253.453 49.5653C254.089 49.8494 254.641 50.1989 255.107 50.6136C255.572 51.0284 255.933 51.517 256.189 52.0795C256.45 52.642 256.584 53.2869 256.589 54.0142C256.584 55.0824 256.311 56.0085 255.771 56.7926C255.237 57.571 254.464 58.1761 253.453 58.608C252.447 59.0341 251.234 59.2472 249.814 59.2472C248.405 59.2472 247.178 59.0312 246.132 58.5994C245.092 58.1676 244.28 57.5284 243.695 56.6818C243.115 55.8295 242.811 54.7756 242.783 53.5199H246.354C246.393 54.1051 246.561 54.5937 246.857 54.9858C247.158 55.3722 247.558 55.6648 248.058 55.8636C248.564 56.0568 249.135 56.1534 249.771 56.1534C250.396 56.1534 250.939 56.0625 251.399 55.8807C251.865 55.6989 252.226 55.446 252.482 55.1222C252.737 54.7983 252.865 54.4261 252.865 54.0057C252.865 53.6136 252.749 53.2841 252.516 53.017C252.288 52.75 251.953 52.5227 251.51 52.3352C251.072 52.1477 250.536 51.9773 249.899 51.8239L247.999 51.3466C246.527 50.9886 245.365 50.429 244.513 49.6676C243.661 48.9062 243.237 47.8807 243.243 46.5909C243.237 45.5341 243.518 44.6108 244.087 43.821C244.661 43.0312 245.447 42.4148 246.447 41.9716C247.447 41.5284 248.584 41.3068 249.857 41.3068C251.152 41.3068 252.283 41.5284 253.249 41.9716C254.22 42.4148 254.976 43.0312 255.516 43.821C256.055 44.6108 256.334 45.5256 256.351 46.5653H252.814ZM274.472 47.6562H270.739C270.671 47.1733 270.532 46.7443 270.322 46.3693C270.112 45.9886 269.842 45.6648 269.512 45.3977C269.183 45.1307 268.802 44.9261 268.37 44.7841C267.944 44.642 267.481 44.571 266.981 44.571C266.077 44.571 265.29 44.7955 264.62 45.2443C263.95 45.6875 263.43 46.3352 263.06 47.1875C262.691 48.0341 262.506 49.0625 262.506 50.2727C262.506 51.517 262.691 52.5625 263.06 53.4091C263.435 54.2557 263.958 54.8949 264.629 55.3267C265.299 55.7585 266.075 55.9744 266.955 55.9744C267.45 55.9744 267.907 55.9091 268.327 55.7784C268.754 55.6477 269.131 55.4574 269.461 55.2074C269.79 54.9517 270.063 54.642 270.279 54.2784C270.501 53.9148 270.654 53.5 270.739 53.0341L274.472 53.0511C274.376 53.8523 274.134 54.625 273.748 55.3693C273.367 56.108 272.853 56.7699 272.205 57.3551C271.563 57.9347 270.796 58.3949 269.904 58.7358C269.018 59.071 268.015 59.2386 266.896 59.2386C265.339 59.2386 263.947 58.8864 262.719 58.1818C261.498 57.4773 260.532 56.4574 259.822 55.1222C259.117 53.7869 258.765 52.1705 258.765 50.2727C258.765 48.3693 259.123 46.75 259.839 45.4148C260.555 44.0795 261.526 43.0625 262.754 42.3636C263.981 41.6591 265.362 41.3068 266.896 41.3068C267.907 41.3068 268.844 41.4489 269.708 41.733C270.577 42.017 271.347 42.4318 272.018 42.9773C272.688 43.517 273.234 44.179 273.654 44.9631C274.08 45.7472 274.353 46.6449 274.472 47.6562ZM279.799 59H275.844L281.87 41.5455H286.626L292.643 59H288.688L284.316 45.5341H284.18L279.799 59ZM279.552 52.1392H288.893V55.0199H279.552V52.1392ZM309.343 41.5455V59H306.156L298.562 48.0142H298.434V59H294.744V41.5455H297.982L305.516 52.5227H305.67V41.5455H309.343Z" fill="white"/>
<path d="M128 57.8514C128 59.831 129.246 61.0353 131.309 61.0353H147.741C149.789 61.0353 151.049 59.831 151.049 57.8514V41.184C151.049 39.2044 149.789 38 147.741 38H131.309C129.246 38 128 39.2044 128 41.184V57.8514Z" fill="white"/>
<path d="M453.716 86V92.5172L449.938 96.2265H443" stroke="#BD0000" stroke-width="3" stroke-miterlimit="10"/>
<path d="M453.716 12.374V5.85686L449.938 2.14748H443" stroke="#BD0000" stroke-width="3" stroke-miterlimit="10"/>
<path d="M12.4157 96.5218H5.77835L2 92.812V86.0002" stroke="#BD0000" stroke-width="3" stroke-miterlimit="10"/>
<path d="M12.4157 2.00008H5.77835L2 5.7098V12.5217" stroke="#BD0000" stroke-width="3" stroke-miterlimit="10"/>
</svg>
