<svg width="55" height="23" viewBox="0 0 55 23" fill="none" xmlns="http://www.w3.org/2000/svg">
<rect x="0.5" y="0.914062" width="54" height="21" rx="2.15634" fill="#C70000"/>
<rect x="0.5" y="0.914062" width="54" height="21" rx="2.15634" stroke="#8B0202"/>
<path d="M13.5475 8.97423C13.5129 8.59377 13.359 8.29804 13.0857 8.08706C12.8159 7.87261 12.4303 7.76539 11.9288 7.76539C11.5967 7.76539 11.32 7.80863 11.0986 7.8951C10.8773 7.98157 10.7113 8.10089 10.6006 8.25308C10.4899 8.40181 10.4328 8.57302 10.4294 8.76671C10.4225 8.92581 10.4536 9.06589 10.5228 9.18695C10.5954 9.30801 10.6992 9.41523 10.8341 9.50862C10.9724 9.59854 11.1384 9.6781 11.3321 9.74727C11.5258 9.81645 11.7437 9.87698 11.9858 9.92886L12.8989 10.1364C13.4247 10.2505 13.8882 10.4027 14.2894 10.5929C14.694 10.7832 15.033 11.0097 15.3063 11.2726C15.583 11.5355 15.7922 11.8381 15.934 12.1805C16.0758 12.5229 16.1485 12.9069 16.1519 13.3323C16.1485 14.0033 15.979 14.5792 15.6435 15.06C15.308 15.5407 14.8255 15.9091 14.196 16.165C13.5699 16.421 12.8142 16.549 11.9288 16.549C11.0399 16.549 10.2651 16.4158 9.60446 16.1495C8.94383 15.8831 8.4302 15.4785 8.06357 14.9354C7.69694 14.3924 7.50844 13.7058 7.49806 12.8757H9.95725C9.97801 13.2182 10.0697 13.5035 10.2322 13.7318C10.3948 13.9601 10.6179 14.133 10.9015 14.2506C11.1886 14.3682 11.5206 14.427 11.8976 14.427C12.2435 14.427 12.5375 14.3803 12.7796 14.2869C13.0252 14.1935 13.2137 14.0638 13.3451 13.8978C13.4766 13.7318 13.544 13.5415 13.5475 13.3271C13.544 13.1265 13.4817 12.9553 13.3607 12.8135C13.2396 12.6682 13.0529 12.5437 12.8004 12.4399C12.5513 12.3327 12.2331 12.2341 11.8457 12.1442L10.7355 11.8848C9.81544 11.6738 9.09083 11.3331 8.56164 10.8627C8.03244 10.3889 7.76958 9.749 7.77304 8.94311C7.76958 8.28594 7.94598 7.71005 8.30223 7.21545C8.65848 6.72084 9.15136 6.33519 9.78086 6.05849C10.4104 5.78178 11.128 5.64343 11.9339 5.64343C12.7571 5.64343 13.4714 5.78351 14.0767 6.06367C14.6854 6.34038 15.1575 6.72949 15.493 7.23101C15.8285 7.73253 15.9997 8.31361 16.0067 8.97423H13.5475ZM17.1014 7.87434V5.7887H26.0821V7.87434H22.8602V16.4141H20.3284V7.87434H17.1014ZM36.8799 11.1014C36.8799 12.2704 36.6551 13.2614 36.2055 14.0742C35.7558 14.887 35.1471 15.5044 34.3792 15.9264C33.6149 16.3483 32.7571 16.5593 31.8059 16.5593C30.8513 16.5593 29.9918 16.3466 29.2274 15.9212C28.463 15.4958 27.856 14.8784 27.4063 14.069C26.9602 13.2562 26.7371 12.267 26.7371 11.1014C26.7371 9.93232 26.9602 8.94138 27.4063 8.12856C27.856 7.31575 28.463 6.69836 29.2274 6.27639C29.9918 5.85442 30.8513 5.64343 31.8059 5.64343C32.7571 5.64343 33.6149 5.85442 34.3792 6.27639C35.1471 6.69836 35.7558 7.31575 36.2055 8.12856C36.6551 8.94138 36.8799 9.93232 36.8799 11.1014ZM34.2547 11.1014C34.2547 10.4096 34.1561 9.82509 33.959 9.34778C33.7653 8.87047 33.4851 8.50903 33.1185 8.26346C32.7553 8.01788 32.3178 7.8951 31.8059 7.8951C31.2975 7.8951 30.8599 8.01788 30.4933 8.26346C30.1267 8.50903 29.8448 8.87047 29.6476 9.34778C29.4539 9.82509 29.3571 10.4096 29.3571 11.1014C29.3571 11.7931 29.4539 12.3777 29.6476 12.855C29.8448 13.3323 30.1267 13.6937 30.4933 13.9393C30.8599 14.1849 31.2975 14.3077 31.8059 14.3077C32.3178 14.3077 32.7553 14.1849 33.1185 13.9393C33.4851 13.6937 33.7653 13.3323 33.959 12.855C34.1561 12.3777 34.2547 11.7931 34.2547 11.1014ZM38.3793 16.4141V5.7887H42.7685C43.564 5.7887 44.2506 5.94435 44.8282 6.25564C45.4093 6.56347 45.8572 6.99408 46.1719 7.54749C46.4867 8.09743 46.6441 8.73731 46.6441 9.46711C46.6441 10.2004 46.4832 10.842 46.1616 11.3919C45.8434 11.9384 45.3885 12.3621 44.7971 12.663C44.2056 12.9639 43.5035 13.1144 42.6907 13.1144H39.9825V11.091H42.2134C42.6008 11.091 42.9241 11.0236 43.1836 10.8887C43.4464 10.7538 43.6453 10.5653 43.7802 10.3232C43.9151 10.0776 43.9825 9.79224 43.9825 9.46711C43.9825 9.13853 43.9151 8.85491 43.7802 8.61625C43.6453 8.37414 43.4464 8.18736 43.1836 8.05593C42.9207 7.9245 42.5973 7.85878 42.2134 7.85878H40.9475V16.4141H38.3793Z" fill="white"/>
</svg>
