<svg width="325" height="96" viewBox="0 0 325 96" fill="none" xmlns="http://www.w3.org/2000/svg">
<path d="M323.254 75.1532L300.061 94.4309H25.9409L2.74626 75.1532V21.5332L25.9409 2.25553H300.061L323.254 21.5332V75.1532Z" fill="#0A4F9B" fill-opacity="0.1" stroke="#0A4F9B" stroke-width="1.49251"/>
<path d="M46.0067 2.402H24.8801L2 21.1354V35.4086" stroke="#0A4F9B" stroke-width="2.98502" stroke-miterlimit="10"/>
<path d="M46.0067 94.2857H24.8801L2 75.5523V61.2791" stroke="#0A4F9B" stroke-width="2.98502" stroke-miterlimit="10"/>
<path d="M278.921 2.40218H300.048L322.928 21.1356V35.4088" stroke="#0A4F9B" stroke-width="2.98502" stroke-miterlimit="10"/>
<path d="M278.921 94.2856H300.048L322.928 75.5521V61.2789" stroke="#0A4F9B" stroke-width="2.98502" stroke-miterlimit="10"/>
<path d="M81.6792 40.074L86.5129 54.2189H86.7079L91.5416 40.074H94.374L88.1241 57.4414H85.0967L78.8468 40.074H81.6792ZM106.354 44.6363C106.264 43.8336 105.891 43.2117 105.235 42.7707C104.579 42.3241 103.754 42.1008 102.759 42.1008C102.046 42.1008 101.43 42.2138 100.91 42.44C100.39 42.6605 99.9858 42.9657 99.6974 43.3558C99.4148 43.7403 99.2734 44.1784 99.2734 44.6703C99.2734 45.083 99.3695 45.4391 99.5618 45.7388C99.7596 46.0384 100.017 46.29 100.333 46.4935C100.656 46.6914 101.001 46.8581 101.368 46.9938C101.736 47.1239 102.089 47.2313 102.428 47.3161L104.124 47.757C104.678 47.8927 105.246 48.0765 105.829 48.3083C106.411 48.5401 106.951 48.8453 107.448 49.2241C107.946 49.6029 108.347 50.0721 108.653 50.6318C108.963 51.1915 109.119 51.8615 109.119 52.6416C109.119 53.6253 108.865 54.4988 108.356 55.262C107.853 56.0252 107.12 56.6273 106.159 57.0683C105.204 57.5092 104.048 57.7297 102.691 57.7297C101.391 57.7297 100.266 57.5234 99.3158 57.1107C98.366 56.698 97.6226 56.1128 97.0855 55.3553C96.5485 54.5921 96.2517 53.6875 96.1951 52.6416H98.824C98.8749 53.2692 99.0784 53.7921 99.4346 54.2105C99.7964 54.6232 100.257 54.9313 100.817 55.1348C101.382 55.3327 102.001 55.4316 102.674 55.4316C103.415 55.4316 104.073 55.3157 104.65 55.0839C105.232 54.8465 105.69 54.5186 106.024 54.1002C106.357 53.6762 106.524 53.1815 106.524 52.6162C106.524 52.1017 106.377 51.6805 106.083 51.3526C105.795 51.0247 105.402 50.7534 104.904 50.5385C104.412 50.3237 103.856 50.1343 103.234 49.9704L101.181 49.4107C99.7907 49.0319 98.6883 48.475 97.8742 47.7401C97.0658 47.0051 96.6615 46.0327 96.6615 44.8229C96.6615 43.8222 96.9329 42.9488 97.4756 42.2025C98.0184 41.4563 98.7533 40.8768 99.6805 40.4641C100.608 40.0457 101.654 39.8366 102.818 39.8366C103.994 39.8366 105.031 40.0429 105.93 40.4556C106.835 40.8683 107.547 41.4365 108.067 42.1601C108.587 42.8781 108.859 43.7035 108.881 44.6363H106.354ZM115.651 57.4414L110.834 40.074H113.59L116.974 53.5236H117.135L120.654 40.074H123.385L126.904 53.532H127.065L130.44 40.074H133.205L128.38 57.4414H125.742L122.087 44.4328H121.952L118.297 57.4414H115.651ZM135.594 57.4414V40.074H141.785C143.13 40.074 144.247 40.3058 145.134 40.7694C146.027 41.233 146.695 41.8746 147.136 42.6944C147.576 43.5085 147.797 44.4498 147.797 45.5183C147.797 46.5811 147.574 47.5168 147.127 48.3252C146.686 49.128 146.019 49.7527 145.126 50.1993C144.238 50.646 143.122 50.8693 141.776 50.8693H137.087V48.6135H141.539C142.387 48.6135 143.076 48.492 143.608 48.2489C144.145 48.0058 144.538 47.6525 144.787 47.1889C145.035 46.7253 145.16 46.1684 145.16 45.5183C145.16 44.8625 145.032 44.2943 144.778 43.8138C144.529 43.3332 144.136 42.9657 143.599 42.7113C143.068 42.4513 142.37 42.3213 141.505 42.3213H138.214V57.4414H135.594ZM144.167 49.6057L148.458 57.4414H145.473L141.267 49.6057H144.167ZM157.305 57.4414V40.074H168.194V42.3297H159.926V47.6214H167.626V49.8686H159.926V55.1857H168.296V57.4414H157.305ZM185.712 40.074V57.4414H183.303L174.476 44.7042H174.314V57.4414H171.694V40.074H174.119L182.956 52.8282H183.117V40.074H185.712ZM191.001 57.4414H188.22L194.47 40.074H197.497L203.747 57.4414H200.966L196.056 43.2286H195.92L191.001 57.4414ZM191.468 50.6403H200.491V52.8452H191.468V50.6403ZM206.255 57.4414V40.074H212.615C213.848 40.074 214.868 40.2775 215.677 40.6846C216.485 41.086 217.09 41.6315 217.491 42.3213C217.893 43.0053 218.093 43.777 218.093 44.6363C218.093 45.36 217.961 45.9706 217.695 46.4681C217.429 46.9599 217.073 47.3557 216.626 47.6553C216.185 47.9493 215.699 48.1641 215.168 48.2998V48.4694C215.744 48.4976 216.307 48.6842 216.855 49.0291C217.409 49.3683 217.867 49.8517 218.229 50.4792C218.591 51.1067 218.772 51.8699 218.772 52.7688C218.772 53.6564 218.563 54.4536 218.144 55.1602C217.732 55.8613 217.093 56.4181 216.228 56.8308C215.363 57.2379 214.258 57.4414 212.912 57.4414H206.255ZM208.875 55.1942H212.658C213.913 55.1942 214.812 54.9511 215.354 54.4649C215.897 53.9787 216.168 53.3709 216.168 52.6416C216.168 52.0932 216.03 51.5901 215.753 51.1322C215.476 50.6742 215.08 50.3096 214.566 50.0382C214.057 49.7668 213.452 49.6312 212.751 49.6312H208.875V55.1942ZM208.875 47.5874H212.386C212.974 47.5874 213.503 47.4744 213.972 47.2482C214.447 47.0221 214.823 46.7055 215.1 46.2985C215.383 45.8858 215.524 45.3996 215.524 44.8399C215.524 44.1219 215.272 43.5198 214.769 43.0336C214.266 42.5474 213.494 42.3043 212.454 42.3043H208.875V47.5874ZM221.88 57.4414V40.074H224.5V55.1857H232.37V57.4414H221.88ZM235.359 57.4414V40.074H246.248V42.3297H237.979V47.6214H245.679V49.8686H237.979V55.1857H246.349V57.4414H235.359Z" fill="white"/>
</svg>
