<svg width="325" height="96" viewBox="0 0 325 96" fill="none" xmlns="http://www.w3.org/2000/svg">
<path d="M323.254 74.6434L300.061 93.9211H25.9409L2.74626 74.6434V21.0235L25.9409 1.74577H300.061L323.254 21.0235V74.6434Z" fill="#0A4F9B" fill-opacity="0.1" stroke="#0A4F9B" stroke-width="1.49251"/>
<path d="M78.7944 39.6321L83.6281 53.777H83.8231L88.6568 39.6321H91.4892L85.2393 56.9995H82.2119L75.962 39.6321H78.7944ZM103.47 44.1944C103.379 43.3917 103.006 42.7698 102.35 42.3288C101.694 41.8822 100.869 41.6589 99.874 41.6589C99.1616 41.6589 98.5454 41.7719 98.0253 41.9981C97.5052 42.2186 97.101 42.5239 96.8126 42.9139C96.53 43.2984 96.3886 43.7365 96.3886 44.2284C96.3886 44.6411 96.4847 44.9972 96.677 45.2969C96.8748 45.5965 97.1321 45.8481 97.4486 46.0516C97.7709 46.2495 98.1158 46.4163 98.4832 46.5519C98.8507 46.682 99.204 46.7894 99.5432 46.8742L101.239 47.3152C101.793 47.4508 102.361 47.6346 102.944 47.8664C103.526 48.0982 104.066 48.4034 104.564 48.7822C105.061 49.161 105.462 49.6302 105.768 50.1899C106.079 50.7496 106.234 51.4196 106.234 52.1997C106.234 53.1834 105.98 54.0569 105.471 54.8201C104.968 55.5833 104.236 56.1854 103.275 56.6264C102.319 57.0674 101.163 57.2878 99.8061 57.2878C98.5058 57.2878 97.3808 57.0815 96.431 56.6688C95.4812 56.2561 94.7378 55.671 94.2007 54.9134C93.6637 54.1502 93.3669 53.2456 93.3103 52.1997H95.9392C95.9901 52.8273 96.1936 53.3502 96.5497 53.7686C96.9116 54.1813 97.3723 54.4894 97.932 54.6929C98.4974 54.8908 99.1164 54.9897 99.7892 54.9897C100.53 54.9897 101.188 54.8738 101.765 54.642C102.347 54.4046 102.805 54.0767 103.139 53.6583C103.472 53.2343 103.639 52.7396 103.639 52.1743C103.639 51.6598 103.492 51.2386 103.198 50.9107C102.91 50.5828 102.517 50.3115 102.019 50.0967C101.528 49.8818 100.971 49.6924 100.349 49.5285L98.2967 48.9688C96.9059 48.59 95.8035 48.0331 94.9894 47.2982C94.181 46.5632 93.7767 45.5909 93.7767 44.381C93.7767 43.3804 94.0481 42.5069 94.5908 41.7606C95.1336 41.0144 95.8685 40.4349 96.7957 40.0222C97.7228 39.6038 98.7687 39.3947 99.9333 39.3947C101.109 39.3947 102.147 39.601 103.046 40.0137C103.95 40.4264 104.662 40.9946 105.183 41.7182C105.703 42.4362 105.974 43.2616 105.997 44.1944H103.47ZM112.766 56.9995L107.949 39.6321H110.705L114.089 53.0817H114.25L117.769 39.6321H120.5L124.019 53.0902H124.18L127.555 39.6321H130.32L125.495 56.9995H122.857L119.202 43.9909H119.067L115.412 56.9995H112.766ZM132.709 56.9995V39.6321H138.9C140.245 39.6321 141.362 39.8639 142.249 40.3275C143.143 40.7911 143.81 41.4327 144.251 42.2525C144.692 43.0666 144.912 44.0079 144.912 45.0764C144.912 46.1392 144.689 47.0749 144.242 47.8833C143.801 48.6861 143.134 49.3108 142.241 49.7574C141.353 50.2041 140.237 50.4274 138.891 50.4274H134.202V48.1717H138.654C139.502 48.1717 140.192 48.0501 140.723 47.807C141.26 47.5639 141.653 47.2106 141.902 46.747C142.15 46.2834 142.275 45.7265 142.275 45.0764C142.275 44.4206 142.148 43.8524 141.893 43.3719C141.644 42.8913 141.252 42.5239 140.714 42.2695C140.183 42.0094 139.485 41.8794 138.62 41.8794H135.33V56.9995H132.709ZM141.283 49.1638L145.574 56.9995H142.589L138.382 49.1638H141.283ZM160.043 56.9995H154.421V39.6321H160.221C161.923 39.6321 163.384 39.9798 164.605 40.6752C165.826 41.3649 166.762 42.3571 167.412 43.6517C168.068 44.9407 168.396 46.4869 168.396 48.2904C168.396 50.0995 168.065 51.6542 167.404 52.9545C166.748 54.2548 165.798 55.2554 164.554 55.9565C163.311 56.6518 161.807 56.9995 160.043 56.9995ZM157.041 54.7099H159.899C161.222 54.7099 162.321 54.4611 163.198 53.9636C164.074 53.4605 164.73 52.734 165.165 51.7842C165.6 50.8288 165.818 49.6642 165.818 48.2904C165.818 46.9279 165.6 45.7718 165.165 44.822C164.735 43.8722 164.094 43.1514 163.24 42.6595C162.386 42.1677 161.326 41.9218 160.06 41.9218H157.041V54.7099ZM174.275 39.6321V56.9995H171.654V39.6321H174.275ZM187.563 44.1944C187.473 43.3917 187.1 42.7698 186.444 42.3288C185.788 41.8822 184.963 41.6589 183.968 41.6589C183.255 41.6589 182.639 41.7719 182.119 41.9981C181.599 42.2186 181.195 42.5239 180.906 42.9139C180.624 43.2984 180.482 43.7365 180.482 44.2284C180.482 44.6411 180.578 44.9972 180.771 45.2969C180.968 45.5965 181.226 45.8481 181.542 46.0516C181.865 46.2495 182.209 46.4163 182.577 46.5519C182.944 46.682 183.298 46.7894 183.637 46.8742L185.333 47.3152C185.887 47.4508 186.455 47.6346 187.037 47.8664C187.62 48.0982 188.16 48.4034 188.657 48.7822C189.155 49.161 189.556 49.6302 189.861 50.1899C190.172 50.7496 190.328 51.4196 190.328 52.1997C190.328 53.1834 190.073 54.0569 189.565 54.8201C189.061 55.5833 188.329 56.1854 187.368 56.6264C186.413 57.0674 185.257 57.2878 183.9 57.2878C182.599 57.2878 181.474 57.0815 180.525 56.6688C179.575 56.2561 178.831 55.671 178.294 54.9134C177.757 54.1502 177.46 53.2456 177.404 52.1997H180.033C180.084 52.8273 180.287 53.3502 180.643 53.7686C181.005 54.1813 181.466 54.4894 182.026 54.6929C182.591 54.8908 183.21 54.9897 183.883 54.9897C184.623 54.9897 185.282 54.8738 185.859 54.642C186.441 54.4046 186.899 54.0767 187.232 53.6583C187.566 53.2343 187.733 52.7396 187.733 52.1743C187.733 51.6598 187.586 51.2386 187.292 50.9107C187.004 50.5828 186.611 50.3115 186.113 50.0967C185.621 49.8818 185.064 49.6924 184.443 49.5285L182.39 48.9688C181 48.59 179.897 48.0331 179.083 47.2982C178.275 46.5632 177.87 45.5909 177.87 44.381C177.87 43.3804 178.142 42.5069 178.684 41.7606C179.227 41.0144 179.962 40.4349 180.889 40.0222C181.816 39.6038 182.862 39.3947 184.027 39.3947C185.203 39.3947 186.24 39.601 187.139 40.0137C188.044 40.4264 188.756 40.9946 189.276 41.7182C189.796 42.4362 190.068 43.2616 190.09 44.1944H187.563ZM194.786 56.9995H192.005L198.255 39.6321H201.282L207.532 56.9995H204.75L199.84 42.7867H199.705L194.786 56.9995ZM195.253 50.1984H204.276V52.4033H195.253V50.1984ZM210.04 56.9995V39.6321H216.4C217.632 39.6321 218.653 39.8356 219.461 40.2427C220.27 40.6441 220.875 41.1896 221.276 41.8794C221.678 42.5634 221.878 43.3351 221.878 44.1944C221.878 44.9181 221.745 45.5287 221.48 46.0262C221.214 46.518 220.858 46.9138 220.411 47.2134C219.97 47.5074 219.484 47.7222 218.953 47.8579V48.0275C219.529 48.0558 220.092 48.2423 220.64 48.5872C221.194 48.9264 221.652 49.4098 222.014 50.0373C222.376 50.6648 222.557 51.428 222.557 52.3269C222.557 53.2145 222.347 54.0117 221.929 54.7183C221.516 55.4194 220.878 55.9762 220.013 56.3889C219.148 56.796 218.042 56.9995 216.697 56.9995H210.04ZM212.66 54.7523H216.442C217.698 54.7523 218.596 54.5092 219.139 54.023C219.682 53.5368 219.953 52.929 219.953 52.1997C219.953 51.6513 219.815 51.1482 219.538 50.6903C219.261 50.2323 218.865 49.8677 218.35 49.5963C217.842 49.325 217.237 49.1893 216.536 49.1893H212.66V54.7523ZM212.66 47.1455H216.171C216.759 47.1455 217.288 47.0325 217.757 46.8063C218.232 46.5802 218.608 46.2636 218.885 45.8566C219.167 45.4439 219.309 44.9577 219.309 44.398C219.309 43.68 219.057 43.0779 218.554 42.5917C218.051 42.1055 217.279 41.8624 216.239 41.8624H212.66V47.1455ZM225.665 56.9995V39.6321H228.285V54.7438H236.155V56.9995H225.665ZM239.144 56.9995V39.6321H250.032V41.8878H241.764V47.1795H249.464V49.4267H241.764V54.7438H250.134V56.9995H239.144Z" fill="white"/>
<path d="M46.0067 1.81808H24.8801L2 20.5515V34.8247" stroke="#0A4F9B" stroke-width="2.98502" stroke-miterlimit="10"/>
<path d="M46.0067 93.7017H24.8801L2 74.9683V60.6951" stroke="#0A4F9B" stroke-width="2.98502" stroke-miterlimit="10"/>
<path d="M278.919 1.8182H300.046L322.926 20.5516V34.8248" stroke="#0A4F9B" stroke-width="2.98502" stroke-miterlimit="10"/>
<path d="M278.919 93.7016H300.046L322.926 74.9682V60.6949" stroke="#0A4F9B" stroke-width="2.98502" stroke-miterlimit="10"/>
</svg>
